<svg width="333" height="456" viewBox="0 0 333 456" fill="none" xmlns="http://www.w3.org/2000/svg">
<rect width="333" height="456" rx="20" fill="url(#paint0_linear_204_213)"/>
<g filter="url(#filter0_d_204_213)">
<mask id="path-2-outside-1_204_213" maskUnits="userSpaceOnUse" x="44" y="176" width="246" height="78" fill="black">
<rect fill="white" x="44" y="176" width="246" height="78"/>
<path d="M81.2698 187.994L81.1962 191.241V192.2C79.7248 202.432 78.7929 208.236 78.4005 209.614C79.3815 207.892 81.0736 204.744 83.4768 200.169C85.8801 195.594 87.842 191.979 89.3624 189.322C90.8828 186.617 92.7466 183.985 94.9537 181.427C97.1608 178.82 99.1717 177.344 100.986 177C103.144 177 104.223 180.296 104.223 186.887V188.732C104.174 192.225 103.61 197.439 102.531 204.375C100.913 215.197 100.104 222.01 100.104 224.814C100.104 227.568 100.251 230.151 100.545 232.561C100.888 234.972 101.649 237.603 102.826 240.456C105.278 246.359 110.599 249.999 118.79 251.377C120.114 250.885 120.899 250.639 121.144 250.639C121.39 250.639 121.512 250.663 121.512 250.713C121.512 251.155 120.752 251.647 119.232 252.188C117.76 252.729 116.779 253 116.289 253C115.847 253 115.504 252.951 115.259 252.852C110.452 252.852 106.627 251.106 103.782 247.614C101.281 244.465 99.5395 240.628 98.5586 236.103C98.4114 234.184 98.3379 231.331 98.3379 227.544C98.3379 223.707 98.8283 217.164 99.8093 207.917C100.79 198.669 101.33 192.274 101.428 188.732L101.354 183.05C101.207 181.624 100.864 180.911 100.324 180.911C95.9101 184.354 91.9373 189.298 88.406 195.742C86.4932 199.234 85.1444 201.768 84.3597 203.342C83.624 204.916 82.6921 206.933 81.564 209.392C79.9455 212.934 78.2044 217.681 76.3406 223.633C75.9482 224.027 75.5313 224.223 75.0899 224.223C74.6485 224.223 74.3542 224.027 74.2071 223.633C74.2071 220.731 75.8501 209.564 79.1362 190.134C78.842 188.658 78.0817 188.486 76.8556 189.617C76.5123 189.913 74.0599 192.962 69.4986 198.767C64.9373 204.522 62.1172 208.138 61.0381 209.614C60.842 210.155 60.2534 212.122 59.2725 215.517C58.3406 218.861 57.7766 220.829 57.5804 221.419C56.7956 223.879 55.4959 226.043 53.6812 227.913C51.9155 229.733 49.9537 230.643 47.7956 230.643C46.079 230.643 45.1717 230.348 45.0736 229.757C45.0245 229.462 45 229.019 45 228.429C45 226.855 45.4659 225.453 46.3978 224.223C54.7847 214.041 59.4196 206.613 60.3025 201.94C60.6948 201.546 60.891 199.111 60.891 194.635C60.891 190.159 60.7193 187.92 60.376 187.92C60.327 187.92 60.3025 187.945 60.3025 187.994L46.7657 193.602C46.4714 193.602 46.2016 193.504 45.9564 193.307C45.7602 193.061 45.6621 192.79 45.6621 192.495C45.6621 191.954 46.4959 191.487 48.1635 191.093L49.1935 190.798C49.6839 190.552 50.7629 189.962 52.4305 189.027C56.158 186.961 58.782 185.879 60.3025 185.781C61.2834 185.781 61.921 186.027 62.2153 186.518C62.5095 186.961 62.7057 187.33 62.8038 187.625C62.951 187.871 63.049 188.265 63.0981 188.806C63.1471 189.298 63.1717 189.691 63.1717 189.986C63.2207 190.232 63.2207 190.65 63.1717 191.241C63.1717 191.831 63.1717 192.471 63.1717 193.159C63.1717 193.799 63.049 195.471 62.8038 198.177C62.5586 200.833 62.436 203.022 62.436 204.744C70.7738 193.774 75.8011 187.502 77.5177 185.928C78.2534 185.239 78.842 184.895 79.2834 184.895C79.7738 184.895 80.1172 185.067 80.3134 185.412C80.5095 185.756 80.8283 186.617 81.2698 187.994ZM47.7221 228.503C49.0463 228.503 50.3951 227.814 51.7684 226.437C53.1417 225.01 54.1471 223.584 54.7847 222.157L56.109 218.837C56.9428 216.574 57.4332 215.123 57.5804 214.483V214.115C57.4823 214.262 57.0163 214.828 56.1826 215.812C55.3488 216.746 54.6376 217.558 54.049 218.247C53.5095 218.886 52.7984 219.772 51.9155 220.903C51.0327 222.034 50.3215 223.018 49.782 223.854C48.4087 225.92 47.7221 227.47 47.7221 228.503Z"/>
<path d="M124.749 211.606C123.327 215.246 122.616 218.64 122.616 221.788C122.616 227.003 125.436 229.61 131.076 229.61C132.499 229.413 133.553 229.118 134.24 228.724C134.975 228.331 135.76 227.667 136.594 226.732C137.428 225.748 138.237 224.937 139.022 224.297H139.39C139.144 227.052 138.188 228.921 136.52 229.905C134.902 230.839 132.67 231.307 129.826 231.307C123.695 231.307 120.384 228.724 119.894 223.559C119.649 224.838 118.52 226.339 116.51 228.06C114.548 229.733 112.782 230.569 111.213 230.569C111.114 230.569 110.992 230.569 110.845 230.569C107.804 229.733 106.283 227.913 106.283 225.109C106.283 221.469 108.172 217.927 111.948 214.483C114.891 211.778 117.76 210.425 120.556 210.425C122.125 210.425 123.523 210.819 124.749 211.606ZM108.564 224.74C108.564 225.527 108.589 226.166 108.638 226.658C108.736 227.101 108.981 227.519 109.373 227.913C109.815 228.306 110.428 228.503 111.213 228.503C113.371 228.405 115.529 226.683 117.687 223.338C119.894 219.944 121.071 217.041 121.218 214.631C120.433 213.647 119.354 213.155 117.981 213.155C116.215 213.155 114.376 214.287 112.463 216.55C110.55 218.812 109.251 221.542 108.564 224.74Z"/>
<path d="M136.741 216.918C136.741 214.213 136.839 211.089 137.035 207.548C137.526 207.548 137.943 207.744 138.286 208.138C138.678 208.482 138.85 209.023 138.801 209.761C138.752 210.499 138.728 212.59 138.728 216.033C138.728 219.476 138.777 221.665 138.875 222.6C139.071 225.453 139.635 226.88 140.567 226.88C141.057 226.88 141.67 226.486 142.406 225.699C144.172 223.731 145.79 220.608 147.262 216.328C147.801 214.656 148.071 213.598 148.071 213.155C148.071 212.663 148.071 212.368 148.071 212.27H149.837C149.935 212.811 150.106 214.311 150.352 216.771C151.038 222.625 151.798 226.019 152.632 226.953C153.76 226.707 154.569 225.133 155.06 222.231C155.55 219.28 155.796 216.894 155.796 215.074L157.193 213.598C157.586 214.877 157.856 215.738 158.003 216.181C158.199 216.623 158.493 217.091 158.886 217.583C159.278 218.074 159.719 218.37 160.21 218.468C160.749 218.566 161.485 218.616 162.417 218.616C164.232 217.435 165.311 216.845 165.654 216.845C166.046 216.845 166.243 216.918 166.243 217.066C166.243 217.755 165.629 218.542 164.403 219.427C163.226 220.263 162.49 220.682 162.196 220.682C161.902 220.682 161.73 220.682 161.681 220.682C159.866 220.682 158.616 220.436 157.929 219.944C157.88 220.14 157.757 220.731 157.561 221.715C157.365 222.698 157.144 223.584 156.899 224.371C156.654 225.109 156.335 225.92 155.943 226.806C155.109 228.773 153.883 229.757 152.264 229.757C151.578 229.757 150.989 229.241 150.499 228.208C149.861 226.978 149.297 225.453 148.807 223.633C148.316 221.764 148.071 220.78 148.071 220.682C144.589 226.978 141.916 230.126 140.052 230.126C137.845 230.126 136.741 225.724 136.741 216.918Z"/>
<path d="M182.648 211.606C181.226 215.246 180.515 218.64 180.515 221.788C180.515 227.003 183.335 229.61 188.975 229.61C190.398 229.413 191.452 229.118 192.139 228.724C192.875 228.331 193.659 227.667 194.493 226.732C195.327 225.748 196.136 224.937 196.921 224.297H197.289C197.044 227.052 196.087 228.921 194.42 229.905C192.801 230.839 190.569 231.307 187.725 231.307C181.594 231.307 178.283 228.724 177.793 223.559C177.548 224.838 176.42 226.339 174.409 228.06C172.447 229.733 170.681 230.569 169.112 230.569C169.014 230.569 168.891 230.569 168.744 230.569C165.703 229.733 164.183 227.913 164.183 225.109C164.183 221.469 166.071 217.927 169.847 214.483C172.79 211.778 175.659 210.425 178.455 210.425C180.025 210.425 181.422 210.819 182.648 211.606ZM166.463 224.74C166.463 225.527 166.488 226.166 166.537 226.658C166.635 227.101 166.88 227.519 167.272 227.913C167.714 228.306 168.327 228.503 169.112 228.503C171.27 228.405 173.428 226.683 175.586 223.338C177.793 219.944 178.97 217.041 179.117 214.631C178.332 213.647 177.253 213.155 175.88 213.155C174.114 213.155 172.275 214.287 170.362 216.55C168.45 218.812 167.15 221.542 166.463 224.74Z"/>
<path d="M193.905 224.592C194.886 221.346 195.94 218.739 197.068 216.771C198.245 214.803 199.643 213.401 201.262 212.565C202.88 211.68 204.352 211.139 205.676 210.942C207 210.696 208.839 210.573 211.193 210.573C211.341 209.983 211.586 208.827 211.929 207.105C212.272 205.334 212.518 204.153 212.665 203.563C212.861 202.924 213.131 201.964 213.474 200.685C214.063 198.57 214.651 196.972 215.24 195.889C215.877 194.758 216.27 194.045 216.417 193.75C216.564 193.454 216.662 193.258 216.711 193.159C216.809 193.012 216.932 192.864 217.079 192.717C217.275 192.52 217.594 192.421 218.035 192.421C219.556 192.421 220.316 194.045 220.316 197.291V197.955C220.316 200.513 219.237 204.055 217.079 208.581C214.921 213.057 213.842 216.476 213.842 218.837C213.842 224.1 215.264 226.732 218.109 226.732C219.041 226.732 220.316 226.363 221.935 225.625C223.553 224.887 224.828 224.518 225.76 224.518L226.496 224.592C225.662 225.871 224.411 226.88 222.744 227.617C221.125 228.355 219.777 228.724 218.698 228.724C217.668 228.724 216.956 228.7 216.564 228.65C216.172 228.601 215.804 228.503 215.46 228.355C215.117 228.159 214.823 228.011 214.578 227.913C214.381 227.814 214.136 227.593 213.842 227.249C213.597 226.855 213.401 226.584 213.253 226.437C213.155 226.289 212.984 225.945 212.738 225.404C212.493 224.863 212.322 224.518 212.223 224.371C212.174 224.223 212.003 223.805 211.708 223.117C211.463 222.428 211.292 221.985 211.193 221.788C211.046 221.936 210.482 222.551 209.501 223.633C208.52 224.666 207.834 225.379 207.441 225.773C207.049 226.117 206.362 226.707 205.381 227.544C204.45 228.38 203.665 228.97 203.027 229.315C201.213 230.298 199.594 230.79 198.172 230.79C196.798 230.79 195.793 230.471 195.155 229.831C194.567 229.142 194.199 228.429 194.052 227.691C193.954 226.904 193.905 225.871 193.905 224.592ZM207.221 213.303C204.474 213.303 201.997 214.582 199.79 217.14C197.632 219.698 196.553 222.28 196.553 224.887C196.553 227.445 197.24 228.724 198.613 228.724C200.526 228.724 202.978 227.273 205.97 224.371C209.011 221.419 210.531 218.911 210.531 216.845C210.531 215.615 210.262 214.729 209.722 214.188C209.232 213.598 208.398 213.303 207.221 213.303ZM218.183 195.963C216.907 197.734 215.853 200.12 215.019 203.12C214.234 206.072 213.842 208.556 213.842 210.573C213.842 210.671 213.866 210.893 213.916 211.237L214.578 210.573C215.166 209.983 216.368 206.49 218.183 200.095L218.256 199.21C218.256 198.619 218.256 198.25 218.256 198.103C218.256 197.955 218.232 197.586 218.183 196.996C218.183 196.406 218.183 196.061 218.183 195.963Z"/>
<path d="M224.51 224.592C225.49 221.346 226.545 218.739 227.673 216.771C228.85 214.803 230.248 213.401 231.866 212.565C233.485 211.68 234.956 211.139 236.281 210.942C237.605 210.696 239.444 210.573 241.798 210.573C241.946 209.983 242.191 208.827 242.534 207.105C242.877 205.334 243.123 204.153 243.27 203.563C243.466 202.924 243.736 201.964 244.079 200.685C244.668 198.57 245.256 196.972 245.845 195.889C246.482 194.758 246.875 194.045 247.022 193.75C247.169 193.454 247.267 193.258 247.316 193.159C247.414 193.012 247.537 192.864 247.684 192.717C247.88 192.52 248.199 192.421 248.64 192.421C250.161 192.421 250.921 194.045 250.921 197.291V197.955C250.921 200.513 249.842 204.055 247.684 208.581C245.526 213.057 244.447 216.476 244.447 218.837C244.447 224.1 245.869 226.732 248.714 226.732C249.646 226.732 250.921 226.363 252.54 225.625C254.158 224.887 255.433 224.518 256.365 224.518L257.101 224.592C256.267 225.871 255.016 226.88 253.349 227.617C251.73 228.355 250.381 228.724 249.302 228.724C248.272 228.724 247.561 228.7 247.169 228.65C246.777 228.601 246.409 228.503 246.065 228.355C245.722 228.159 245.428 228.011 245.183 227.913C244.986 227.814 244.741 227.593 244.447 227.249C244.202 226.855 244.005 226.584 243.858 226.437C243.76 226.289 243.589 225.945 243.343 225.404C243.098 224.863 242.926 224.518 242.828 224.371C242.779 224.223 242.608 223.805 242.313 223.117C242.068 222.428 241.896 221.985 241.798 221.788C241.651 221.936 241.087 222.551 240.106 223.633C239.125 224.666 238.439 225.379 238.046 225.773C237.654 226.117 236.967 226.707 235.986 227.544C235.055 228.38 234.27 228.97 233.632 229.315C231.817 230.298 230.199 230.79 228.777 230.79C227.403 230.79 226.398 230.471 225.76 229.831C225.172 229.142 224.804 228.429 224.657 227.691C224.559 226.904 224.51 225.871 224.51 224.592ZM237.826 213.303C235.079 213.303 232.602 214.582 230.395 217.14C228.237 219.698 227.158 222.28 227.158 224.887C227.158 227.445 227.845 228.724 229.218 228.724C231.131 228.724 233.583 227.273 236.575 224.371C239.616 221.419 241.136 218.911 241.136 216.845C241.136 215.615 240.866 214.729 240.327 214.188C239.837 213.598 239.003 213.303 237.826 213.303ZM248.787 195.963C247.512 197.734 246.458 200.12 245.624 203.12C244.839 206.072 244.447 208.556 244.447 210.573C244.447 210.671 244.471 210.893 244.52 211.237L245.183 210.573C245.771 209.983 246.973 206.49 248.787 200.095L248.861 199.21C248.861 198.619 248.861 198.25 248.861 198.103C248.861 197.955 248.837 197.586 248.787 196.996C248.787 196.406 248.787 196.061 248.787 195.963Z"/>
<path d="M273.36 211.606C271.937 215.246 271.226 218.64 271.226 221.788C271.226 227.003 274.046 229.61 279.687 229.61C281.109 229.413 282.163 229.118 282.85 228.724C283.586 228.331 284.371 227.667 285.204 226.732C286.038 225.748 286.847 224.937 287.632 224.297H288C287.755 227.052 286.798 228.921 285.131 229.905C283.512 230.839 281.281 231.307 278.436 231.307C272.305 231.307 268.995 228.724 268.504 223.559C268.259 224.838 267.131 226.339 265.12 228.06C263.158 229.733 261.392 230.569 259.823 230.569C259.725 230.569 259.602 230.569 259.455 230.569C256.414 229.733 254.894 227.913 254.894 225.109C254.894 221.469 256.782 217.927 260.559 214.483C263.501 211.778 266.371 210.425 269.166 210.425C270.736 210.425 272.134 210.819 273.36 211.606ZM257.174 224.74C257.174 225.527 257.199 226.166 257.248 226.658C257.346 227.101 257.591 227.519 257.984 227.913C258.425 228.306 259.038 228.503 259.823 228.503C261.981 228.405 264.139 226.683 266.297 223.338C268.504 219.944 269.681 217.041 269.828 214.631C269.044 213.647 267.965 213.155 266.591 213.155C264.826 213.155 262.986 214.287 261.074 216.55C259.161 218.812 257.861 221.542 257.174 224.74Z"/>
</mask>
<path d="M81.2698 187.994L81.1962 191.241V192.2C79.7248 202.432 78.7929 208.236 78.4005 209.614C79.3815 207.892 81.0736 204.744 83.4768 200.169C85.8801 195.594 87.842 191.979 89.3624 189.322C90.8828 186.617 92.7466 183.985 94.9537 181.427C97.1608 178.82 99.1717 177.344 100.986 177C103.144 177 104.223 180.296 104.223 186.887V188.732C104.174 192.225 103.61 197.439 102.531 204.375C100.913 215.197 100.104 222.01 100.104 224.814C100.104 227.568 100.251 230.151 100.545 232.561C100.888 234.972 101.649 237.603 102.826 240.456C105.278 246.359 110.599 249.999 118.79 251.377C120.114 250.885 120.899 250.639 121.144 250.639C121.39 250.639 121.512 250.663 121.512 250.713C121.512 251.155 120.752 251.647 119.232 252.188C117.76 252.729 116.779 253 116.289 253C115.847 253 115.504 252.951 115.259 252.852C110.452 252.852 106.627 251.106 103.782 247.614C101.281 244.465 99.5395 240.628 98.5586 236.103C98.4114 234.184 98.3379 231.331 98.3379 227.544C98.3379 223.707 98.8283 217.164 99.8093 207.917C100.79 198.669 101.33 192.274 101.428 188.732L101.354 183.05C101.207 181.624 100.864 180.911 100.324 180.911C95.9101 184.354 91.9373 189.298 88.406 195.742C86.4932 199.234 85.1444 201.768 84.3597 203.342C83.624 204.916 82.6921 206.933 81.564 209.392C79.9455 212.934 78.2044 217.681 76.3406 223.633C75.9482 224.027 75.5313 224.223 75.0899 224.223C74.6485 224.223 74.3542 224.027 74.2071 223.633C74.2071 220.731 75.8501 209.564 79.1362 190.134C78.842 188.658 78.0817 188.486 76.8556 189.617C76.5123 189.913 74.0599 192.962 69.4986 198.767C64.9373 204.522 62.1172 208.138 61.0381 209.614C60.842 210.155 60.2534 212.122 59.2725 215.517C58.3406 218.861 57.7766 220.829 57.5804 221.419C56.7956 223.879 55.4959 226.043 53.6812 227.913C51.9155 229.733 49.9537 230.643 47.7956 230.643C46.079 230.643 45.1717 230.348 45.0736 229.757C45.0245 229.462 45 229.019 45 228.429C45 226.855 45.4659 225.453 46.3978 224.223C54.7847 214.041 59.4196 206.613 60.3025 201.94C60.6948 201.546 60.891 199.111 60.891 194.635C60.891 190.159 60.7193 187.92 60.376 187.92C60.327 187.92 60.3025 187.945 60.3025 187.994L46.7657 193.602C46.4714 193.602 46.2016 193.504 45.9564 193.307C45.7602 193.061 45.6621 192.79 45.6621 192.495C45.6621 191.954 46.4959 191.487 48.1635 191.093L49.1935 190.798C49.6839 190.552 50.7629 189.962 52.4305 189.027C56.158 186.961 58.782 185.879 60.3025 185.781C61.2834 185.781 61.921 186.027 62.2153 186.518C62.5095 186.961 62.7057 187.33 62.8038 187.625C62.951 187.871 63.049 188.265 63.0981 188.806C63.1471 189.298 63.1717 189.691 63.1717 189.986C63.2207 190.232 63.2207 190.65 63.1717 191.241C63.1717 191.831 63.1717 192.471 63.1717 193.159C63.1717 193.799 63.049 195.471 62.8038 198.177C62.5586 200.833 62.436 203.022 62.436 204.744C70.7738 193.774 75.8011 187.502 77.5177 185.928C78.2534 185.239 78.842 184.895 79.2834 184.895C79.7738 184.895 80.1172 185.067 80.3134 185.412C80.5095 185.756 80.8283 186.617 81.2698 187.994ZM47.7221 228.503C49.0463 228.503 50.3951 227.814 51.7684 226.437C53.1417 225.01 54.1471 223.584 54.7847 222.157L56.109 218.837C56.9428 216.574 57.4332 215.123 57.5804 214.483V214.115C57.4823 214.262 57.0163 214.828 56.1826 215.812C55.3488 216.746 54.6376 217.558 54.049 218.247C53.5095 218.886 52.7984 219.772 51.9155 220.903C51.0327 222.034 50.3215 223.018 49.782 223.854C48.4087 225.92 47.7221 227.47 47.7221 228.503Z" fill="white"/>
<path d="M124.749 211.606C123.327 215.246 122.616 218.64 122.616 221.788C122.616 227.003 125.436 229.61 131.076 229.61C132.499 229.413 133.553 229.118 134.24 228.724C134.975 228.331 135.76 227.667 136.594 226.732C137.428 225.748 138.237 224.937 139.022 224.297H139.39C139.144 227.052 138.188 228.921 136.52 229.905C134.902 230.839 132.67 231.307 129.826 231.307C123.695 231.307 120.384 228.724 119.894 223.559C119.649 224.838 118.52 226.339 116.51 228.06C114.548 229.733 112.782 230.569 111.213 230.569C111.114 230.569 110.992 230.569 110.845 230.569C107.804 229.733 106.283 227.913 106.283 225.109C106.283 221.469 108.172 217.927 111.948 214.483C114.891 211.778 117.76 210.425 120.556 210.425C122.125 210.425 123.523 210.819 124.749 211.606ZM108.564 224.74C108.564 225.527 108.589 226.166 108.638 226.658C108.736 227.101 108.981 227.519 109.373 227.913C109.815 228.306 110.428 228.503 111.213 228.503C113.371 228.405 115.529 226.683 117.687 223.338C119.894 219.944 121.071 217.041 121.218 214.631C120.433 213.647 119.354 213.155 117.981 213.155C116.215 213.155 114.376 214.287 112.463 216.55C110.55 218.812 109.251 221.542 108.564 224.74Z" fill="white"/>
<path d="M136.741 216.918C136.741 214.213 136.839 211.089 137.035 207.548C137.526 207.548 137.943 207.744 138.286 208.138C138.678 208.482 138.85 209.023 138.801 209.761C138.752 210.499 138.728 212.59 138.728 216.033C138.728 219.476 138.777 221.665 138.875 222.6C139.071 225.453 139.635 226.88 140.567 226.88C141.057 226.88 141.67 226.486 142.406 225.699C144.172 223.731 145.79 220.608 147.262 216.328C147.801 214.656 148.071 213.598 148.071 213.155C148.071 212.663 148.071 212.368 148.071 212.27H149.837C149.935 212.811 150.106 214.311 150.352 216.771C151.038 222.625 151.798 226.019 152.632 226.953C153.76 226.707 154.569 225.133 155.06 222.231C155.55 219.28 155.796 216.894 155.796 215.074L157.193 213.598C157.586 214.877 157.856 215.738 158.003 216.181C158.199 216.623 158.493 217.091 158.886 217.583C159.278 218.074 159.719 218.37 160.21 218.468C160.749 218.566 161.485 218.616 162.417 218.616C164.232 217.435 165.311 216.845 165.654 216.845C166.046 216.845 166.243 216.918 166.243 217.066C166.243 217.755 165.629 218.542 164.403 219.427C163.226 220.263 162.49 220.682 162.196 220.682C161.902 220.682 161.73 220.682 161.681 220.682C159.866 220.682 158.616 220.436 157.929 219.944C157.88 220.14 157.757 220.731 157.561 221.715C157.365 222.698 157.144 223.584 156.899 224.371C156.654 225.109 156.335 225.92 155.943 226.806C155.109 228.773 153.883 229.757 152.264 229.757C151.578 229.757 150.989 229.241 150.499 228.208C149.861 226.978 149.297 225.453 148.807 223.633C148.316 221.764 148.071 220.78 148.071 220.682C144.589 226.978 141.916 230.126 140.052 230.126C137.845 230.126 136.741 225.724 136.741 216.918Z" fill="white"/>
<path d="M182.648 211.606C181.226 215.246 180.515 218.64 180.515 221.788C180.515 227.003 183.335 229.61 188.975 229.61C190.398 229.413 191.452 229.118 192.139 228.724C192.875 228.331 193.659 227.667 194.493 226.732C195.327 225.748 196.136 224.937 196.921 224.297H197.289C197.044 227.052 196.087 228.921 194.42 229.905C192.801 230.839 190.569 231.307 187.725 231.307C181.594 231.307 178.283 228.724 177.793 223.559C177.548 224.838 176.42 226.339 174.409 228.06C172.447 229.733 170.681 230.569 169.112 230.569C169.014 230.569 168.891 230.569 168.744 230.569C165.703 229.733 164.183 227.913 164.183 225.109C164.183 221.469 166.071 217.927 169.847 214.483C172.79 211.778 175.659 210.425 178.455 210.425C180.025 210.425 181.422 210.819 182.648 211.606ZM166.463 224.74C166.463 225.527 166.488 226.166 166.537 226.658C166.635 227.101 166.88 227.519 167.272 227.913C167.714 228.306 168.327 228.503 169.112 228.503C171.27 228.405 173.428 226.683 175.586 223.338C177.793 219.944 178.97 217.041 179.117 214.631C178.332 213.647 177.253 213.155 175.88 213.155C174.114 213.155 172.275 214.287 170.362 216.55C168.45 218.812 167.15 221.542 166.463 224.74Z" fill="white"/>
<path d="M193.905 224.592C194.886 221.346 195.94 218.739 197.068 216.771C198.245 214.803 199.643 213.401 201.262 212.565C202.88 211.68 204.352 211.139 205.676 210.942C207 210.696 208.839 210.573 211.193 210.573C211.341 209.983 211.586 208.827 211.929 207.105C212.272 205.334 212.518 204.153 212.665 203.563C212.861 202.924 213.131 201.964 213.474 200.685C214.063 198.57 214.651 196.972 215.24 195.889C215.877 194.758 216.27 194.045 216.417 193.75C216.564 193.454 216.662 193.258 216.711 193.159C216.809 193.012 216.932 192.864 217.079 192.717C217.275 192.52 217.594 192.421 218.035 192.421C219.556 192.421 220.316 194.045 220.316 197.291V197.955C220.316 200.513 219.237 204.055 217.079 208.581C214.921 213.057 213.842 216.476 213.842 218.837C213.842 224.1 215.264 226.732 218.109 226.732C219.041 226.732 220.316 226.363 221.935 225.625C223.553 224.887 224.828 224.518 225.76 224.518L226.496 224.592C225.662 225.871 224.411 226.88 222.744 227.617C221.125 228.355 219.777 228.724 218.698 228.724C217.668 228.724 216.956 228.7 216.564 228.65C216.172 228.601 215.804 228.503 215.46 228.355C215.117 228.159 214.823 228.011 214.578 227.913C214.381 227.814 214.136 227.593 213.842 227.249C213.597 226.855 213.401 226.584 213.253 226.437C213.155 226.289 212.984 225.945 212.738 225.404C212.493 224.863 212.322 224.518 212.223 224.371C212.174 224.223 212.003 223.805 211.708 223.117C211.463 222.428 211.292 221.985 211.193 221.788C211.046 221.936 210.482 222.551 209.501 223.633C208.52 224.666 207.834 225.379 207.441 225.773C207.049 226.117 206.362 226.707 205.381 227.544C204.45 228.38 203.665 228.97 203.027 229.315C201.213 230.298 199.594 230.79 198.172 230.79C196.798 230.79 195.793 230.471 195.155 229.831C194.567 229.142 194.199 228.429 194.052 227.691C193.954 226.904 193.905 225.871 193.905 224.592ZM207.221 213.303C204.474 213.303 201.997 214.582 199.79 217.14C197.632 219.698 196.553 222.28 196.553 224.887C196.553 227.445 197.24 228.724 198.613 228.724C200.526 228.724 202.978 227.273 205.97 224.371C209.011 221.419 210.531 218.911 210.531 216.845C210.531 215.615 210.262 214.729 209.722 214.188C209.232 213.598 208.398 213.303 207.221 213.303ZM218.183 195.963C216.907 197.734 215.853 200.12 215.019 203.12C214.234 206.072 213.842 208.556 213.842 210.573C213.842 210.671 213.866 210.893 213.916 211.237L214.578 210.573C215.166 209.983 216.368 206.49 218.183 200.095L218.256 199.21C218.256 198.619 218.256 198.25 218.256 198.103C218.256 197.955 218.232 197.586 218.183 196.996C218.183 196.406 218.183 196.061 218.183 195.963Z" fill="white"/>
<path d="M224.51 224.592C225.49 221.346 226.545 218.739 227.673 216.771C228.85 214.803 230.248 213.401 231.866 212.565C233.485 211.68 234.956 211.139 236.281 210.942C237.605 210.696 239.444 210.573 241.798 210.573C241.946 209.983 242.191 208.827 242.534 207.105C242.877 205.334 243.123 204.153 243.27 203.563C243.466 202.924 243.736 201.964 244.079 200.685C244.668 198.57 245.256 196.972 245.845 195.889C246.482 194.758 246.875 194.045 247.022 193.75C247.169 193.454 247.267 193.258 247.316 193.159C247.414 193.012 247.537 192.864 247.684 192.717C247.88 192.52 248.199 192.421 248.64 192.421C250.161 192.421 250.921 194.045 250.921 197.291V197.955C250.921 200.513 249.842 204.055 247.684 208.581C245.526 213.057 244.447 216.476 244.447 218.837C244.447 224.1 245.869 226.732 248.714 226.732C249.646 226.732 250.921 226.363 252.54 225.625C254.158 224.887 255.433 224.518 256.365 224.518L257.101 224.592C256.267 225.871 255.016 226.88 253.349 227.617C251.73 228.355 250.381 228.724 249.302 228.724C248.272 228.724 247.561 228.7 247.169 228.65C246.777 228.601 246.409 228.503 246.065 228.355C245.722 228.159 245.428 228.011 245.183 227.913C244.986 227.814 244.741 227.593 244.447 227.249C244.202 226.855 244.005 226.584 243.858 226.437C243.76 226.289 243.589 225.945 243.343 225.404C243.098 224.863 242.926 224.518 242.828 224.371C242.779 224.223 242.608 223.805 242.313 223.117C242.068 222.428 241.896 221.985 241.798 221.788C241.651 221.936 241.087 222.551 240.106 223.633C239.125 224.666 238.439 225.379 238.046 225.773C237.654 226.117 236.967 226.707 235.986 227.544C235.055 228.38 234.27 228.97 233.632 229.315C231.817 230.298 230.199 230.79 228.777 230.79C227.403 230.79 226.398 230.471 225.76 229.831C225.172 229.142 224.804 228.429 224.657 227.691C224.559 226.904 224.51 225.871 224.51 224.592ZM237.826 213.303C235.079 213.303 232.602 214.582 230.395 217.14C228.237 219.698 227.158 222.28 227.158 224.887C227.158 227.445 227.845 228.724 229.218 228.724C231.131 228.724 233.583 227.273 236.575 224.371C239.616 221.419 241.136 218.911 241.136 216.845C241.136 215.615 240.866 214.729 240.327 214.188C239.837 213.598 239.003 213.303 237.826 213.303ZM248.787 195.963C247.512 197.734 246.458 200.12 245.624 203.12C244.839 206.072 244.447 208.556 244.447 210.573C244.447 210.671 244.471 210.893 244.52 211.237L245.183 210.573C245.771 209.983 246.973 206.49 248.787 200.095L248.861 199.21C248.861 198.619 248.861 198.25 248.861 198.103C248.861 197.955 248.837 197.586 248.787 196.996C248.787 196.406 248.787 196.061 248.787 195.963Z" fill="white"/>
<path d="M273.36 211.606C271.937 215.246 271.226 218.64 271.226 221.788C271.226 227.003 274.046 229.61 279.687 229.61C281.109 229.413 282.163 229.118 282.85 228.724C283.586 228.331 284.371 227.667 285.204 226.732C286.038 225.748 286.847 224.937 287.632 224.297H288C287.755 227.052 286.798 228.921 285.131 229.905C283.512 230.839 281.281 231.307 278.436 231.307C272.305 231.307 268.995 228.724 268.504 223.559C268.259 224.838 267.131 226.339 265.12 228.06C263.158 229.733 261.392 230.569 259.823 230.569C259.725 230.569 259.602 230.569 259.455 230.569C256.414 229.733 254.894 227.913 254.894 225.109C254.894 221.469 256.782 217.927 260.559 214.483C263.501 211.778 266.371 210.425 269.166 210.425C270.736 210.425 272.134 210.819 273.36 211.606ZM257.174 224.74C257.174 225.527 257.199 226.166 257.248 226.658C257.346 227.101 257.591 227.519 257.984 227.913C258.425 228.306 259.038 228.503 259.823 228.503C261.981 228.405 264.139 226.683 266.297 223.338C268.504 219.944 269.681 217.041 269.828 214.631C269.044 213.647 267.965 213.155 266.591 213.155C264.826 213.155 262.986 214.287 261.074 216.55C259.161 218.812 257.861 221.542 257.174 224.74Z" fill="white"/>
<path d="M81.2698 187.994L81.1962 191.241V192.2C79.7248 202.432 78.7929 208.236 78.4005 209.614C79.3815 207.892 81.0736 204.744 83.4768 200.169C85.8801 195.594 87.842 191.979 89.3624 189.322C90.8828 186.617 92.7466 183.985 94.9537 181.427C97.1608 178.82 99.1717 177.344 100.986 177C103.144 177 104.223 180.296 104.223 186.887V188.732C104.174 192.225 103.61 197.439 102.531 204.375C100.913 215.197 100.104 222.01 100.104 224.814C100.104 227.568 100.251 230.151 100.545 232.561C100.888 234.972 101.649 237.603 102.826 240.456C105.278 246.359 110.599 249.999 118.79 251.377C120.114 250.885 120.899 250.639 121.144 250.639C121.39 250.639 121.512 250.663 121.512 250.713C121.512 251.155 120.752 251.647 119.232 252.188C117.76 252.729 116.779 253 116.289 253C115.847 253 115.504 252.951 115.259 252.852C110.452 252.852 106.627 251.106 103.782 247.614C101.281 244.465 99.5395 240.628 98.5586 236.103C98.4114 234.184 98.3379 231.331 98.3379 227.544C98.3379 223.707 98.8283 217.164 99.8093 207.917C100.79 198.669 101.33 192.274 101.428 188.732L101.354 183.05C101.207 181.624 100.864 180.911 100.324 180.911C95.9101 184.354 91.9373 189.298 88.406 195.742C86.4932 199.234 85.1444 201.768 84.3597 203.342C83.624 204.916 82.6921 206.933 81.564 209.392C79.9455 212.934 78.2044 217.681 76.3406 223.633C75.9482 224.027 75.5313 224.223 75.0899 224.223C74.6485 224.223 74.3542 224.027 74.2071 223.633C74.2071 220.731 75.8501 209.564 79.1362 190.134C78.842 188.658 78.0817 188.486 76.8556 189.617C76.5123 189.913 74.0599 192.962 69.4986 198.767C64.9373 204.522 62.1172 208.138 61.0381 209.614C60.842 210.155 60.2534 212.122 59.2725 215.517C58.3406 218.861 57.7766 220.829 57.5804 221.419C56.7956 223.879 55.4959 226.043 53.6812 227.913C51.9155 229.733 49.9537 230.643 47.7956 230.643C46.079 230.643 45.1717 230.348 45.0736 229.757C45.0245 229.462 45 229.019 45 228.429C45 226.855 45.4659 225.453 46.3978 224.223C54.7847 214.041 59.4196 206.613 60.3025 201.94C60.6948 201.546 60.891 199.111 60.891 194.635C60.891 190.159 60.7193 187.92 60.376 187.92C60.327 187.92 60.3025 187.945 60.3025 187.994L46.7657 193.602C46.4714 193.602 46.2016 193.504 45.9564 193.307C45.7602 193.061 45.6621 192.79 45.6621 192.495C45.6621 191.954 46.4959 191.487 48.1635 191.093L49.1935 190.798C49.6839 190.552 50.7629 189.962 52.4305 189.027C56.158 186.961 58.782 185.879 60.3025 185.781C61.2834 185.781 61.921 186.027 62.2153 186.518C62.5095 186.961 62.7057 187.33 62.8038 187.625C62.951 187.871 63.049 188.265 63.0981 188.806C63.1471 189.298 63.1717 189.691 63.1717 189.986C63.2207 190.232 63.2207 190.65 63.1717 191.241C63.1717 191.831 63.1717 192.471 63.1717 193.159C63.1717 193.799 63.049 195.471 62.8038 198.177C62.5586 200.833 62.436 203.022 62.436 204.744C70.7738 193.774 75.8011 187.502 77.5177 185.928C78.2534 185.239 78.842 184.895 79.2834 184.895C79.7738 184.895 80.1172 185.067 80.3134 185.412C80.5095 185.756 80.8283 186.617 81.2698 187.994ZM47.7221 228.503C49.0463 228.503 50.3951 227.814 51.7684 226.437C53.1417 225.01 54.1471 223.584 54.7847 222.157L56.109 218.837C56.9428 216.574 57.4332 215.123 57.5804 214.483V214.115C57.4823 214.262 57.0163 214.828 56.1826 215.812C55.3488 216.746 54.6376 217.558 54.049 218.247C53.5095 218.886 52.7984 219.772 51.9155 220.903C51.0327 222.034 50.3215 223.018 49.782 223.854C48.4087 225.92 47.7221 227.47 47.7221 228.503Z" stroke="white" stroke-width="2" mask="url(#path-2-outside-1_204_213)"/>
<path d="M124.749 211.606C123.327 215.246 122.616 218.64 122.616 221.788C122.616 227.003 125.436 229.61 131.076 229.61C132.499 229.413 133.553 229.118 134.24 228.724C134.975 228.331 135.76 227.667 136.594 226.732C137.428 225.748 138.237 224.937 139.022 224.297H139.39C139.144 227.052 138.188 228.921 136.52 229.905C134.902 230.839 132.67 231.307 129.826 231.307C123.695 231.307 120.384 228.724 119.894 223.559C119.649 224.838 118.52 226.339 116.51 228.06C114.548 229.733 112.782 230.569 111.213 230.569C111.114 230.569 110.992 230.569 110.845 230.569C107.804 229.733 106.283 227.913 106.283 225.109C106.283 221.469 108.172 217.927 111.948 214.483C114.891 211.778 117.76 210.425 120.556 210.425C122.125 210.425 123.523 210.819 124.749 211.606ZM108.564 224.74C108.564 225.527 108.589 226.166 108.638 226.658C108.736 227.101 108.981 227.519 109.373 227.913C109.815 228.306 110.428 228.503 111.213 228.503C113.371 228.405 115.529 226.683 117.687 223.338C119.894 219.944 121.071 217.041 121.218 214.631C120.433 213.647 119.354 213.155 117.981 213.155C116.215 213.155 114.376 214.287 112.463 216.55C110.55 218.812 109.251 221.542 108.564 224.74Z" stroke="white" stroke-width="2" mask="url(#path-2-outside-1_204_213)"/>
<path d="M136.741 216.918C136.741 214.213 136.839 211.089 137.035 207.548C137.526 207.548 137.943 207.744 138.286 208.138C138.678 208.482 138.85 209.023 138.801 209.761C138.752 210.499 138.728 212.59 138.728 216.033C138.728 219.476 138.777 221.665 138.875 222.6C139.071 225.453 139.635 226.88 140.567 226.88C141.057 226.88 141.67 226.486 142.406 225.699C144.172 223.731 145.79 220.608 147.262 216.328C147.801 214.656 148.071 213.598 148.071 213.155C148.071 212.663 148.071 212.368 148.071 212.27H149.837C149.935 212.811 150.106 214.311 150.352 216.771C151.038 222.625 151.798 226.019 152.632 226.953C153.76 226.707 154.569 225.133 155.06 222.231C155.55 219.28 155.796 216.894 155.796 215.074L157.193 213.598C157.586 214.877 157.856 215.738 158.003 216.181C158.199 216.623 158.493 217.091 158.886 217.583C159.278 218.074 159.719 218.37 160.21 218.468C160.749 218.566 161.485 218.616 162.417 218.616C164.232 217.435 165.311 216.845 165.654 216.845C166.046 216.845 166.243 216.918 166.243 217.066C166.243 217.755 165.629 218.542 164.403 219.427C163.226 220.263 162.49 220.682 162.196 220.682C161.902 220.682 161.73 220.682 161.681 220.682C159.866 220.682 158.616 220.436 157.929 219.944C157.88 220.14 157.757 220.731 157.561 221.715C157.365 222.698 157.144 223.584 156.899 224.371C156.654 225.109 156.335 225.92 155.943 226.806C155.109 228.773 153.883 229.757 152.264 229.757C151.578 229.757 150.989 229.241 150.499 228.208C149.861 226.978 149.297 225.453 148.807 223.633C148.316 221.764 148.071 220.78 148.071 220.682C144.589 226.978 141.916 230.126 140.052 230.126C137.845 230.126 136.741 225.724 136.741 216.918Z" stroke="white" stroke-width="2" mask="url(#path-2-outside-1_204_213)"/>
<path d="M182.648 211.606C181.226 215.246 180.515 218.64 180.515 221.788C180.515 227.003 183.335 229.61 188.975 229.61C190.398 229.413 191.452 229.118 192.139 228.724C192.875 228.331 193.659 227.667 194.493 226.732C195.327 225.748 196.136 224.937 196.921 224.297H197.289C197.044 227.052 196.087 228.921 194.42 229.905C192.801 230.839 190.569 231.307 187.725 231.307C181.594 231.307 178.283 228.724 177.793 223.559C177.548 224.838 176.42 226.339 174.409 228.06C172.447 229.733 170.681 230.569 169.112 230.569C169.014 230.569 168.891 230.569 168.744 230.569C165.703 229.733 164.183 227.913 164.183 225.109C164.183 221.469 166.071 217.927 169.847 214.483C172.79 211.778 175.659 210.425 178.455 210.425C180.025 210.425 181.422 210.819 182.648 211.606ZM166.463 224.74C166.463 225.527 166.488 226.166 166.537 226.658C166.635 227.101 166.88 227.519 167.272 227.913C167.714 228.306 168.327 228.503 169.112 228.503C171.27 228.405 173.428 226.683 175.586 223.338C177.793 219.944 178.97 217.041 179.117 214.631C178.332 213.647 177.253 213.155 175.88 213.155C174.114 213.155 172.275 214.287 170.362 216.55C168.45 218.812 167.15 221.542 166.463 224.74Z" stroke="white" stroke-width="2" mask="url(#path-2-outside-1_204_213)"/>
<path d="M193.905 224.592C194.886 221.346 195.94 218.739 197.068 216.771C198.245 214.803 199.643 213.401 201.262 212.565C202.88 211.68 204.352 211.139 205.676 210.942C207 210.696 208.839 210.573 211.193 210.573C211.341 209.983 211.586 208.827 211.929 207.105C212.272 205.334 212.518 204.153 212.665 203.563C212.861 202.924 213.131 201.964 213.474 200.685C214.063 198.57 214.651 196.972 215.24 195.889C215.877 194.758 216.27 194.045 216.417 193.75C216.564 193.454 216.662 193.258 216.711 193.159C216.809 193.012 216.932 192.864 217.079 192.717C217.275 192.52 217.594 192.421 218.035 192.421C219.556 192.421 220.316 194.045 220.316 197.291V197.955C220.316 200.513 219.237 204.055 217.079 208.581C214.921 213.057 213.842 216.476 213.842 218.837C213.842 224.1 215.264 226.732 218.109 226.732C219.041 226.732 220.316 226.363 221.935 225.625C223.553 224.887 224.828 224.518 225.76 224.518L226.496 224.592C225.662 225.871 224.411 226.88 222.744 227.617C221.125 228.355 219.777 228.724 218.698 228.724C217.668 228.724 216.956 228.7 216.564 228.65C216.172 228.601 215.804 228.503 215.46 228.355C215.117 228.159 214.823 228.011 214.578 227.913C214.381 227.814 214.136 227.593 213.842 227.249C213.597 226.855 213.401 226.584 213.253 226.437C213.155 226.289 212.984 225.945 212.738 225.404C212.493 224.863 212.322 224.518 212.223 224.371C212.174 224.223 212.003 223.805 211.708 223.117C211.463 222.428 211.292 221.985 211.193 221.788C211.046 221.936 210.482 222.551 209.501 223.633C208.52 224.666 207.834 225.379 207.441 225.773C207.049 226.117 206.362 226.707 205.381 227.544C204.45 228.38 203.665 228.97 203.027 229.315C201.213 230.298 199.594 230.79 198.172 230.79C196.798 230.79 195.793 230.471 195.155 229.831C194.567 229.142 194.199 228.429 194.052 227.691C193.954 226.904 193.905 225.871 193.905 224.592ZM207.221 213.303C204.474 213.303 201.997 214.582 199.79 217.14C197.632 219.698 196.553 222.28 196.553 224.887C196.553 227.445 197.24 228.724 198.613 228.724C200.526 228.724 202.978 227.273 205.97 224.371C209.011 221.419 210.531 218.911 210.531 216.845C210.531 215.615 210.262 214.729 209.722 214.188C209.232 213.598 208.398 213.303 207.221 213.303ZM218.183 195.963C216.907 197.734 215.853 200.12 215.019 203.12C214.234 206.072 213.842 208.556 213.842 210.573C213.842 210.671 213.866 210.893 213.916 211.237L214.578 210.573C215.166 209.983 216.368 206.49 218.183 200.095L218.256 199.21C218.256 198.619 218.256 198.25 218.256 198.103C218.256 197.955 218.232 197.586 218.183 196.996C218.183 196.406 218.183 196.061 218.183 195.963Z" stroke="white" stroke-width="2" mask="url(#path-2-outside-1_204_213)"/>
<path d="M224.51 224.592C225.49 221.346 226.545 218.739 227.673 216.771C228.85 214.803 230.248 213.401 231.866 212.565C233.485 211.68 234.956 211.139 236.281 210.942C237.605 210.696 239.444 210.573 241.798 210.573C241.946 209.983 242.191 208.827 242.534 207.105C242.877 205.334 243.123 204.153 243.27 203.563C243.466 202.924 243.736 201.964 244.079 200.685C244.668 198.57 245.256 196.972 245.845 195.889C246.482 194.758 246.875 194.045 247.022 193.75C247.169 193.454 247.267 193.258 247.316 193.159C247.414 193.012 247.537 192.864 247.684 192.717C247.88 192.52 248.199 192.421 248.64 192.421C250.161 192.421 250.921 194.045 250.921 197.291V197.955C250.921 200.513 249.842 204.055 247.684 208.581C245.526 213.057 244.447 216.476 244.447 218.837C244.447 224.1 245.869 226.732 248.714 226.732C249.646 226.732 250.921 226.363 252.54 225.625C254.158 224.887 255.433 224.518 256.365 224.518L257.101 224.592C256.267 225.871 255.016 226.88 253.349 227.617C251.73 228.355 250.381 228.724 249.302 228.724C248.272 228.724 247.561 228.7 247.169 228.65C246.777 228.601 246.409 228.503 246.065 228.355C245.722 228.159 245.428 228.011 245.183 227.913C244.986 227.814 244.741 227.593 244.447 227.249C244.202 226.855 244.005 226.584 243.858 226.437C243.76 226.289 243.589 225.945 243.343 225.404C243.098 224.863 242.926 224.518 242.828 224.371C242.779 224.223 242.608 223.805 242.313 223.117C242.068 222.428 241.896 221.985 241.798 221.788C241.651 221.936 241.087 222.551 240.106 223.633C239.125 224.666 238.439 225.379 238.046 225.773C237.654 226.117 236.967 226.707 235.986 227.544C235.055 228.38 234.27 228.97 233.632 229.315C231.817 230.298 230.199 230.79 228.777 230.79C227.403 230.79 226.398 230.471 225.76 229.831C225.172 229.142 224.804 228.429 224.657 227.691C224.559 226.904 224.51 225.871 224.51 224.592ZM237.826 213.303C235.079 213.303 232.602 214.582 230.395 217.14C228.237 219.698 227.158 222.28 227.158 224.887C227.158 227.445 227.845 228.724 229.218 228.724C231.131 228.724 233.583 227.273 236.575 224.371C239.616 221.419 241.136 218.911 241.136 216.845C241.136 215.615 240.866 214.729 240.327 214.188C239.837 213.598 239.003 213.303 237.826 213.303ZM248.787 195.963C247.512 197.734 246.458 200.12 245.624 203.12C244.839 206.072 244.447 208.556 244.447 210.573C244.447 210.671 244.471 210.893 244.52 211.237L245.183 210.573C245.771 209.983 246.973 206.49 248.787 200.095L248.861 199.21C248.861 198.619 248.861 198.25 248.861 198.103C248.861 197.955 248.837 197.586 248.787 196.996C248.787 196.406 248.787 196.061 248.787 195.963Z" stroke="white" stroke-width="2" mask="url(#path-2-outside-1_204_213)"/>
<path d="M273.36 211.606C271.937 215.246 271.226 218.64 271.226 221.788C271.226 227.003 274.046 229.61 279.687 229.61C281.109 229.413 282.163 229.118 282.85 228.724C283.586 228.331 284.371 227.667 285.204 226.732C286.038 225.748 286.847 224.937 287.632 224.297H288C287.755 227.052 286.798 228.921 285.131 229.905C283.512 230.839 281.281 231.307 278.436 231.307C272.305 231.307 268.995 228.724 268.504 223.559C268.259 224.838 267.131 226.339 265.12 228.06C263.158 229.733 261.392 230.569 259.823 230.569C259.725 230.569 259.602 230.569 259.455 230.569C256.414 229.733 254.894 227.913 254.894 225.109C254.894 221.469 256.782 217.927 260.559 214.483C263.501 211.778 266.371 210.425 269.166 210.425C270.736 210.425 272.134 210.819 273.36 211.606ZM257.174 224.74C257.174 225.527 257.199 226.166 257.248 226.658C257.346 227.101 257.591 227.519 257.984 227.913C258.425 228.306 259.038 228.503 259.823 228.503C261.981 228.405 264.139 226.683 266.297 223.338C268.504 219.944 269.681 217.041 269.828 214.631C269.044 213.647 267.965 213.155 266.591 213.155C264.826 213.155 262.986 214.287 261.074 216.55C259.161 218.812 257.861 221.542 257.174 224.74Z" stroke="white" stroke-width="2" mask="url(#path-2-outside-1_204_213)"/>
</g>
<g filter="url(#filter1_d_204_213)">
<path d="M137.688 249.664C138.453 249.664 139.07 249.445 139.539 249.008C140.013 248.57 140.25 247.987 140.25 247.258V246.922C140.25 246.302 140.047 245.823 139.641 245.484C139.24 245.141 138.711 244.969 138.055 244.969H137.836C137.315 244.969 136.979 245.036 136.828 245.172C136.682 245.307 136.609 245.594 136.609 246.031C136.599 246.135 136.594 246.211 136.594 246.258L136.562 246.797C136.562 246.849 136.562 246.901 136.562 246.953L136.508 247.953L136.5 248.031C136.5 248.083 136.5 248.135 136.5 248.188L136.461 248.867V249.156C136.461 249.484 136.682 249.648 137.125 249.648L137.258 249.664H137.688ZM135.164 254.836C134.518 254.836 134.195 254.589 134.195 254.094C134.195 254.021 134.266 253.781 134.406 253.375C134.552 252.969 134.661 252.344 134.734 251.5C134.807 250.651 134.844 249.896 134.844 249.234L134.867 248.703C134.883 248.349 134.891 248.117 134.891 248.008L134.898 247.836V246.82C134.898 245.872 134.872 245.266 134.82 245C134.773 244.734 134.75 244.568 134.75 244.5C134.75 244.281 134.984 244.138 135.453 244.07C136.13 243.971 137.068 243.922 138.266 243.922C140.068 243.922 141.227 244.471 141.742 245.57C141.935 245.977 142.031 246.388 142.031 246.805V247C142.031 247.995 141.698 248.81 141.031 249.445C140.724 249.742 140.393 249.969 140.039 250.125C139.69 250.276 139.211 250.414 138.602 250.539C137.148 250.836 136.422 251.411 136.422 252.266C136.422 252.484 136.451 252.734 136.508 253.016C136.565 253.292 136.594 253.487 136.594 253.602C136.594 253.94 136.466 254.232 136.211 254.477C135.961 254.716 135.664 254.836 135.32 254.836H135.164ZM143.797 250.938V250.336C143.797 249.612 143.758 249.083 143.68 248.75C143.602 248.411 143.562 248.174 143.562 248.039C143.562 247.721 143.794 247.562 144.258 247.562C144.721 247.562 145.057 247.648 145.266 247.82C145.323 247.867 145.396 247.958 145.484 248.094C145.578 248.229 145.661 248.297 145.734 248.297C145.75 248.297 145.977 248.164 146.414 247.898C146.852 247.633 147.227 247.5 147.539 247.5H147.656C147.911 247.5 148.115 247.562 148.266 247.688C148.417 247.807 148.492 247.956 148.492 248.133V248.234C148.492 248.448 148.417 248.602 148.266 248.695C148.12 248.789 147.885 248.836 147.562 248.836C146.828 248.836 146.292 249.094 145.953 249.609C145.62 250.125 145.453 251.036 145.453 252.344C145.453 252.531 145.484 252.82 145.547 253.211C145.615 253.602 145.648 253.896 145.648 254.094C145.648 254.292 145.542 254.482 145.328 254.664C145.115 254.846 144.844 254.938 144.516 254.938H144.25C143.964 254.938 143.742 254.87 143.586 254.734C143.435 254.594 143.359 254.424 143.359 254.227C143.359 254.023 143.396 253.818 143.469 253.609C143.667 253.047 143.766 252.427 143.766 251.75C143.786 251.375 143.797 251.104 143.797 250.938ZM151.086 250.25V250.375C151.086 250.531 151.229 250.609 151.516 250.609H151.703L151.75 250.602L152.133 250.57C152.534 250.513 152.794 250.484 152.914 250.484C153.482 250.484 153.909 250.378 154.195 250.164C154.331 250.06 154.398 249.875 154.398 249.609V249.523C154.398 249.133 154.268 248.823 154.008 248.594C153.753 248.365 153.445 248.25 153.086 248.25H153.031L152.984 248.258C152.479 248.258 152.036 248.471 151.656 248.898C151.276 249.326 151.086 249.776 151.086 250.25ZM152.789 255.102H152.617C151.622 255.102 150.831 254.786 150.242 254.156C149.654 253.521 149.359 252.674 149.359 251.617V251.273C149.359 250.768 149.458 250.255 149.656 249.734C150.057 248.693 150.711 247.974 151.617 247.578C152.096 247.365 152.583 247.258 153.078 247.258H153.414C154.096 247.258 154.672 247.487 155.141 247.945C155.615 248.398 155.852 248.984 155.852 249.703V249.859C155.852 250.37 155.648 250.732 155.242 250.945C154.961 251.096 154.305 251.247 153.273 251.398C152.242 251.549 151.68 251.641 151.586 251.672C151.273 251.781 151.117 251.99 151.117 252.297C151.117 252.724 151.299 253.089 151.664 253.391C152.029 253.693 152.518 253.844 153.133 253.844C153.419 253.844 153.81 253.766 154.305 253.609C154.799 253.453 155.086 253.375 155.164 253.375C155.43 253.375 155.562 253.49 155.562 253.719C155.562 254.026 155.263 254.333 154.664 254.641C154.065 254.948 153.44 255.102 152.789 255.102ZM162.195 250.242V250.523C162.195 250.888 162.102 251.091 161.914 251.133C161.732 251.174 161.005 251.195 159.734 251.195H159.562L159.383 251.203H159.039L158.984 251.211H158.523L158.289 251.219H157.945C157.659 251.219 157.516 251.083 157.516 250.812V250.758L157.523 250.703C157.523 250.302 157.633 250.076 157.852 250.023C157.987 249.992 158.677 249.977 159.922 249.977L161.258 249.953H161.828C162.073 249.953 162.195 250.049 162.195 250.242ZM164.953 246.219L164.82 244.82C164.82 244.711 164.891 244.602 165.031 244.492C165.172 244.378 165.38 244.32 165.656 244.32C166.286 244.32 166.794 244.609 167.18 245.188C167.57 245.766 168.174 247.078 168.992 249.125C169.346 249.99 169.555 250.479 169.617 250.594L169.789 250.82C169.904 250.82 170.414 249.971 171.32 248.273C172.227 246.57 172.792 245.562 173.016 245.25C173.464 244.625 174.034 244.312 174.727 244.312C175.216 244.312 175.461 244.492 175.461 244.852L175.414 245.109L175.344 245.422C175.286 245.74 175.247 246.448 175.227 247.547C175.206 248.641 175.174 249.74 175.133 250.844L175.094 252.078C175.094 252.604 175.122 252.974 175.18 253.188L175.289 253.492C175.393 253.773 175.445 253.984 175.445 254.125C175.445 254.26 175.37 254.388 175.219 254.508C175.068 254.628 174.898 254.688 174.711 254.688H174.414C174.148 254.688 173.909 254.581 173.695 254.367C173.482 254.154 173.375 253.93 173.375 253.695C173.375 253.456 173.398 253.099 173.445 252.625C173.497 252.151 173.523 251.138 173.523 249.586C173.523 248.029 173.477 247.25 173.383 247.25C173.242 247.25 172.755 248.135 171.922 249.906C171.094 251.677 170.565 252.734 170.336 253.078C170.107 253.422 169.852 253.594 169.57 253.594C169.294 253.594 169.055 253.398 168.852 253.008C168.773 252.857 168.404 251.867 167.742 250.039C167.086 248.206 166.68 247.289 166.523 247.289C166.456 247.289 166.391 247.38 166.328 247.562C166.271 247.74 166.164 248.562 166.008 250.031C165.857 251.5 165.781 252.49 165.781 253C165.781 253.505 165.698 253.885 165.531 254.141C165.365 254.391 165.076 254.516 164.664 254.516C164.253 254.516 164.047 254.318 164.047 253.922C164.047 253.87 164.122 253.646 164.273 253.25C164.424 252.854 164.526 252.414 164.578 251.93C164.828 249.633 164.953 247.729 164.953 246.219ZM180.047 254.016H180.25C180.677 254.016 181.052 253.872 181.375 253.586C181.703 253.294 181.867 252.958 181.867 252.578L181.883 252.477V252.375L181.898 252.133V251.688C181.898 251.385 181.745 251.234 181.438 251.234H181.086L181.031 251.242L180.727 251.266C180.581 251.286 180.477 251.297 180.414 251.297C179.992 251.297 179.602 251.456 179.242 251.773C178.992 251.997 178.867 252.315 178.867 252.727V252.883C178.867 253.232 178.979 253.508 179.203 253.711C179.432 253.914 179.714 254.016 180.047 254.016ZM178.305 249.023C177.956 249.023 177.781 248.799 177.781 248.352C177.781 248.018 178.062 247.729 178.625 247.484C179.193 247.234 179.781 247.109 180.391 247.109H180.781C181.307 247.109 181.771 247.208 182.172 247.406C182.573 247.599 182.878 247.862 183.086 248.195C183.299 248.529 183.43 248.964 183.477 249.5C183.487 249.625 183.492 250.232 183.492 251.32C183.492 252.409 183.505 253.036 183.531 253.203C183.562 253.365 183.646 253.562 183.781 253.797C183.922 254.031 183.992 254.224 183.992 254.375C183.992 254.526 183.919 254.656 183.773 254.766C183.633 254.87 183.427 254.922 183.156 254.922C182.885 254.922 182.591 254.857 182.273 254.727C181.956 254.591 181.724 254.523 181.578 254.523C181.562 254.523 181.302 254.617 180.797 254.805C180.292 254.987 179.865 255.078 179.516 255.078H179.344C178.76 255.078 178.263 254.893 177.852 254.523C177.445 254.154 177.242 253.628 177.242 252.945C177.242 252.263 177.466 251.732 177.914 251.352C178.362 250.966 178.906 250.703 179.547 250.562C179.74 250.521 180.06 250.466 180.508 250.398C180.956 250.331 181.26 250.26 181.422 250.188C181.703 250.057 181.844 249.812 181.844 249.453C181.844 249.089 181.724 248.805 181.484 248.602C181.245 248.393 180.958 248.289 180.625 248.289C180.297 248.289 179.865 248.411 179.328 248.656C178.792 248.901 178.451 249.023 178.305 249.023ZM186.312 250.938V250.336C186.312 249.612 186.273 249.083 186.195 248.75C186.117 248.411 186.078 248.174 186.078 248.039C186.078 247.721 186.31 247.562 186.773 247.562C187.237 247.562 187.573 247.648 187.781 247.82C187.839 247.867 187.911 247.958 188 248.094C188.094 248.229 188.177 248.297 188.25 248.297C188.266 248.297 188.492 248.164 188.93 247.898C189.367 247.633 189.742 247.5 190.055 247.5H190.172C190.427 247.5 190.63 247.562 190.781 247.688C190.932 247.807 191.008 247.956 191.008 248.133V248.234C191.008 248.448 190.932 248.602 190.781 248.695C190.635 248.789 190.401 248.836 190.078 248.836C189.344 248.836 188.807 249.094 188.469 249.609C188.135 250.125 187.969 251.036 187.969 252.344C187.969 252.531 188 252.82 188.062 253.211C188.13 253.602 188.164 253.896 188.164 254.094C188.164 254.292 188.057 254.482 187.844 254.664C187.63 254.846 187.359 254.938 187.031 254.938H186.766C186.479 254.938 186.258 254.87 186.102 254.734C185.951 254.594 185.875 254.424 185.875 254.227C185.875 254.023 185.911 253.818 185.984 253.609C186.182 253.047 186.281 252.427 186.281 251.75C186.302 251.375 186.312 251.104 186.312 250.938ZM192.766 250.938V250.336C192.766 249.612 192.727 249.083 192.648 248.75C192.57 248.411 192.531 248.174 192.531 248.039C192.531 247.721 192.763 247.562 193.227 247.562C193.69 247.562 194.026 247.648 194.234 247.82C194.292 247.867 194.365 247.958 194.453 248.094C194.547 248.229 194.63 248.297 194.703 248.297C194.719 248.297 194.945 248.164 195.383 247.898C195.82 247.633 196.195 247.5 196.508 247.5H196.625C196.88 247.5 197.083 247.562 197.234 247.688C197.385 247.807 197.461 247.956 197.461 248.133V248.234C197.461 248.448 197.385 248.602 197.234 248.695C197.089 248.789 196.854 248.836 196.531 248.836C195.797 248.836 195.26 249.094 194.922 249.609C194.589 250.125 194.422 251.036 194.422 252.344C194.422 252.531 194.453 252.82 194.516 253.211C194.583 253.602 194.617 253.896 194.617 254.094C194.617 254.292 194.51 254.482 194.297 254.664C194.083 254.846 193.812 254.938 193.484 254.938H193.219C192.932 254.938 192.711 254.87 192.555 254.734C192.404 254.594 192.328 254.424 192.328 254.227C192.328 254.023 192.365 253.818 192.438 253.609C192.635 253.047 192.734 252.427 192.734 251.75C192.755 251.375 192.766 251.104 192.766 250.938ZM201.266 244.844V244.938C201.266 245.203 201.188 245.43 201.031 245.617C200.88 245.799 200.646 245.891 200.328 245.891H200.203L199.961 245.859C199.82 245.859 199.685 245.794 199.555 245.664C199.424 245.534 199.359 245.339 199.359 245.078V244.984L199.398 244.703C199.398 244.594 199.464 244.458 199.594 244.297C199.729 244.135 199.901 244.055 200.109 244.055L200.289 244.031H200.445L200.664 244.062C200.799 244.062 200.932 244.13 201.062 244.266C201.198 244.396 201.266 244.589 201.266 244.844ZM200.898 248.141L200.812 250.242L200.797 250.453L200.773 251.094V251.398C200.773 252.148 200.794 252.641 200.836 252.875C200.883 253.109 200.969 253.339 201.094 253.562C201.219 253.781 201.281 253.94 201.281 254.039V254.109C201.281 254.365 201.151 254.568 200.891 254.719C200.63 254.87 200.276 254.945 199.828 254.945H199.633C199.372 254.945 199.174 254.888 199.039 254.773C198.904 254.654 198.836 254.526 198.836 254.391V254.219C198.836 254.151 198.896 253.911 199.016 253.5C199.135 253.083 199.195 252.518 199.195 251.805C199.211 251.602 199.219 251.461 199.219 251.383L199.242 250.953L199.258 250.742C199.284 250.378 199.297 250.094 199.297 249.891L199.305 249.578C199.305 249.188 199.24 248.841 199.109 248.539C198.984 248.237 198.922 248.049 198.922 247.977C198.922 247.602 199.276 247.414 199.984 247.414H200.266C200.531 247.414 200.703 247.484 200.781 247.625C200.859 247.76 200.898 247.932 200.898 248.141ZM205.703 254.016H205.906C206.333 254.016 206.708 253.872 207.031 253.586C207.359 253.294 207.523 252.958 207.523 252.578L207.539 252.477V252.375L207.555 252.133V251.688C207.555 251.385 207.401 251.234 207.094 251.234H206.742L206.688 251.242L206.383 251.266C206.237 251.286 206.133 251.297 206.07 251.297C205.648 251.297 205.258 251.456 204.898 251.773C204.648 251.997 204.523 252.315 204.523 252.727V252.883C204.523 253.232 204.635 253.508 204.859 253.711C205.089 253.914 205.37 254.016 205.703 254.016ZM203.961 249.023C203.612 249.023 203.438 248.799 203.438 248.352C203.438 248.018 203.719 247.729 204.281 247.484C204.849 247.234 205.438 247.109 206.047 247.109H206.438C206.964 247.109 207.427 247.208 207.828 247.406C208.229 247.599 208.534 247.862 208.742 248.195C208.956 248.529 209.086 248.964 209.133 249.5C209.143 249.625 209.148 250.232 209.148 251.32C209.148 252.409 209.161 253.036 209.188 253.203C209.219 253.365 209.302 253.562 209.438 253.797C209.578 254.031 209.648 254.224 209.648 254.375C209.648 254.526 209.576 254.656 209.43 254.766C209.289 254.87 209.083 254.922 208.812 254.922C208.542 254.922 208.247 254.857 207.93 254.727C207.612 254.591 207.38 254.523 207.234 254.523C207.219 254.523 206.958 254.617 206.453 254.805C205.948 254.987 205.521 255.078 205.172 255.078H205C204.417 255.078 203.919 254.893 203.508 254.523C203.102 254.154 202.898 253.628 202.898 252.945C202.898 252.263 203.122 251.732 203.57 251.352C204.018 250.966 204.562 250.703 205.203 250.562C205.396 250.521 205.716 250.466 206.164 250.398C206.612 250.331 206.917 250.26 207.078 250.188C207.359 250.057 207.5 249.812 207.5 249.453C207.5 249.089 207.38 248.805 207.141 248.602C206.901 248.393 206.615 248.289 206.281 248.289C205.953 248.289 205.521 248.411 204.984 248.656C204.448 248.901 204.107 249.023 203.961 249.023ZM212.852 251.383V251.625C212.852 252.323 212.984 252.87 213.25 253.266C213.516 253.661 213.849 253.859 214.25 253.859H214.523C215.102 253.859 215.552 253.617 215.875 253.133C216.198 252.643 216.359 251.958 216.359 251.078C216.37 250.974 216.375 250.893 216.375 250.836L216.391 250.516V250.047C216.38 249.943 216.375 249.865 216.375 249.812C216.375 249.401 216.276 249.078 216.078 248.844C215.88 248.609 215.589 248.492 215.203 248.492H214.984C214.37 248.492 213.859 248.75 213.453 249.266C213.052 249.781 212.852 250.487 212.852 251.383ZM217.391 247.852C217.844 247.852 218.07 248.18 218.07 248.836C218.07 249.008 218 249.727 217.859 250.992C217.719 252.258 217.648 253.333 217.648 254.219C217.648 255.115 217.589 255.786 217.469 256.234C217.214 257.198 216.622 257.88 215.695 258.281C215.211 258.49 214.674 258.594 214.086 258.594C213.503 258.594 212.982 258.49 212.523 258.281C212.07 258.073 211.844 257.823 211.844 257.531C211.844 257.198 212.068 257.031 212.516 257.031C212.604 257.031 212.844 257.065 213.234 257.133C213.625 257.201 213.906 257.234 214.078 257.234C214.708 257.234 215.224 257.036 215.625 256.641C216.031 256.25 216.234 255.747 216.234 255.133C216.234 254.81 216.115 254.648 215.875 254.648C215.833 254.648 215.734 254.664 215.578 254.695C215.135 254.784 214.732 254.828 214.367 254.828C213.44 254.828 212.742 254.547 212.273 253.984C212.055 253.724 211.867 253.378 211.711 252.945C211.56 252.508 211.484 252.047 211.484 251.562V251.344C211.484 250.833 211.568 250.331 211.734 249.836C211.906 249.336 212.133 248.917 212.414 248.578C212.695 248.234 213.062 247.966 213.516 247.773C213.969 247.581 214.432 247.484 214.906 247.484H215.109C215.375 247.484 215.716 247.557 216.133 247.703C216.555 247.844 216.812 247.914 216.906 247.914C217.115 247.872 217.276 247.852 217.391 247.852ZM221.539 250.25V250.375C221.539 250.531 221.682 250.609 221.969 250.609H222.156L222.203 250.602L222.586 250.57C222.987 250.513 223.247 250.484 223.367 250.484C223.935 250.484 224.362 250.378 224.648 250.164C224.784 250.06 224.852 249.875 224.852 249.609V249.523C224.852 249.133 224.721 248.823 224.461 248.594C224.206 248.365 223.898 248.25 223.539 248.25H223.484L223.438 248.258C222.932 248.258 222.49 248.471 222.109 248.898C221.729 249.326 221.539 249.776 221.539 250.25ZM223.242 255.102H223.07C222.076 255.102 221.284 254.786 220.695 254.156C220.107 253.521 219.812 252.674 219.812 251.617V251.273C219.812 250.768 219.911 250.255 220.109 249.734C220.51 248.693 221.164 247.974 222.07 247.578C222.549 247.365 223.036 247.258 223.531 247.258H223.867C224.549 247.258 225.125 247.487 225.594 247.945C226.068 248.398 226.305 248.984 226.305 249.703V249.859C226.305 250.37 226.102 250.732 225.695 250.945C225.414 251.096 224.758 251.247 223.727 251.398C222.695 251.549 222.133 251.641 222.039 251.672C221.727 251.781 221.57 251.99 221.57 252.297C221.57 252.724 221.753 253.089 222.117 253.391C222.482 253.693 222.971 253.844 223.586 253.844C223.872 253.844 224.263 253.766 224.758 253.609C225.253 253.453 225.539 253.375 225.617 253.375C225.883 253.375 226.016 253.49 226.016 253.719C226.016 254.026 225.716 254.333 225.117 254.641C224.518 254.948 223.893 255.102 223.242 255.102ZM232.367 249.805C232.372 248.966 232.5 248.185 232.75 247.461C233.26 246.003 234.156 244.987 235.438 244.414C236.12 244.107 236.924 243.953 237.852 243.953C238.784 243.953 239.503 244.068 240.008 244.297C240.232 244.396 240.422 244.557 240.578 244.781C240.74 245 240.82 245.219 240.82 245.438C240.82 245.651 240.763 245.826 240.648 245.961C240.534 246.091 240.443 246.156 240.375 246.156C240.307 246.156 239.961 246.016 239.336 245.734C238.716 245.458 238.164 245.32 237.68 245.32H237.656C236.667 245.32 235.865 245.661 235.25 246.344C234.896 246.734 234.63 247.224 234.453 247.812C234.276 248.406 234.185 249.016 234.18 249.641C234.18 251.589 234.797 252.826 236.031 253.352C236.427 253.523 236.872 253.609 237.367 253.609C237.862 253.609 238.284 253.464 238.633 253.172C238.987 252.875 239.164 252.43 239.164 251.836C239.164 251.43 238.964 251.013 238.562 250.586C238.438 250.451 238.375 250.349 238.375 250.281C238.375 250.073 238.643 249.969 239.18 249.969C239.721 249.969 240.151 250.023 240.469 250.133C240.786 250.242 240.945 250.401 240.945 250.609C240.945 251.073 240.878 251.724 240.742 252.562C240.612 253.401 240.495 253.906 240.391 254.078C240.219 254.365 239.901 254.586 239.438 254.742C238.625 255.018 237.948 255.156 237.406 255.156H237.125C236.453 255.156 235.828 255.036 235.25 254.797C234.052 254.292 233.221 253.414 232.758 252.164C232.497 251.461 232.367 250.779 232.367 250.117V249.805ZM243.086 247.977C243.086 247.648 243.362 247.484 243.914 247.484H244.094C244.438 247.484 244.669 247.622 244.789 247.898C244.909 248.174 244.969 248.69 244.969 249.445L244.875 252.055C244.875 253.268 245.31 253.875 246.18 253.875C246.497 253.875 246.802 253.763 247.094 253.539C247.385 253.315 247.602 253.047 247.742 252.734C248.049 252.047 248.203 250.815 248.203 249.039L248.188 248.695V248.391C248.188 248.115 248.25 247.914 248.375 247.789C248.5 247.664 248.719 247.602 249.031 247.602C249.344 247.602 249.549 247.677 249.648 247.828C249.747 247.979 249.797 248.224 249.797 248.562L249.781 248.977L249.75 250.82C249.75 251.117 249.768 251.573 249.805 252.188C249.841 252.802 249.88 253.253 249.922 253.539C249.964 253.82 249.984 253.987 249.984 254.039C249.984 254.503 249.643 254.734 248.961 254.734C248.727 254.734 248.492 254.648 248.258 254.477C248.029 254.299 247.865 254.211 247.766 254.211C247.672 254.211 247.51 254.268 247.281 254.383C246.63 254.711 246.076 254.875 245.617 254.875H245.422C244.677 254.875 244.13 254.646 243.781 254.188C243.432 253.729 243.258 252.904 243.258 251.711L243.336 249.344C243.336 249.047 243.294 248.763 243.211 248.492C243.128 248.221 243.086 248.049 243.086 247.977ZM254.469 244.844V244.938C254.469 245.203 254.391 245.43 254.234 245.617C254.083 245.799 253.849 245.891 253.531 245.891H253.406L253.164 245.859C253.023 245.859 252.888 245.794 252.758 245.664C252.628 245.534 252.562 245.339 252.562 245.078V244.984L252.602 244.703C252.602 244.594 252.667 244.458 252.797 244.297C252.932 244.135 253.104 244.055 253.312 244.055L253.492 244.031H253.648L253.867 244.062C254.003 244.062 254.135 244.13 254.266 244.266C254.401 244.396 254.469 244.589 254.469 244.844ZM254.102 248.141L254.016 250.242L254 250.453L253.977 251.094V251.398C253.977 252.148 253.997 252.641 254.039 252.875C254.086 253.109 254.172 253.339 254.297 253.562C254.422 253.781 254.484 253.94 254.484 254.039V254.109C254.484 254.365 254.354 254.568 254.094 254.719C253.833 254.87 253.479 254.945 253.031 254.945H252.836C252.576 254.945 252.378 254.888 252.242 254.773C252.107 254.654 252.039 254.526 252.039 254.391V254.219C252.039 254.151 252.099 253.911 252.219 253.5C252.339 253.083 252.398 252.518 252.398 251.805C252.414 251.602 252.422 251.461 252.422 251.383L252.445 250.953L252.461 250.742C252.487 250.378 252.5 250.094 252.5 249.891L252.508 249.578C252.508 249.188 252.443 248.841 252.312 248.539C252.188 248.237 252.125 248.049 252.125 247.977C252.125 247.602 252.479 247.414 253.188 247.414H253.469C253.734 247.414 253.906 247.484 253.984 247.625C254.062 247.76 254.102 247.932 254.102 248.141ZM257.758 251.211V251.805C257.758 252.424 257.898 252.943 258.18 253.359C258.466 253.771 258.802 253.977 259.188 253.977H259.406C260 253.977 260.458 253.74 260.781 253.266C261.109 252.792 261.273 252.086 261.273 251.148C261.284 251.034 261.289 250.951 261.289 250.898L261.305 250.742L261.312 250.414V249.859C261.312 248.797 260.888 248.266 260.039 248.266H259.734C259.182 248.266 258.714 248.544 258.328 249.102C257.948 249.659 257.758 250.362 257.758 251.211ZM256.258 251.57C256.258 251.029 256.354 250.477 256.547 249.914C256.74 249.352 257.01 248.872 257.359 248.477C257.708 248.076 258.102 247.786 258.539 247.609C258.977 247.427 259.495 247.336 260.094 247.336C260.698 247.336 261.073 247.227 261.219 247.008C261.365 246.784 261.438 246.292 261.438 245.531C261.438 245.391 261.414 245.203 261.367 244.969C261.32 244.734 261.297 244.599 261.297 244.562C261.297 244.339 261.393 244.135 261.586 243.953C261.779 243.766 262.031 243.672 262.344 243.672H262.5C262.745 243.672 262.927 243.729 263.047 243.844C263.167 243.958 263.227 244.198 263.227 244.562V245.289L263.211 245.656C263.206 245.781 263.203 245.964 263.203 246.203C263.203 246.438 263.164 247.193 263.086 248.469C263.008 249.745 262.969 250.622 262.969 251.102L262.961 251.289C262.956 251.414 262.953 251.534 262.953 251.648L262.945 251.828C262.945 251.828 262.945 252.031 262.945 252.438C262.945 252.964 262.987 253.359 263.07 253.625C263.154 253.891 263.195 254.081 263.195 254.195C263.195 254.31 263.13 254.43 263 254.555C262.87 254.68 262.667 254.742 262.391 254.742C262.12 254.742 261.857 254.698 261.602 254.609C261.346 254.516 261.159 254.469 261.039 254.469C260.919 254.469 260.763 254.505 260.57 254.578C259.987 254.792 259.453 254.898 258.969 254.898C258.958 254.898 258.948 254.898 258.938 254.898H258.758C257.971 254.898 257.357 254.612 256.914 254.039C256.477 253.461 256.258 252.703 256.258 251.766V251.57ZM266.648 250.25V250.375C266.648 250.531 266.792 250.609 267.078 250.609H267.266L267.312 250.602L267.695 250.57C268.096 250.513 268.357 250.484 268.477 250.484C269.044 250.484 269.471 250.378 269.758 250.164C269.893 250.06 269.961 249.875 269.961 249.609V249.523C269.961 249.133 269.831 248.823 269.57 248.594C269.315 248.365 269.008 248.25 268.648 248.25H268.594L268.547 248.258C268.042 248.258 267.599 248.471 267.219 248.898C266.839 249.326 266.648 249.776 266.648 250.25ZM268.352 255.102H268.18C267.185 255.102 266.393 254.786 265.805 254.156C265.216 253.521 264.922 252.674 264.922 251.617V251.273C264.922 250.768 265.021 250.255 265.219 249.734C265.62 248.693 266.273 247.974 267.18 247.578C267.659 247.365 268.146 247.258 268.641 247.258H268.977C269.659 247.258 270.234 247.487 270.703 247.945C271.177 248.398 271.414 248.984 271.414 249.703V249.859C271.414 250.37 271.211 250.732 270.805 250.945C270.523 251.096 269.867 251.247 268.836 251.398C267.805 251.549 267.242 251.641 267.148 251.672C266.836 251.781 266.68 251.99 266.68 252.297C266.68 252.724 266.862 253.089 267.227 253.391C267.591 253.693 268.081 253.844 268.695 253.844C268.982 253.844 269.372 253.766 269.867 253.609C270.362 253.453 270.648 253.375 270.727 253.375C270.992 253.375 271.125 253.49 271.125 253.719C271.125 254.026 270.826 254.333 270.227 254.641C269.628 254.948 269.003 255.102 268.352 255.102ZM273.664 250.641C273.346 250.318 273.188 249.865 273.188 249.281C273.188 248.698 273.448 248.198 273.969 247.781C274.49 247.359 275.135 247.148 275.906 247.148H276.109C276.792 247.148 277.333 247.245 277.734 247.438C278.141 247.63 278.344 247.919 278.344 248.305C278.344 248.685 278.174 248.875 277.836 248.875C277.747 248.875 277.497 248.771 277.086 248.562C276.674 248.349 276.286 248.242 275.922 248.242C275.557 248.242 275.263 248.326 275.039 248.492C274.82 248.654 274.711 248.878 274.711 249.164C274.711 249.451 274.865 249.701 275.172 249.914C275.349 250.039 275.766 250.237 276.422 250.508C277.083 250.779 277.555 251.039 277.836 251.289C278.289 251.69 278.516 252.203 278.516 252.828C278.516 253.453 278.25 253.99 277.719 254.438C277.188 254.88 276.497 255.102 275.648 255.102H275.445C274.591 255.102 273.951 254.979 273.523 254.734C273.096 254.484 272.883 254.161 272.883 253.766C272.883 253.365 273.049 253.164 273.383 253.164C273.492 253.164 273.776 253.305 274.234 253.586C274.698 253.867 275.151 254.008 275.594 254.008C276.042 254.008 276.378 253.914 276.602 253.727C276.826 253.534 276.938 253.294 276.938 253.008C276.938 252.716 276.797 252.461 276.516 252.242C276.365 252.122 275.932 251.906 275.219 251.594C274.505 251.276 273.987 250.958 273.664 250.641ZM135.172 274.57H134.992C134.732 274.57 134.51 274.495 134.328 274.344C134.151 274.193 134.062 274.013 134.062 273.805C134.062 273.596 134.125 273.331 134.25 273.008C134.38 272.68 134.474 272.281 134.531 271.812C134.594 271.339 134.625 270.646 134.625 269.734C134.625 268.823 134.581 268.242 134.492 267.992C134.477 267.951 134.404 267.812 134.273 267.578C134.143 267.339 134.078 267.135 134.078 266.969C134.078 266.802 134.164 266.589 134.336 266.328C134.513 266.068 134.63 265.875 134.688 265.75C135.391 264.266 135.758 263.505 135.789 263.469C136.331 262.839 137.062 262.523 137.984 262.523C138.411 262.523 138.74 262.596 138.969 262.742C139.198 262.888 139.312 263.078 139.312 263.312C139.312 263.542 139.177 263.708 138.906 263.812C138.833 263.839 138.737 263.852 138.617 263.852C138.529 263.846 138.427 263.839 138.312 263.828C138.042 263.797 137.844 263.781 137.719 263.781C137.38 263.781 137.104 263.927 136.891 264.219C136.682 264.505 136.578 264.836 136.578 265.211C136.578 265.586 136.654 265.859 136.805 266.031C136.852 266.083 137.073 266.214 137.469 266.422C137.87 266.625 138.07 266.831 138.07 267.039C138.07 267.154 137.846 267.331 137.398 267.57C137.081 267.737 136.846 268.034 136.695 268.461C136.367 269.378 136.203 270.583 136.203 272.078L136.352 273.398C136.352 273.758 136.245 274.042 136.031 274.25C135.823 274.464 135.536 274.57 135.172 274.57ZM141.039 270.703C141.039 271.385 141.195 271.953 141.508 272.406C141.82 272.859 142.203 273.086 142.656 273.086H142.891C143.427 273.086 143.88 272.815 144.25 272.273C144.625 271.732 144.812 271.01 144.812 270.109V269.594C144.812 268.896 144.659 268.326 144.352 267.883C144.049 267.435 143.659 267.211 143.18 267.211H143.023C142.466 267.211 141.997 267.487 141.617 268.039C141.242 268.591 141.055 269.25 141.055 270.016L141.039 270.195V270.703ZM142.805 274.148H142.555C141.643 274.148 140.901 273.831 140.328 273.195C139.755 272.56 139.469 271.659 139.469 270.492L139.477 270.359C139.477 269.078 139.815 268.068 140.492 267.328C140.846 266.938 141.25 266.651 141.703 266.469C142.161 266.281 142.596 266.188 143.008 266.188H143.391C143.849 266.188 144.289 266.289 144.711 266.492C145.919 267.076 146.523 268.174 146.523 269.789V269.914C146.518 270.44 146.432 270.974 146.266 271.516C145.932 272.583 145.292 273.339 144.344 273.781C143.818 274.026 143.305 274.148 142.805 274.148ZM148.641 269.938V269.336C148.641 268.612 148.602 268.083 148.523 267.75C148.445 267.411 148.406 267.174 148.406 267.039C148.406 266.721 148.638 266.562 149.102 266.562C149.565 266.562 149.901 266.648 150.109 266.82C150.167 266.867 150.24 266.958 150.328 267.094C150.422 267.229 150.505 267.297 150.578 267.297C150.594 267.297 150.82 267.164 151.258 266.898C151.695 266.633 152.07 266.5 152.383 266.5H152.5C152.755 266.5 152.958 266.562 153.109 266.688C153.26 266.807 153.336 266.956 153.336 267.133V267.234C153.336 267.448 153.26 267.602 153.109 267.695C152.964 267.789 152.729 267.836 152.406 267.836C151.672 267.836 151.135 268.094 150.797 268.609C150.464 269.125 150.297 270.036 150.297 271.344C150.297 271.531 150.328 271.82 150.391 272.211C150.458 272.602 150.492 272.896 150.492 273.094C150.492 273.292 150.385 273.482 150.172 273.664C149.958 273.846 149.688 273.938 149.359 273.938H149.094C148.807 273.938 148.586 273.87 148.43 273.734C148.279 273.594 148.203 273.424 148.203 273.227C148.203 273.023 148.24 272.818 148.312 272.609C148.51 272.047 148.609 271.427 148.609 270.75C148.63 270.375 148.641 270.104 148.641 269.938ZM160.016 265.219L159.883 263.82C159.883 263.711 159.953 263.602 160.094 263.492C160.234 263.378 160.443 263.32 160.719 263.32C161.349 263.32 161.857 263.609 162.242 264.188C162.633 264.766 163.237 266.078 164.055 268.125C164.409 268.99 164.617 269.479 164.68 269.594L164.852 269.82C164.966 269.82 165.477 268.971 166.383 267.273C167.289 265.57 167.854 264.562 168.078 264.25C168.526 263.625 169.096 263.312 169.789 263.312C170.279 263.312 170.523 263.492 170.523 263.852L170.477 264.109L170.406 264.422C170.349 264.74 170.31 265.448 170.289 266.547C170.268 267.641 170.237 268.74 170.195 269.844L170.156 271.078C170.156 271.604 170.185 271.974 170.242 272.188L170.352 272.492C170.456 272.773 170.508 272.984 170.508 273.125C170.508 273.26 170.432 273.388 170.281 273.508C170.13 273.628 169.961 273.688 169.773 273.688H169.477C169.211 273.688 168.971 273.581 168.758 273.367C168.544 273.154 168.438 272.93 168.438 272.695C168.438 272.456 168.461 272.099 168.508 271.625C168.56 271.151 168.586 270.138 168.586 268.586C168.586 267.029 168.539 266.25 168.445 266.25C168.305 266.25 167.818 267.135 166.984 268.906C166.156 270.677 165.628 271.734 165.398 272.078C165.169 272.422 164.914 272.594 164.633 272.594C164.357 272.594 164.117 272.398 163.914 272.008C163.836 271.857 163.466 270.867 162.805 269.039C162.148 267.206 161.742 266.289 161.586 266.289C161.518 266.289 161.453 266.38 161.391 266.562C161.333 266.74 161.227 267.562 161.07 269.031C160.919 270.5 160.844 271.49 160.844 272C160.844 272.505 160.76 272.885 160.594 273.141C160.427 273.391 160.138 273.516 159.727 273.516C159.315 273.516 159.109 273.318 159.109 272.922C159.109 272.87 159.185 272.646 159.336 272.25C159.487 271.854 159.589 271.414 159.641 270.93C159.891 268.633 160.016 266.729 160.016 265.219ZM172.633 266.977C172.633 266.648 172.909 266.484 173.461 266.484H173.641C173.984 266.484 174.216 266.622 174.336 266.898C174.456 267.174 174.516 267.69 174.516 268.445L174.422 271.055C174.422 272.268 174.857 272.875 175.727 272.875C176.044 272.875 176.349 272.763 176.641 272.539C176.932 272.315 177.148 272.047 177.289 271.734C177.596 271.047 177.75 269.815 177.75 268.039L177.734 267.695V267.391C177.734 267.115 177.797 266.914 177.922 266.789C178.047 266.664 178.266 266.602 178.578 266.602C178.891 266.602 179.096 266.677 179.195 266.828C179.294 266.979 179.344 267.224 179.344 267.562L179.328 267.977L179.297 269.82C179.297 270.117 179.315 270.573 179.352 271.188C179.388 271.802 179.427 272.253 179.469 272.539C179.51 272.82 179.531 272.987 179.531 273.039C179.531 273.503 179.19 273.734 178.508 273.734C178.273 273.734 178.039 273.648 177.805 273.477C177.576 273.299 177.411 273.211 177.312 273.211C177.219 273.211 177.057 273.268 176.828 273.383C176.177 273.711 175.622 273.875 175.164 273.875H174.969C174.224 273.875 173.677 273.646 173.328 273.188C172.979 272.729 172.805 271.904 172.805 270.711L172.883 268.344C172.883 268.047 172.841 267.763 172.758 267.492C172.674 267.221 172.633 267.049 172.633 266.977ZM182.055 269.641C181.737 269.318 181.578 268.865 181.578 268.281C181.578 267.698 181.839 267.198 182.359 266.781C182.88 266.359 183.526 266.148 184.297 266.148H184.5C185.182 266.148 185.724 266.245 186.125 266.438C186.531 266.63 186.734 266.919 186.734 267.305C186.734 267.685 186.565 267.875 186.227 267.875C186.138 267.875 185.888 267.771 185.477 267.562C185.065 267.349 184.677 267.242 184.312 267.242C183.948 267.242 183.654 267.326 183.43 267.492C183.211 267.654 183.102 267.878 183.102 268.164C183.102 268.451 183.255 268.701 183.562 268.914C183.74 269.039 184.156 269.237 184.812 269.508C185.474 269.779 185.945 270.039 186.227 270.289C186.68 270.69 186.906 271.203 186.906 271.828C186.906 272.453 186.641 272.99 186.109 273.438C185.578 273.88 184.888 274.102 184.039 274.102H183.836C182.982 274.102 182.341 273.979 181.914 273.734C181.487 273.484 181.273 273.161 181.273 272.766C181.273 272.365 181.44 272.164 181.773 272.164C181.883 272.164 182.167 272.305 182.625 272.586C183.089 272.867 183.542 273.008 183.984 273.008C184.432 273.008 184.768 272.914 184.992 272.727C185.216 272.534 185.328 272.294 185.328 272.008C185.328 271.716 185.188 271.461 184.906 271.242C184.755 271.122 184.323 270.906 183.609 270.594C182.896 270.276 182.378 269.958 182.055 269.641ZM189.016 263.141C189.016 262.76 189.372 262.57 190.086 262.57H190.227C190.523 262.57 190.727 262.643 190.836 262.789C190.945 262.93 191 263.206 191 263.617L190.938 264.781C190.922 264.964 190.914 265.062 190.914 265.078L190.898 265.375C190.888 265.568 190.878 265.763 190.867 265.961L190.844 266.258L190.82 266.703C190.737 268.286 190.695 269.456 190.695 270.211C190.695 270.961 190.729 271.5 190.797 271.828C190.865 272.156 190.971 272.435 191.117 272.664C191.263 272.893 191.336 273.044 191.336 273.117V273.211C191.336 273.44 191.221 273.622 190.992 273.758C190.768 273.893 190.464 273.961 190.078 273.961H189.672C189.432 273.961 189.221 273.893 189.039 273.758C188.862 273.617 188.773 273.458 188.773 273.281V273.07L188.82 272.742C188.883 272.289 188.919 271.951 188.93 271.727C188.945 271.497 188.969 271.182 189 270.781C189.031 270.375 189.081 269.513 189.148 268.195C189.221 266.872 189.258 266.161 189.258 266.062L189.289 265.477L189.305 264.898C189.305 264.346 189.255 263.953 189.156 263.719C189.062 263.479 189.016 263.286 189.016 263.141ZM195.719 263.844V263.938C195.719 264.203 195.641 264.43 195.484 264.617C195.333 264.799 195.099 264.891 194.781 264.891H194.656L194.414 264.859C194.273 264.859 194.138 264.794 194.008 264.664C193.878 264.534 193.812 264.339 193.812 264.078V263.984L193.852 263.703C193.852 263.594 193.917 263.458 194.047 263.297C194.182 263.135 194.354 263.055 194.562 263.055L194.742 263.031H194.898L195.117 263.062C195.253 263.062 195.385 263.13 195.516 263.266C195.651 263.396 195.719 263.589 195.719 263.844ZM195.352 267.141L195.266 269.242L195.25 269.453L195.227 270.094V270.398C195.227 271.148 195.247 271.641 195.289 271.875C195.336 272.109 195.422 272.339 195.547 272.562C195.672 272.781 195.734 272.94 195.734 273.039V273.109C195.734 273.365 195.604 273.568 195.344 273.719C195.083 273.87 194.729 273.945 194.281 273.945H194.086C193.826 273.945 193.628 273.888 193.492 273.773C193.357 273.654 193.289 273.526 193.289 273.391V273.219C193.289 273.151 193.349 272.911 193.469 272.5C193.589 272.083 193.648 271.518 193.648 270.805C193.664 270.602 193.672 270.461 193.672 270.383L193.695 269.953L193.711 269.742C193.737 269.378 193.75 269.094 193.75 268.891L193.758 268.578C193.758 268.188 193.693 267.841 193.562 267.539C193.438 267.237 193.375 267.049 193.375 266.977C193.375 266.602 193.729 266.414 194.438 266.414H194.719C194.984 266.414 195.156 266.484 195.234 266.625C195.312 266.76 195.352 266.932 195.352 267.141ZM200.914 266.773C201.315 266.622 201.727 266.547 202.148 266.547C202.57 266.547 203.008 266.672 203.461 266.922C203.919 267.172 204.169 267.297 204.211 267.297C204.253 267.297 204.534 267.169 205.055 266.914C205.576 266.659 206.044 266.531 206.461 266.531C206.883 266.531 207.229 266.62 207.5 266.797C207.776 266.969 207.984 267.174 208.125 267.414C208.391 267.872 208.523 268.891 208.523 270.469C208.523 271.177 208.529 271.583 208.539 271.688C208.555 271.786 208.591 271.966 208.648 272.227C208.711 272.482 208.742 272.693 208.742 272.859C208.742 273.021 208.674 273.19 208.539 273.367C208.404 273.544 208.224 273.633 208 273.633C207.557 273.633 207.294 273.453 207.211 273.094C207.148 272.833 207.076 272.073 206.992 270.812C206.914 269.552 206.828 268.812 206.734 268.594C206.547 268.135 206.148 267.906 205.539 267.906C205.148 267.906 204.844 268.151 204.625 268.641C204.307 269.344 204.148 270.344 204.148 271.641L204.227 272.766C204.227 273.161 204.081 273.461 203.789 273.664C203.602 273.794 203.352 273.859 203.039 273.859C202.732 273.859 202.529 273.828 202.43 273.766C202.258 273.661 202.172 273.44 202.172 273.102C202.172 273.039 202.221 272.784 202.32 272.336C202.424 271.883 202.477 271.148 202.477 270.133C202.477 269.112 202.401 268.464 202.25 268.188C202.099 267.906 201.836 267.766 201.461 267.766C201.086 267.766 200.753 267.893 200.461 268.148C200.174 268.404 199.964 268.682 199.828 268.984C199.698 269.286 199.581 270.005 199.477 271.141C199.378 272.276 199.307 272.927 199.266 273.094C199.193 273.38 198.982 273.523 198.633 273.523C198.289 273.523 198.052 273.422 197.922 273.219C197.797 273.01 197.734 272.758 197.734 272.461L197.773 272.188L197.922 271.648C197.984 271.398 198.021 271.107 198.031 270.773C198.109 268.706 198.169 267.526 198.211 267.234C198.253 266.943 198.44 266.797 198.773 266.797L199.938 266.992C200.188 266.992 200.513 266.919 200.914 266.773ZM213.172 273.016H213.375C213.802 273.016 214.177 272.872 214.5 272.586C214.828 272.294 214.992 271.958 214.992 271.578L215.008 271.477V271.375L215.023 271.133V270.688C215.023 270.385 214.87 270.234 214.562 270.234H214.211L214.156 270.242L213.852 270.266C213.706 270.286 213.602 270.297 213.539 270.297C213.117 270.297 212.727 270.456 212.367 270.773C212.117 270.997 211.992 271.315 211.992 271.727V271.883C211.992 272.232 212.104 272.508 212.328 272.711C212.557 272.914 212.839 273.016 213.172 273.016ZM211.43 268.023C211.081 268.023 210.906 267.799 210.906 267.352C210.906 267.018 211.188 266.729 211.75 266.484C212.318 266.234 212.906 266.109 213.516 266.109H213.906C214.432 266.109 214.896 266.208 215.297 266.406C215.698 266.599 216.003 266.862 216.211 267.195C216.424 267.529 216.555 267.964 216.602 268.5C216.612 268.625 216.617 269.232 216.617 270.32C216.617 271.409 216.63 272.036 216.656 272.203C216.688 272.365 216.771 272.562 216.906 272.797C217.047 273.031 217.117 273.224 217.117 273.375C217.117 273.526 217.044 273.656 216.898 273.766C216.758 273.87 216.552 273.922 216.281 273.922C216.01 273.922 215.716 273.857 215.398 273.727C215.081 273.591 214.849 273.523 214.703 273.523C214.688 273.523 214.427 273.617 213.922 273.805C213.417 273.987 212.99 274.078 212.641 274.078H212.469C211.885 274.078 211.388 273.893 210.977 273.523C210.57 273.154 210.367 272.628 210.367 271.945C210.367 271.263 210.591 270.732 211.039 270.352C211.487 269.966 212.031 269.703 212.672 269.562C212.865 269.521 213.185 269.466 213.633 269.398C214.081 269.331 214.385 269.26 214.547 269.188C214.828 269.057 214.969 268.812 214.969 268.453C214.969 268.089 214.849 267.805 214.609 267.602C214.37 267.393 214.083 267.289 213.75 267.289C213.422 267.289 212.99 267.411 212.453 267.656C211.917 267.901 211.576 268.023 211.43 268.023ZM219.891 273.852C219.276 273.852 218.969 273.633 218.969 273.195C218.969 272.997 219.016 272.703 219.109 272.312C219.208 271.922 219.273 271.562 219.305 271.234C219.336 270.901 219.391 269.828 219.469 268.016C219.552 266.203 219.594 265.099 219.594 264.703V263.781L219.547 263.125C219.547 262.88 219.771 262.758 220.219 262.758C220.672 262.758 220.966 262.932 221.102 263.281C221.169 263.458 221.203 264.036 221.203 265.016C221.203 265.995 221.221 266.552 221.258 266.688C221.299 266.823 221.406 266.891 221.578 266.891C221.599 266.891 221.698 266.859 221.875 266.797L222.047 266.734C222.604 266.516 223.086 266.406 223.492 266.406C224.346 266.406 224.953 266.74 225.312 267.406C225.552 267.849 225.672 268.812 225.672 270.297C225.672 270.995 225.677 271.409 225.688 271.539C225.698 271.669 225.732 271.906 225.789 272.25C225.846 272.589 225.875 272.776 225.875 272.812C225.875 273.12 225.805 273.349 225.664 273.5C225.529 273.646 225.281 273.719 224.922 273.719C224.568 273.719 224.336 273.609 224.227 273.391C224.169 273.276 224.141 272.945 224.141 272.398L224.117 271.023L224.141 269.781C224.141 268.391 223.734 267.695 222.922 267.695C222.203 267.695 221.69 267.997 221.383 268.602C221.076 269.206 220.922 270.326 220.922 271.961L220.945 272.812C220.945 273.104 220.854 273.352 220.672 273.555C220.49 273.753 220.229 273.852 219.891 273.852Z" fill="white"/>
</g>
<defs>
<filter id="filter0_d_204_213" x="40" y="176" width="253.093" height="86" filterUnits="userSpaceOnUse" color-interpolation-filters="sRGB">
<feFlood flood-opacity="0" result="BackgroundImageFix"/>
<feColorMatrix in="SourceAlpha" type="matrix" values="0 0 0 0 0 0 0 0 0 0 0 0 0 0 0 0 0 0 127 0" result="hardAlpha"/>
<feOffset dy="4"/>
<feGaussianBlur stdDeviation="2"/>
<feComposite in2="hardAlpha" operator="out"/>
<feColorMatrix type="matrix" values="0 0 0 0 0 0 0 0 0 0 0 0 0 0 0 0 0 0 0.25 0"/>
<feBlend mode="normal" in2="BackgroundImageFix" result="effect1_dropShadow_204_213"/>
<feBlend mode="normal" in="SourceGraphic" in2="effect1_dropShadow_204_213" result="shape"/>
</filter>
<filter id="filter1_d_204_213" x="130.062" y="243.672" width="152.453" height="38.8984" filterUnits="userSpaceOnUse" color-interpolation-filters="sRGB">
<feFlood flood-opacity="0" result="BackgroundImageFix"/>
<feColorMatrix in="SourceAlpha" type="matrix" values="0 0 0 0 0 0 0 0 0 0 0 0 0 0 0 0 0 0 127 0" result="hardAlpha"/>
<feOffset dy="4"/>
<feGaussianBlur stdDeviation="2"/>
<feComposite in2="hardAlpha" operator="out"/>
<feColorMatrix type="matrix" values="0 0 0 0 0 0 0 0 0 0 0 0 0 0 0 0 0 0 0.25 0"/>
<feBlend mode="normal" in2="BackgroundImageFix" result="effect1_dropShadow_204_213"/>
<feBlend mode="normal" in="SourceGraphic" in2="effect1_dropShadow_204_213" result="shape"/>
</filter>
<linearGradient id="paint0_linear_204_213" x1="166.5" y1="0" x2="166.5" y2="456" gradientUnits="userSpaceOnUse">
<stop stop-color="#FFD4AB"/>
<stop offset="0.5" stop-color="#FF778B"/>
<stop offset="1" stop-color="#A04452"/>
</linearGradient>
</defs>
</svg>
