<svg width="303" height="433" viewBox="0 0 303 433" fill="none" xmlns="http://www.w3.org/2000/svg">
<rect x="1.5" y="1.5" width="300" height="430" rx="21.5" fill="white" stroke="#BA878D" stroke-width="3"/>
<path d="M3 262.5H1.5V264V410C1.5 421.874 11.1259 431.5 23 431.5H280C291.874 431.5 301.5 421.874 301.5 410V264V262.5H300H3Z" fill="#DFDCEF" stroke="#BA878D" stroke-width="3"/>
<g filter="url(#filter0_d_343_337)">
<mask id="path-3-outside-1_343_337" maskUnits="userSpaceOnUse" x="29" y="76" width="246" height="77" fill="black">
<rect fill="white" x="29" y="76" width="246" height="77"/>
<path d="M66.2698 87.7334L66.1962 90.9031V91.8395C64.7248 101.829 63.7929 107.495 63.4005 108.84C64.3815 107.159 66.0736 104.086 68.4768 99.6195C70.8801 95.1532 72.842 91.6234 74.3624 89.0301C75.8828 86.3888 77.7466 83.8195 79.9537 81.3222C82.1608 78.7769 84.1717 77.3362 85.9864 77C88.1444 77 89.2234 80.2176 89.2234 86.6529V88.4538C89.1744 91.8635 88.6104 96.9541 87.5313 103.726C85.9128 114.291 85.1035 120.942 85.1035 123.68C85.1035 126.369 85.2507 128.89 85.545 131.244C85.8883 133.597 86.6485 136.166 87.8256 138.951C90.2779 144.714 95.5995 148.268 103.79 149.613C105.114 149.133 105.899 148.892 106.144 148.892C106.39 148.892 106.512 148.916 106.512 148.964C106.512 149.397 105.752 149.877 104.232 150.405C102.76 150.933 101.779 151.198 101.289 151.198C100.847 151.198 100.504 151.15 100.259 151.054C95.4523 151.054 91.6267 149.349 88.782 145.939C86.2807 142.865 84.5395 139.12 83.5586 134.701C83.4114 132.828 83.3379 130.043 83.3379 126.345C83.3379 122.599 83.8283 116.212 84.8093 107.183C85.7902 98.1547 86.3297 91.9116 86.4278 88.4538L86.3542 82.907C86.2071 81.5143 85.8638 80.8179 85.3243 80.8179C80.9101 84.1796 76.9373 89.0061 73.406 95.2973C71.4932 98.707 70.1444 101.18 69.3597 102.717C68.624 104.254 67.6921 106.223 66.564 108.624C64.9455 112.082 63.2044 116.716 61.3406 122.527C60.9482 122.911 60.5313 123.103 60.0899 123.103C59.6485 123.103 59.3542 122.911 59.2071 122.527C59.2071 119.694 60.8501 108.792 64.1362 89.8225C63.842 88.3818 63.0817 88.2137 61.8556 89.3182C61.5123 89.6064 59.0599 92.5839 54.4986 98.2508C49.9373 103.87 47.1172 107.399 46.0381 108.84C45.842 109.368 45.2534 111.289 44.2725 114.603C43.3406 117.869 42.7766 119.79 42.5804 120.366C41.7956 122.767 40.4959 124.88 38.6812 126.705C36.9155 128.482 34.9537 129.371 32.7956 129.371C31.079 129.371 30.1717 129.082 30.0736 128.506C30.0245 128.218 30 127.786 30 127.209C30 125.673 30.4659 124.304 31.3978 123.103C39.7847 113.162 44.4196 105.911 45.3025 101.348C45.6948 100.964 45.891 98.5869 45.891 94.2167C45.891 89.8465 45.7193 87.6614 45.376 87.6614C45.327 87.6614 45.3025 87.6854 45.3025 87.7334L31.7657 93.2082C31.4714 93.2082 31.2016 93.1122 30.9564 92.9201C30.7602 92.68 30.6621 92.4158 30.6621 92.1277C30.6621 91.5994 31.4959 91.1432 33.1635 90.759L34.1935 90.4708C34.6839 90.2307 35.7629 89.6544 37.4305 88.742C41.158 86.7249 43.782 85.6684 45.3025 85.5723C46.2834 85.5723 46.921 85.8125 47.2153 86.2927C47.5095 86.7249 47.7057 87.0851 47.8038 87.3733C47.951 87.6134 48.049 87.9976 48.0981 88.5258C48.1471 89.0061 48.1717 89.3903 48.1717 89.6784C48.2207 89.9186 48.2207 90.3268 48.1717 90.9031C48.1717 91.4793 48.1717 92.1037 48.1717 92.776C48.1717 93.4003 48.049 95.0331 47.8038 97.6745C47.5586 100.268 47.436 102.405 47.436 104.086C55.7738 93.3763 60.8011 87.2532 62.5177 85.7164C63.2534 85.0441 63.842 84.7079 64.2834 84.7079C64.7738 84.7079 65.1172 84.876 65.3134 85.2122C65.5095 85.5483 65.8283 86.3888 66.2698 87.7334ZM32.7221 127.282C34.0463 127.282 35.3951 126.609 36.7684 125.264C38.1417 123.872 39.1471 122.479 39.7847 121.086L41.109 117.845C41.9428 115.636 42.4332 114.219 42.5804 113.595V113.234C42.4823 113.378 42.0163 113.931 41.1826 114.891C40.3488 115.804 39.6376 116.596 39.049 117.268C38.5095 117.893 37.7984 118.757 36.9155 119.862C36.0327 120.966 35.3215 121.927 34.782 122.743C33.4087 124.76 32.7221 126.273 32.7221 127.282Z"/>
<path d="M109.749 110.785C108.327 114.339 107.616 117.653 107.616 120.726C107.616 125.817 110.436 128.362 116.076 128.362C117.499 128.17 118.553 127.882 119.24 127.498C119.975 127.113 120.76 126.465 121.594 125.553C122.428 124.592 123.237 123.8 124.022 123.175H124.39C124.144 125.865 123.188 127.69 121.52 128.65C119.902 129.563 117.67 130.019 114.826 130.019C108.695 130.019 105.384 127.498 104.894 122.455C104.649 123.704 103.52 125.168 101.51 126.849C99.5477 128.482 97.782 129.299 96.2125 129.299C96.1144 129.299 95.9918 129.299 95.8447 129.299C92.8038 128.482 91.2834 126.705 91.2834 123.968C91.2834 120.414 93.1717 116.956 96.9482 113.595C99.891 110.953 102.76 109.633 105.556 109.633C107.125 109.633 108.523 110.017 109.749 110.785ZM93.564 123.608C93.564 124.376 93.5886 125 93.6376 125.481C93.7357 125.913 93.9809 126.321 94.3733 126.705C94.8147 127.089 95.4278 127.282 96.2125 127.282C98.3706 127.185 100.529 125.505 102.687 122.239C104.894 118.925 106.071 116.092 106.218 113.739C105.433 112.778 104.354 112.298 102.981 112.298C101.215 112.298 99.376 113.402 97.4632 115.612C95.5504 117.821 94.2507 120.486 93.564 123.608Z"/>
<path d="M121.741 115.972C121.741 113.33 121.839 110.281 122.035 106.823C122.526 106.823 122.943 107.015 123.286 107.399C123.678 107.736 123.85 108.264 123.801 108.984C123.752 109.705 123.728 111.746 123.728 115.107C123.728 118.469 123.777 120.606 123.875 121.519C124.071 124.304 124.635 125.697 125.567 125.697C126.057 125.697 126.67 125.313 127.406 124.544C129.172 122.623 130.79 119.574 132.262 115.395C132.801 113.763 133.071 112.73 133.071 112.298C133.071 111.818 133.071 111.53 133.071 111.433H134.837C134.935 111.962 135.106 113.426 135.352 115.828C136.038 121.543 136.798 124.856 137.632 125.769C138.76 125.529 139.569 123.992 140.06 121.158C140.55 118.277 140.796 115.948 140.796 114.171L142.193 112.73C142.586 113.979 142.856 114.819 143.003 115.251C143.199 115.684 143.493 116.14 143.886 116.62C144.278 117.1 144.719 117.388 145.21 117.485C145.749 117.581 146.485 117.629 147.417 117.629C149.232 116.476 150.311 115.9 150.654 115.9C151.046 115.9 151.243 115.972 151.243 116.116C151.243 116.788 150.629 117.557 149.403 118.421C148.226 119.237 147.49 119.646 147.196 119.646C146.902 119.646 146.73 119.646 146.681 119.646C144.866 119.646 143.616 119.406 142.929 118.925C142.88 119.117 142.757 119.694 142.561 120.654C142.365 121.615 142.144 122.479 141.899 123.247C141.654 123.968 141.335 124.76 140.943 125.625C140.109 127.546 138.883 128.506 137.264 128.506C136.578 128.506 135.989 128.002 135.499 126.993C134.861 125.793 134.297 124.304 133.807 122.527C133.316 120.702 133.071 119.742 133.071 119.646C129.589 125.793 126.916 128.866 125.052 128.866C122.845 128.866 121.741 124.568 121.741 115.972Z"/>
<path d="M167.649 110.785C166.226 114.339 165.515 117.653 165.515 120.726C165.515 125.817 168.335 128.362 173.975 128.362C175.398 128.17 176.452 127.882 177.139 127.498C177.875 127.113 178.659 126.465 179.493 125.553C180.327 124.592 181.136 123.8 181.921 123.175H182.289C182.044 125.865 181.087 127.69 179.42 128.65C177.801 129.563 175.569 130.019 172.725 130.019C166.594 130.019 163.283 127.498 162.793 122.455C162.548 123.704 161.42 125.168 159.409 126.849C157.447 128.482 155.681 129.299 154.112 129.299C154.014 129.299 153.891 129.299 153.744 129.299C150.703 128.482 149.183 126.705 149.183 123.968C149.183 120.414 151.071 116.956 154.847 113.595C157.79 110.953 160.659 109.633 163.455 109.633C165.025 109.633 166.422 110.017 167.649 110.785ZM151.463 123.608C151.463 124.376 151.488 125 151.537 125.481C151.635 125.913 151.88 126.321 152.272 126.705C152.714 127.089 153.327 127.282 154.112 127.282C156.27 127.185 158.428 125.505 160.586 122.239C162.793 118.925 163.97 116.092 164.117 113.739C163.332 112.778 162.253 112.298 160.88 112.298C159.114 112.298 157.275 113.402 155.362 115.612C153.45 117.821 152.15 120.486 151.463 123.608Z"/>
<path d="M178.905 123.464C179.886 120.294 180.94 117.749 182.068 115.828C183.245 113.907 184.643 112.538 186.262 111.722C187.88 110.857 189.352 110.329 190.676 110.137C192 109.897 193.839 109.777 196.193 109.777C196.341 109.2 196.586 108.072 196.929 106.391C197.272 104.662 197.518 103.509 197.665 102.933C197.861 102.309 198.131 101.372 198.474 100.124C199.063 98.0587 199.651 96.4979 200.24 95.4414C200.877 94.3368 201.27 93.6404 201.417 93.3523C201.564 93.0641 201.662 92.872 201.711 92.776C201.809 92.6319 201.932 92.4879 202.079 92.3438C202.275 92.1517 202.594 92.0556 203.035 92.0556C204.556 92.0556 205.316 93.6404 205.316 96.81V97.4584C205.316 99.9556 204.237 103.413 202.079 107.832C199.921 112.202 198.842 115.54 198.842 117.845C198.842 122.983 200.264 125.553 203.109 125.553C204.041 125.553 205.316 125.192 206.935 124.472C208.553 123.752 209.828 123.392 210.76 123.392L211.496 123.464C210.662 124.712 209.411 125.697 207.744 126.417C206.125 127.137 204.777 127.498 203.698 127.498C202.668 127.498 201.956 127.474 201.564 127.426C201.172 127.378 200.804 127.282 200.46 127.137C200.117 126.945 199.823 126.801 199.578 126.705C199.381 126.609 199.136 126.393 198.842 126.057C198.597 125.673 198.401 125.409 198.253 125.264C198.155 125.12 197.984 124.784 197.738 124.256C197.493 123.728 197.322 123.392 197.223 123.247C197.174 123.103 197.003 122.695 196.708 122.023C196.463 121.35 196.292 120.918 196.193 120.726C196.046 120.87 195.482 121.471 194.501 122.527C193.52 123.536 192.834 124.232 192.441 124.616C192.049 124.952 191.362 125.529 190.381 126.345C189.45 127.161 188.665 127.738 188.027 128.074C186.213 129.034 184.594 129.515 183.172 129.515C181.798 129.515 180.793 129.202 180.155 128.578C179.567 127.906 179.199 127.209 179.052 126.489C178.954 125.721 178.905 124.712 178.905 123.464ZM192.221 112.442C189.474 112.442 186.997 113.691 184.79 116.188C182.632 118.685 181.553 121.206 181.553 123.752C181.553 126.249 182.24 127.498 183.613 127.498C185.526 127.498 187.978 126.081 190.97 123.247C194.011 120.366 195.531 117.917 195.531 115.9C195.531 114.699 195.262 113.835 194.722 113.306C194.232 112.73 193.398 112.442 192.221 112.442ZM203.183 95.5134C201.907 97.2423 200.853 99.5714 200.019 102.501C199.234 105.382 198.842 107.808 198.842 109.777C198.842 109.873 198.866 110.089 198.916 110.425L199.578 109.777C200.166 109.2 201.368 105.791 203.183 99.5474L203.256 98.683C203.256 98.1067 203.256 97.7465 203.256 97.6024C203.256 97.4584 203.232 97.0982 203.183 96.5219C203.183 95.9456 203.183 95.6094 203.183 95.5134Z"/>
<path d="M209.51 123.464C210.49 120.294 211.545 117.749 212.673 115.828C213.85 113.907 215.248 112.538 216.866 111.722C218.485 110.857 219.956 110.329 221.281 110.137C222.605 109.897 224.444 109.777 226.798 109.777C226.946 109.2 227.191 108.072 227.534 106.391C227.877 104.662 228.123 103.509 228.27 102.933C228.466 102.309 228.736 101.372 229.079 100.124C229.668 98.0587 230.256 96.4979 230.845 95.4414C231.482 94.3368 231.875 93.6404 232.022 93.3523C232.169 93.0641 232.267 92.872 232.316 92.776C232.414 92.6319 232.537 92.4879 232.684 92.3438C232.88 92.1517 233.199 92.0556 233.64 92.0556C235.161 92.0556 235.921 93.6404 235.921 96.81V97.4584C235.921 99.9556 234.842 103.413 232.684 107.832C230.526 112.202 229.447 115.54 229.447 117.845C229.447 122.983 230.869 125.553 233.714 125.553C234.646 125.553 235.921 125.192 237.54 124.472C239.158 123.752 240.433 123.392 241.365 123.392L242.101 123.464C241.267 124.712 240.016 125.697 238.349 126.417C236.73 127.137 235.381 127.498 234.302 127.498C233.272 127.498 232.561 127.474 232.169 127.426C231.777 127.378 231.409 127.282 231.065 127.137C230.722 126.945 230.428 126.801 230.183 126.705C229.986 126.609 229.741 126.393 229.447 126.057C229.202 125.673 229.005 125.409 228.858 125.264C228.76 125.12 228.589 124.784 228.343 124.256C228.098 123.728 227.926 123.392 227.828 123.247C227.779 123.103 227.608 122.695 227.313 122.023C227.068 121.35 226.896 120.918 226.798 120.726C226.651 120.87 226.087 121.471 225.106 122.527C224.125 123.536 223.439 124.232 223.046 124.616C222.654 124.952 221.967 125.529 220.986 126.345C220.055 127.161 219.27 127.738 218.632 128.074C216.817 129.034 215.199 129.515 213.777 129.515C212.403 129.515 211.398 129.202 210.76 128.578C210.172 127.906 209.804 127.209 209.657 126.489C209.559 125.721 209.51 124.712 209.51 123.464ZM222.826 112.442C220.079 112.442 217.602 113.691 215.395 116.188C213.237 118.685 212.158 121.206 212.158 123.752C212.158 126.249 212.845 127.498 214.218 127.498C216.131 127.498 218.583 126.081 221.575 123.247C224.616 120.366 226.136 117.917 226.136 115.9C226.136 114.699 225.866 113.835 225.327 113.306C224.837 112.73 224.003 112.442 222.826 112.442ZM233.787 95.5134C232.512 97.2423 231.458 99.5714 230.624 102.501C229.839 105.382 229.447 107.808 229.447 109.777C229.447 109.873 229.471 110.089 229.52 110.425L230.183 109.777C230.771 109.2 231.973 105.791 233.787 99.5474L233.861 98.683C233.861 98.1067 233.861 97.7465 233.861 97.6024C233.861 97.4584 233.837 97.0982 233.787 96.5219C233.787 95.9456 233.787 95.6094 233.787 95.5134Z"/>
<path d="M258.36 110.785C256.937 114.339 256.226 117.653 256.226 120.726C256.226 125.817 259.046 128.362 264.687 128.362C266.109 128.17 267.163 127.882 267.85 127.498C268.586 127.113 269.371 126.465 270.204 125.553C271.038 124.592 271.847 123.8 272.632 123.175H273C272.755 125.865 271.798 127.69 270.131 128.65C268.512 129.563 266.281 130.019 263.436 130.019C257.305 130.019 253.995 127.498 253.504 122.455C253.259 123.704 252.131 125.168 250.12 126.849C248.158 128.482 246.392 129.299 244.823 129.299C244.725 129.299 244.602 129.299 244.455 129.299C241.414 128.482 239.894 126.705 239.894 123.968C239.894 120.414 241.782 116.956 245.559 113.595C248.501 110.953 251.371 109.633 254.166 109.633C255.736 109.633 257.134 110.017 258.36 110.785ZM242.174 123.608C242.174 124.376 242.199 125 242.248 125.481C242.346 125.913 242.591 126.321 242.984 126.705C243.425 127.089 244.038 127.282 244.823 127.282C246.981 127.185 249.139 125.505 251.297 122.239C253.504 118.925 254.681 116.092 254.828 113.739C254.044 112.778 252.965 112.298 251.591 112.298C249.826 112.298 247.986 113.402 246.074 115.612C244.161 117.821 242.861 120.486 242.174 123.608Z"/>
</mask>
<path d="M66.2698 87.7334L66.1962 90.9031V91.8395C64.7248 101.829 63.7929 107.495 63.4005 108.84C64.3815 107.159 66.0736 104.086 68.4768 99.6195C70.8801 95.1532 72.842 91.6234 74.3624 89.0301C75.8828 86.3888 77.7466 83.8195 79.9537 81.3222C82.1608 78.7769 84.1717 77.3362 85.9864 77C88.1444 77 89.2234 80.2176 89.2234 86.6529V88.4538C89.1744 91.8635 88.6104 96.9541 87.5313 103.726C85.9128 114.291 85.1035 120.942 85.1035 123.68C85.1035 126.369 85.2507 128.89 85.545 131.244C85.8883 133.597 86.6485 136.166 87.8256 138.951C90.2779 144.714 95.5995 148.268 103.79 149.613C105.114 149.133 105.899 148.892 106.144 148.892C106.39 148.892 106.512 148.916 106.512 148.964C106.512 149.397 105.752 149.877 104.232 150.405C102.76 150.933 101.779 151.198 101.289 151.198C100.847 151.198 100.504 151.15 100.259 151.054C95.4523 151.054 91.6267 149.349 88.782 145.939C86.2807 142.865 84.5395 139.12 83.5586 134.701C83.4114 132.828 83.3379 130.043 83.3379 126.345C83.3379 122.599 83.8283 116.212 84.8093 107.183C85.7902 98.1547 86.3297 91.9116 86.4278 88.4538L86.3542 82.907C86.2071 81.5143 85.8638 80.8179 85.3243 80.8179C80.9101 84.1796 76.9373 89.0061 73.406 95.2973C71.4932 98.707 70.1444 101.18 69.3597 102.717C68.624 104.254 67.6921 106.223 66.564 108.624C64.9455 112.082 63.2044 116.716 61.3406 122.527C60.9482 122.911 60.5313 123.103 60.0899 123.103C59.6485 123.103 59.3542 122.911 59.2071 122.527C59.2071 119.694 60.8501 108.792 64.1362 89.8225C63.842 88.3818 63.0817 88.2137 61.8556 89.3182C61.5123 89.6064 59.0599 92.5839 54.4986 98.2508C49.9373 103.87 47.1172 107.399 46.0381 108.84C45.842 109.368 45.2534 111.289 44.2725 114.603C43.3406 117.869 42.7766 119.79 42.5804 120.366C41.7956 122.767 40.4959 124.88 38.6812 126.705C36.9155 128.482 34.9537 129.371 32.7956 129.371C31.079 129.371 30.1717 129.082 30.0736 128.506C30.0245 128.218 30 127.786 30 127.209C30 125.673 30.4659 124.304 31.3978 123.103C39.7847 113.162 44.4196 105.911 45.3025 101.348C45.6948 100.964 45.891 98.5869 45.891 94.2167C45.891 89.8465 45.7193 87.6614 45.376 87.6614C45.327 87.6614 45.3025 87.6854 45.3025 87.7334L31.7657 93.2082C31.4714 93.2082 31.2016 93.1122 30.9564 92.9201C30.7602 92.68 30.6621 92.4158 30.6621 92.1277C30.6621 91.5994 31.4959 91.1432 33.1635 90.759L34.1935 90.4708C34.6839 90.2307 35.7629 89.6544 37.4305 88.742C41.158 86.7249 43.782 85.6684 45.3025 85.5723C46.2834 85.5723 46.921 85.8125 47.2153 86.2927C47.5095 86.7249 47.7057 87.0851 47.8038 87.3733C47.951 87.6134 48.049 87.9976 48.0981 88.5258C48.1471 89.0061 48.1717 89.3903 48.1717 89.6784C48.2207 89.9186 48.2207 90.3268 48.1717 90.9031C48.1717 91.4793 48.1717 92.1037 48.1717 92.776C48.1717 93.4003 48.049 95.0331 47.8038 97.6745C47.5586 100.268 47.436 102.405 47.436 104.086C55.7738 93.3763 60.8011 87.2532 62.5177 85.7164C63.2534 85.0441 63.842 84.7079 64.2834 84.7079C64.7738 84.7079 65.1172 84.876 65.3134 85.2122C65.5095 85.5483 65.8283 86.3888 66.2698 87.7334ZM32.7221 127.282C34.0463 127.282 35.3951 126.609 36.7684 125.264C38.1417 123.872 39.1471 122.479 39.7847 121.086L41.109 117.845C41.9428 115.636 42.4332 114.219 42.5804 113.595V113.234C42.4823 113.378 42.0163 113.931 41.1826 114.891C40.3488 115.804 39.6376 116.596 39.049 117.268C38.5095 117.893 37.7984 118.757 36.9155 119.862C36.0327 120.966 35.3215 121.927 34.782 122.743C33.4087 124.76 32.7221 126.273 32.7221 127.282Z" fill="black"/>
<path d="M109.749 110.785C108.327 114.339 107.616 117.653 107.616 120.726C107.616 125.817 110.436 128.362 116.076 128.362C117.499 128.17 118.553 127.882 119.24 127.498C119.975 127.113 120.76 126.465 121.594 125.553C122.428 124.592 123.237 123.8 124.022 123.175H124.39C124.144 125.865 123.188 127.69 121.52 128.65C119.902 129.563 117.67 130.019 114.826 130.019C108.695 130.019 105.384 127.498 104.894 122.455C104.649 123.704 103.52 125.168 101.51 126.849C99.5477 128.482 97.782 129.299 96.2125 129.299C96.1144 129.299 95.9918 129.299 95.8447 129.299C92.8038 128.482 91.2834 126.705 91.2834 123.968C91.2834 120.414 93.1717 116.956 96.9482 113.595C99.891 110.953 102.76 109.633 105.556 109.633C107.125 109.633 108.523 110.017 109.749 110.785ZM93.564 123.608C93.564 124.376 93.5886 125 93.6376 125.481C93.7357 125.913 93.9809 126.321 94.3733 126.705C94.8147 127.089 95.4278 127.282 96.2125 127.282C98.3706 127.185 100.529 125.505 102.687 122.239C104.894 118.925 106.071 116.092 106.218 113.739C105.433 112.778 104.354 112.298 102.981 112.298C101.215 112.298 99.376 113.402 97.4632 115.612C95.5504 117.821 94.2507 120.486 93.564 123.608Z" fill="black"/>
<path d="M121.741 115.972C121.741 113.33 121.839 110.281 122.035 106.823C122.526 106.823 122.943 107.015 123.286 107.399C123.678 107.736 123.85 108.264 123.801 108.984C123.752 109.705 123.728 111.746 123.728 115.107C123.728 118.469 123.777 120.606 123.875 121.519C124.071 124.304 124.635 125.697 125.567 125.697C126.057 125.697 126.67 125.313 127.406 124.544C129.172 122.623 130.79 119.574 132.262 115.395C132.801 113.763 133.071 112.73 133.071 112.298C133.071 111.818 133.071 111.53 133.071 111.433H134.837C134.935 111.962 135.106 113.426 135.352 115.828C136.038 121.543 136.798 124.856 137.632 125.769C138.76 125.529 139.569 123.992 140.06 121.158C140.55 118.277 140.796 115.948 140.796 114.171L142.193 112.73C142.586 113.979 142.856 114.819 143.003 115.251C143.199 115.684 143.493 116.14 143.886 116.62C144.278 117.1 144.719 117.388 145.21 117.485C145.749 117.581 146.485 117.629 147.417 117.629C149.232 116.476 150.311 115.9 150.654 115.9C151.046 115.9 151.243 115.972 151.243 116.116C151.243 116.788 150.629 117.557 149.403 118.421C148.226 119.237 147.49 119.646 147.196 119.646C146.902 119.646 146.73 119.646 146.681 119.646C144.866 119.646 143.616 119.406 142.929 118.925C142.88 119.117 142.757 119.694 142.561 120.654C142.365 121.615 142.144 122.479 141.899 123.247C141.654 123.968 141.335 124.76 140.943 125.625C140.109 127.546 138.883 128.506 137.264 128.506C136.578 128.506 135.989 128.002 135.499 126.993C134.861 125.793 134.297 124.304 133.807 122.527C133.316 120.702 133.071 119.742 133.071 119.646C129.589 125.793 126.916 128.866 125.052 128.866C122.845 128.866 121.741 124.568 121.741 115.972Z" fill="black"/>
<path d="M167.649 110.785C166.226 114.339 165.515 117.653 165.515 120.726C165.515 125.817 168.335 128.362 173.975 128.362C175.398 128.17 176.452 127.882 177.139 127.498C177.875 127.113 178.659 126.465 179.493 125.553C180.327 124.592 181.136 123.8 181.921 123.175H182.289C182.044 125.865 181.087 127.69 179.42 128.65C177.801 129.563 175.569 130.019 172.725 130.019C166.594 130.019 163.283 127.498 162.793 122.455C162.548 123.704 161.42 125.168 159.409 126.849C157.447 128.482 155.681 129.299 154.112 129.299C154.014 129.299 153.891 129.299 153.744 129.299C150.703 128.482 149.183 126.705 149.183 123.968C149.183 120.414 151.071 116.956 154.847 113.595C157.79 110.953 160.659 109.633 163.455 109.633C165.025 109.633 166.422 110.017 167.649 110.785ZM151.463 123.608C151.463 124.376 151.488 125 151.537 125.481C151.635 125.913 151.88 126.321 152.272 126.705C152.714 127.089 153.327 127.282 154.112 127.282C156.27 127.185 158.428 125.505 160.586 122.239C162.793 118.925 163.97 116.092 164.117 113.739C163.332 112.778 162.253 112.298 160.88 112.298C159.114 112.298 157.275 113.402 155.362 115.612C153.45 117.821 152.15 120.486 151.463 123.608Z" fill="black"/>
<path d="M178.905 123.464C179.886 120.294 180.94 117.749 182.068 115.828C183.245 113.907 184.643 112.538 186.262 111.722C187.88 110.857 189.352 110.329 190.676 110.137C192 109.897 193.839 109.777 196.193 109.777C196.341 109.2 196.586 108.072 196.929 106.391C197.272 104.662 197.518 103.509 197.665 102.933C197.861 102.309 198.131 101.372 198.474 100.124C199.063 98.0587 199.651 96.4979 200.24 95.4414C200.877 94.3368 201.27 93.6404 201.417 93.3523C201.564 93.0641 201.662 92.872 201.711 92.776C201.809 92.6319 201.932 92.4879 202.079 92.3438C202.275 92.1517 202.594 92.0556 203.035 92.0556C204.556 92.0556 205.316 93.6404 205.316 96.81V97.4584C205.316 99.9556 204.237 103.413 202.079 107.832C199.921 112.202 198.842 115.54 198.842 117.845C198.842 122.983 200.264 125.553 203.109 125.553C204.041 125.553 205.316 125.192 206.935 124.472C208.553 123.752 209.828 123.392 210.76 123.392L211.496 123.464C210.662 124.712 209.411 125.697 207.744 126.417C206.125 127.137 204.777 127.498 203.698 127.498C202.668 127.498 201.956 127.474 201.564 127.426C201.172 127.378 200.804 127.282 200.46 127.137C200.117 126.945 199.823 126.801 199.578 126.705C199.381 126.609 199.136 126.393 198.842 126.057C198.597 125.673 198.401 125.409 198.253 125.264C198.155 125.12 197.984 124.784 197.738 124.256C197.493 123.728 197.322 123.392 197.223 123.247C197.174 123.103 197.003 122.695 196.708 122.023C196.463 121.35 196.292 120.918 196.193 120.726C196.046 120.87 195.482 121.471 194.501 122.527C193.52 123.536 192.834 124.232 192.441 124.616C192.049 124.952 191.362 125.529 190.381 126.345C189.45 127.161 188.665 127.738 188.027 128.074C186.213 129.034 184.594 129.515 183.172 129.515C181.798 129.515 180.793 129.202 180.155 128.578C179.567 127.906 179.199 127.209 179.052 126.489C178.954 125.721 178.905 124.712 178.905 123.464ZM192.221 112.442C189.474 112.442 186.997 113.691 184.79 116.188C182.632 118.685 181.553 121.206 181.553 123.752C181.553 126.249 182.24 127.498 183.613 127.498C185.526 127.498 187.978 126.081 190.97 123.247C194.011 120.366 195.531 117.917 195.531 115.9C195.531 114.699 195.262 113.835 194.722 113.306C194.232 112.73 193.398 112.442 192.221 112.442ZM203.183 95.5134C201.907 97.2423 200.853 99.5714 200.019 102.501C199.234 105.382 198.842 107.808 198.842 109.777C198.842 109.873 198.866 110.089 198.916 110.425L199.578 109.777C200.166 109.2 201.368 105.791 203.183 99.5474L203.256 98.683C203.256 98.1067 203.256 97.7465 203.256 97.6024C203.256 97.4584 203.232 97.0982 203.183 96.5219C203.183 95.9456 203.183 95.6094 203.183 95.5134Z" fill="black"/>
<path d="M209.51 123.464C210.49 120.294 211.545 117.749 212.673 115.828C213.85 113.907 215.248 112.538 216.866 111.722C218.485 110.857 219.956 110.329 221.281 110.137C222.605 109.897 224.444 109.777 226.798 109.777C226.946 109.2 227.191 108.072 227.534 106.391C227.877 104.662 228.123 103.509 228.27 102.933C228.466 102.309 228.736 101.372 229.079 100.124C229.668 98.0587 230.256 96.4979 230.845 95.4414C231.482 94.3368 231.875 93.6404 232.022 93.3523C232.169 93.0641 232.267 92.872 232.316 92.776C232.414 92.6319 232.537 92.4879 232.684 92.3438C232.88 92.1517 233.199 92.0556 233.64 92.0556C235.161 92.0556 235.921 93.6404 235.921 96.81V97.4584C235.921 99.9556 234.842 103.413 232.684 107.832C230.526 112.202 229.447 115.54 229.447 117.845C229.447 122.983 230.869 125.553 233.714 125.553C234.646 125.553 235.921 125.192 237.54 124.472C239.158 123.752 240.433 123.392 241.365 123.392L242.101 123.464C241.267 124.712 240.016 125.697 238.349 126.417C236.73 127.137 235.381 127.498 234.302 127.498C233.272 127.498 232.561 127.474 232.169 127.426C231.777 127.378 231.409 127.282 231.065 127.137C230.722 126.945 230.428 126.801 230.183 126.705C229.986 126.609 229.741 126.393 229.447 126.057C229.202 125.673 229.005 125.409 228.858 125.264C228.76 125.12 228.589 124.784 228.343 124.256C228.098 123.728 227.926 123.392 227.828 123.247C227.779 123.103 227.608 122.695 227.313 122.023C227.068 121.35 226.896 120.918 226.798 120.726C226.651 120.87 226.087 121.471 225.106 122.527C224.125 123.536 223.439 124.232 223.046 124.616C222.654 124.952 221.967 125.529 220.986 126.345C220.055 127.161 219.27 127.738 218.632 128.074C216.817 129.034 215.199 129.515 213.777 129.515C212.403 129.515 211.398 129.202 210.76 128.578C210.172 127.906 209.804 127.209 209.657 126.489C209.559 125.721 209.51 124.712 209.51 123.464ZM222.826 112.442C220.079 112.442 217.602 113.691 215.395 116.188C213.237 118.685 212.158 121.206 212.158 123.752C212.158 126.249 212.845 127.498 214.218 127.498C216.131 127.498 218.583 126.081 221.575 123.247C224.616 120.366 226.136 117.917 226.136 115.9C226.136 114.699 225.866 113.835 225.327 113.306C224.837 112.73 224.003 112.442 222.826 112.442ZM233.787 95.5134C232.512 97.2423 231.458 99.5714 230.624 102.501C229.839 105.382 229.447 107.808 229.447 109.777C229.447 109.873 229.471 110.089 229.52 110.425L230.183 109.777C230.771 109.2 231.973 105.791 233.787 99.5474L233.861 98.683C233.861 98.1067 233.861 97.7465 233.861 97.6024C233.861 97.4584 233.837 97.0982 233.787 96.5219C233.787 95.9456 233.787 95.6094 233.787 95.5134Z" fill="black"/>
<path d="M258.36 110.785C256.937 114.339 256.226 117.653 256.226 120.726C256.226 125.817 259.046 128.362 264.687 128.362C266.109 128.17 267.163 127.882 267.85 127.498C268.586 127.113 269.371 126.465 270.204 125.553C271.038 124.592 271.847 123.8 272.632 123.175H273C272.755 125.865 271.798 127.69 270.131 128.65C268.512 129.563 266.281 130.019 263.436 130.019C257.305 130.019 253.995 127.498 253.504 122.455C253.259 123.704 252.131 125.168 250.12 126.849C248.158 128.482 246.392 129.299 244.823 129.299C244.725 129.299 244.602 129.299 244.455 129.299C241.414 128.482 239.894 126.705 239.894 123.968C239.894 120.414 241.782 116.956 245.559 113.595C248.501 110.953 251.371 109.633 254.166 109.633C255.736 109.633 257.134 110.017 258.36 110.785ZM242.174 123.608C242.174 124.376 242.199 125 242.248 125.481C242.346 125.913 242.591 126.321 242.984 126.705C243.425 127.089 244.038 127.282 244.823 127.282C246.981 127.185 249.139 125.505 251.297 122.239C253.504 118.925 254.681 116.092 254.828 113.739C254.044 112.778 252.965 112.298 251.591 112.298C249.826 112.298 247.986 113.402 246.074 115.612C244.161 117.821 242.861 120.486 242.174 123.608Z" fill="black"/>
<path d="M66.2698 87.7334L66.1962 90.9031V91.8395C64.7248 101.829 63.7929 107.495 63.4005 108.84C64.3815 107.159 66.0736 104.086 68.4768 99.6195C70.8801 95.1532 72.842 91.6234 74.3624 89.0301C75.8828 86.3888 77.7466 83.8195 79.9537 81.3222C82.1608 78.7769 84.1717 77.3362 85.9864 77C88.1444 77 89.2234 80.2176 89.2234 86.6529V88.4538C89.1744 91.8635 88.6104 96.9541 87.5313 103.726C85.9128 114.291 85.1035 120.942 85.1035 123.68C85.1035 126.369 85.2507 128.89 85.545 131.244C85.8883 133.597 86.6485 136.166 87.8256 138.951C90.2779 144.714 95.5995 148.268 103.79 149.613C105.114 149.133 105.899 148.892 106.144 148.892C106.39 148.892 106.512 148.916 106.512 148.964C106.512 149.397 105.752 149.877 104.232 150.405C102.76 150.933 101.779 151.198 101.289 151.198C100.847 151.198 100.504 151.15 100.259 151.054C95.4523 151.054 91.6267 149.349 88.782 145.939C86.2807 142.865 84.5395 139.12 83.5586 134.701C83.4114 132.828 83.3379 130.043 83.3379 126.345C83.3379 122.599 83.8283 116.212 84.8093 107.183C85.7902 98.1547 86.3297 91.9116 86.4278 88.4538L86.3542 82.907C86.2071 81.5143 85.8638 80.8179 85.3243 80.8179C80.9101 84.1796 76.9373 89.0061 73.406 95.2973C71.4932 98.707 70.1444 101.18 69.3597 102.717C68.624 104.254 67.6921 106.223 66.564 108.624C64.9455 112.082 63.2044 116.716 61.3406 122.527C60.9482 122.911 60.5313 123.103 60.0899 123.103C59.6485 123.103 59.3542 122.911 59.2071 122.527C59.2071 119.694 60.8501 108.792 64.1362 89.8225C63.842 88.3818 63.0817 88.2137 61.8556 89.3182C61.5123 89.6064 59.0599 92.5839 54.4986 98.2508C49.9373 103.87 47.1172 107.399 46.0381 108.84C45.842 109.368 45.2534 111.289 44.2725 114.603C43.3406 117.869 42.7766 119.79 42.5804 120.366C41.7956 122.767 40.4959 124.88 38.6812 126.705C36.9155 128.482 34.9537 129.371 32.7956 129.371C31.079 129.371 30.1717 129.082 30.0736 128.506C30.0245 128.218 30 127.786 30 127.209C30 125.673 30.4659 124.304 31.3978 123.103C39.7847 113.162 44.4196 105.911 45.3025 101.348C45.6948 100.964 45.891 98.5869 45.891 94.2167C45.891 89.8465 45.7193 87.6614 45.376 87.6614C45.327 87.6614 45.3025 87.6854 45.3025 87.7334L31.7657 93.2082C31.4714 93.2082 31.2016 93.1122 30.9564 92.9201C30.7602 92.68 30.6621 92.4158 30.6621 92.1277C30.6621 91.5994 31.4959 91.1432 33.1635 90.759L34.1935 90.4708C34.6839 90.2307 35.7629 89.6544 37.4305 88.742C41.158 86.7249 43.782 85.6684 45.3025 85.5723C46.2834 85.5723 46.921 85.8125 47.2153 86.2927C47.5095 86.7249 47.7057 87.0851 47.8038 87.3733C47.951 87.6134 48.049 87.9976 48.0981 88.5258C48.1471 89.0061 48.1717 89.3903 48.1717 89.6784C48.2207 89.9186 48.2207 90.3268 48.1717 90.9031C48.1717 91.4793 48.1717 92.1037 48.1717 92.776C48.1717 93.4003 48.049 95.0331 47.8038 97.6745C47.5586 100.268 47.436 102.405 47.436 104.086C55.7738 93.3763 60.8011 87.2532 62.5177 85.7164C63.2534 85.0441 63.842 84.7079 64.2834 84.7079C64.7738 84.7079 65.1172 84.876 65.3134 85.2122C65.5095 85.5483 65.8283 86.3888 66.2698 87.7334ZM32.7221 127.282C34.0463 127.282 35.3951 126.609 36.7684 125.264C38.1417 123.872 39.1471 122.479 39.7847 121.086L41.109 117.845C41.9428 115.636 42.4332 114.219 42.5804 113.595V113.234C42.4823 113.378 42.0163 113.931 41.1826 114.891C40.3488 115.804 39.6376 116.596 39.049 117.268C38.5095 117.893 37.7984 118.757 36.9155 119.862C36.0327 120.966 35.3215 121.927 34.782 122.743C33.4087 124.76 32.7221 126.273 32.7221 127.282Z" stroke="black" stroke-width="2" mask="url(#path-3-outside-1_343_337)"/>
<path d="M109.749 110.785C108.327 114.339 107.616 117.653 107.616 120.726C107.616 125.817 110.436 128.362 116.076 128.362C117.499 128.17 118.553 127.882 119.24 127.498C119.975 127.113 120.76 126.465 121.594 125.553C122.428 124.592 123.237 123.8 124.022 123.175H124.39C124.144 125.865 123.188 127.69 121.52 128.65C119.902 129.563 117.67 130.019 114.826 130.019C108.695 130.019 105.384 127.498 104.894 122.455C104.649 123.704 103.52 125.168 101.51 126.849C99.5477 128.482 97.782 129.299 96.2125 129.299C96.1144 129.299 95.9918 129.299 95.8447 129.299C92.8038 128.482 91.2834 126.705 91.2834 123.968C91.2834 120.414 93.1717 116.956 96.9482 113.595C99.891 110.953 102.76 109.633 105.556 109.633C107.125 109.633 108.523 110.017 109.749 110.785ZM93.564 123.608C93.564 124.376 93.5886 125 93.6376 125.481C93.7357 125.913 93.9809 126.321 94.3733 126.705C94.8147 127.089 95.4278 127.282 96.2125 127.282C98.3706 127.185 100.529 125.505 102.687 122.239C104.894 118.925 106.071 116.092 106.218 113.739C105.433 112.778 104.354 112.298 102.981 112.298C101.215 112.298 99.376 113.402 97.4632 115.612C95.5504 117.821 94.2507 120.486 93.564 123.608Z" stroke="black" stroke-width="2" mask="url(#path-3-outside-1_343_337)"/>
<path d="M121.741 115.972C121.741 113.33 121.839 110.281 122.035 106.823C122.526 106.823 122.943 107.015 123.286 107.399C123.678 107.736 123.85 108.264 123.801 108.984C123.752 109.705 123.728 111.746 123.728 115.107C123.728 118.469 123.777 120.606 123.875 121.519C124.071 124.304 124.635 125.697 125.567 125.697C126.057 125.697 126.67 125.313 127.406 124.544C129.172 122.623 130.79 119.574 132.262 115.395C132.801 113.763 133.071 112.73 133.071 112.298C133.071 111.818 133.071 111.53 133.071 111.433H134.837C134.935 111.962 135.106 113.426 135.352 115.828C136.038 121.543 136.798 124.856 137.632 125.769C138.76 125.529 139.569 123.992 140.06 121.158C140.55 118.277 140.796 115.948 140.796 114.171L142.193 112.73C142.586 113.979 142.856 114.819 143.003 115.251C143.199 115.684 143.493 116.14 143.886 116.62C144.278 117.1 144.719 117.388 145.21 117.485C145.749 117.581 146.485 117.629 147.417 117.629C149.232 116.476 150.311 115.9 150.654 115.9C151.046 115.9 151.243 115.972 151.243 116.116C151.243 116.788 150.629 117.557 149.403 118.421C148.226 119.237 147.49 119.646 147.196 119.646C146.902 119.646 146.73 119.646 146.681 119.646C144.866 119.646 143.616 119.406 142.929 118.925C142.88 119.117 142.757 119.694 142.561 120.654C142.365 121.615 142.144 122.479 141.899 123.247C141.654 123.968 141.335 124.76 140.943 125.625C140.109 127.546 138.883 128.506 137.264 128.506C136.578 128.506 135.989 128.002 135.499 126.993C134.861 125.793 134.297 124.304 133.807 122.527C133.316 120.702 133.071 119.742 133.071 119.646C129.589 125.793 126.916 128.866 125.052 128.866C122.845 128.866 121.741 124.568 121.741 115.972Z" stroke="black" stroke-width="2" mask="url(#path-3-outside-1_343_337)"/>
<path d="M167.649 110.785C166.226 114.339 165.515 117.653 165.515 120.726C165.515 125.817 168.335 128.362 173.975 128.362C175.398 128.17 176.452 127.882 177.139 127.498C177.875 127.113 178.659 126.465 179.493 125.553C180.327 124.592 181.136 123.8 181.921 123.175H182.289C182.044 125.865 181.087 127.69 179.42 128.65C177.801 129.563 175.569 130.019 172.725 130.019C166.594 130.019 163.283 127.498 162.793 122.455C162.548 123.704 161.42 125.168 159.409 126.849C157.447 128.482 155.681 129.299 154.112 129.299C154.014 129.299 153.891 129.299 153.744 129.299C150.703 128.482 149.183 126.705 149.183 123.968C149.183 120.414 151.071 116.956 154.847 113.595C157.79 110.953 160.659 109.633 163.455 109.633C165.025 109.633 166.422 110.017 167.649 110.785ZM151.463 123.608C151.463 124.376 151.488 125 151.537 125.481C151.635 125.913 151.88 126.321 152.272 126.705C152.714 127.089 153.327 127.282 154.112 127.282C156.27 127.185 158.428 125.505 160.586 122.239C162.793 118.925 163.97 116.092 164.117 113.739C163.332 112.778 162.253 112.298 160.88 112.298C159.114 112.298 157.275 113.402 155.362 115.612C153.45 117.821 152.15 120.486 151.463 123.608Z" stroke="black" stroke-width="2" mask="url(#path-3-outside-1_343_337)"/>
<path d="M178.905 123.464C179.886 120.294 180.94 117.749 182.068 115.828C183.245 113.907 184.643 112.538 186.262 111.722C187.88 110.857 189.352 110.329 190.676 110.137C192 109.897 193.839 109.777 196.193 109.777C196.341 109.2 196.586 108.072 196.929 106.391C197.272 104.662 197.518 103.509 197.665 102.933C197.861 102.309 198.131 101.372 198.474 100.124C199.063 98.0587 199.651 96.4979 200.24 95.4414C200.877 94.3368 201.27 93.6404 201.417 93.3523C201.564 93.0641 201.662 92.872 201.711 92.776C201.809 92.6319 201.932 92.4879 202.079 92.3438C202.275 92.1517 202.594 92.0556 203.035 92.0556C204.556 92.0556 205.316 93.6404 205.316 96.81V97.4584C205.316 99.9556 204.237 103.413 202.079 107.832C199.921 112.202 198.842 115.54 198.842 117.845C198.842 122.983 200.264 125.553 203.109 125.553C204.041 125.553 205.316 125.192 206.935 124.472C208.553 123.752 209.828 123.392 210.76 123.392L211.496 123.464C210.662 124.712 209.411 125.697 207.744 126.417C206.125 127.137 204.777 127.498 203.698 127.498C202.668 127.498 201.956 127.474 201.564 127.426C201.172 127.378 200.804 127.282 200.46 127.137C200.117 126.945 199.823 126.801 199.578 126.705C199.381 126.609 199.136 126.393 198.842 126.057C198.597 125.673 198.401 125.409 198.253 125.264C198.155 125.12 197.984 124.784 197.738 124.256C197.493 123.728 197.322 123.392 197.223 123.247C197.174 123.103 197.003 122.695 196.708 122.023C196.463 121.35 196.292 120.918 196.193 120.726C196.046 120.87 195.482 121.471 194.501 122.527C193.52 123.536 192.834 124.232 192.441 124.616C192.049 124.952 191.362 125.529 190.381 126.345C189.45 127.161 188.665 127.738 188.027 128.074C186.213 129.034 184.594 129.515 183.172 129.515C181.798 129.515 180.793 129.202 180.155 128.578C179.567 127.906 179.199 127.209 179.052 126.489C178.954 125.721 178.905 124.712 178.905 123.464ZM192.221 112.442C189.474 112.442 186.997 113.691 184.79 116.188C182.632 118.685 181.553 121.206 181.553 123.752C181.553 126.249 182.24 127.498 183.613 127.498C185.526 127.498 187.978 126.081 190.97 123.247C194.011 120.366 195.531 117.917 195.531 115.9C195.531 114.699 195.262 113.835 194.722 113.306C194.232 112.73 193.398 112.442 192.221 112.442ZM203.183 95.5134C201.907 97.2423 200.853 99.5714 200.019 102.501C199.234 105.382 198.842 107.808 198.842 109.777C198.842 109.873 198.866 110.089 198.916 110.425L199.578 109.777C200.166 109.2 201.368 105.791 203.183 99.5474L203.256 98.683C203.256 98.1067 203.256 97.7465 203.256 97.6024C203.256 97.4584 203.232 97.0982 203.183 96.5219C203.183 95.9456 203.183 95.6094 203.183 95.5134Z" stroke="black" stroke-width="2" mask="url(#path-3-outside-1_343_337)"/>
<path d="M209.51 123.464C210.49 120.294 211.545 117.749 212.673 115.828C213.85 113.907 215.248 112.538 216.866 111.722C218.485 110.857 219.956 110.329 221.281 110.137C222.605 109.897 224.444 109.777 226.798 109.777C226.946 109.2 227.191 108.072 227.534 106.391C227.877 104.662 228.123 103.509 228.27 102.933C228.466 102.309 228.736 101.372 229.079 100.124C229.668 98.0587 230.256 96.4979 230.845 95.4414C231.482 94.3368 231.875 93.6404 232.022 93.3523C232.169 93.0641 232.267 92.872 232.316 92.776C232.414 92.6319 232.537 92.4879 232.684 92.3438C232.88 92.1517 233.199 92.0556 233.64 92.0556C235.161 92.0556 235.921 93.6404 235.921 96.81V97.4584C235.921 99.9556 234.842 103.413 232.684 107.832C230.526 112.202 229.447 115.54 229.447 117.845C229.447 122.983 230.869 125.553 233.714 125.553C234.646 125.553 235.921 125.192 237.54 124.472C239.158 123.752 240.433 123.392 241.365 123.392L242.101 123.464C241.267 124.712 240.016 125.697 238.349 126.417C236.73 127.137 235.381 127.498 234.302 127.498C233.272 127.498 232.561 127.474 232.169 127.426C231.777 127.378 231.409 127.282 231.065 127.137C230.722 126.945 230.428 126.801 230.183 126.705C229.986 126.609 229.741 126.393 229.447 126.057C229.202 125.673 229.005 125.409 228.858 125.264C228.76 125.12 228.589 124.784 228.343 124.256C228.098 123.728 227.926 123.392 227.828 123.247C227.779 123.103 227.608 122.695 227.313 122.023C227.068 121.35 226.896 120.918 226.798 120.726C226.651 120.87 226.087 121.471 225.106 122.527C224.125 123.536 223.439 124.232 223.046 124.616C222.654 124.952 221.967 125.529 220.986 126.345C220.055 127.161 219.27 127.738 218.632 128.074C216.817 129.034 215.199 129.515 213.777 129.515C212.403 129.515 211.398 129.202 210.76 128.578C210.172 127.906 209.804 127.209 209.657 126.489C209.559 125.721 209.51 124.712 209.51 123.464ZM222.826 112.442C220.079 112.442 217.602 113.691 215.395 116.188C213.237 118.685 212.158 121.206 212.158 123.752C212.158 126.249 212.845 127.498 214.218 127.498C216.131 127.498 218.583 126.081 221.575 123.247C224.616 120.366 226.136 117.917 226.136 115.9C226.136 114.699 225.866 113.835 225.327 113.306C224.837 112.73 224.003 112.442 222.826 112.442ZM233.787 95.5134C232.512 97.2423 231.458 99.5714 230.624 102.501C229.839 105.382 229.447 107.808 229.447 109.777C229.447 109.873 229.471 110.089 229.52 110.425L230.183 109.777C230.771 109.2 231.973 105.791 233.787 99.5474L233.861 98.683C233.861 98.1067 233.861 97.7465 233.861 97.6024C233.861 97.4584 233.837 97.0982 233.787 96.5219C233.787 95.9456 233.787 95.6094 233.787 95.5134Z" stroke="black" stroke-width="2" mask="url(#path-3-outside-1_343_337)"/>
<path d="M258.36 110.785C256.937 114.339 256.226 117.653 256.226 120.726C256.226 125.817 259.046 128.362 264.687 128.362C266.109 128.17 267.163 127.882 267.85 127.498C268.586 127.113 269.371 126.465 270.204 125.553C271.038 124.592 271.847 123.8 272.632 123.175H273C272.755 125.865 271.798 127.69 270.131 128.65C268.512 129.563 266.281 130.019 263.436 130.019C257.305 130.019 253.995 127.498 253.504 122.455C253.259 123.704 252.131 125.168 250.12 126.849C248.158 128.482 246.392 129.299 244.823 129.299C244.725 129.299 244.602 129.299 244.455 129.299C241.414 128.482 239.894 126.705 239.894 123.968C239.894 120.414 241.782 116.956 245.559 113.595C248.501 110.953 251.371 109.633 254.166 109.633C255.736 109.633 257.134 110.017 258.36 110.785ZM242.174 123.608C242.174 124.376 242.199 125 242.248 125.481C242.346 125.913 242.591 126.321 242.984 126.705C243.425 127.089 244.038 127.282 244.823 127.282C246.981 127.185 249.139 125.505 251.297 122.239C253.504 118.925 254.681 116.092 254.828 113.739C254.044 112.778 252.965 112.298 251.591 112.298C249.826 112.298 247.986 113.402 246.074 115.612C244.161 117.821 242.861 120.486 242.174 123.608Z" stroke="black" stroke-width="2" mask="url(#path-3-outside-1_343_337)"/>
</g>
<g filter="url(#filter1_d_343_337)">
<path d="M122.688 148.17C123.453 148.17 124.07 147.951 124.539 147.514C125.013 147.076 125.25 146.493 125.25 145.764V145.428C125.25 144.808 125.047 144.329 124.641 143.99C124.24 143.647 123.711 143.475 123.055 143.475H122.836C122.315 143.475 121.979 143.542 121.828 143.678C121.682 143.813 121.609 144.1 121.609 144.537C121.599 144.641 121.594 144.717 121.594 144.764L121.562 145.303C121.562 145.355 121.562 145.407 121.562 145.459L121.508 146.459L121.5 146.537C121.5 146.589 121.5 146.641 121.5 146.693L121.461 147.373V147.662C121.461 147.99 121.682 148.154 122.125 148.154L122.258 148.17H122.688ZM120.164 153.342C119.518 153.342 119.195 153.094 119.195 152.6C119.195 152.527 119.266 152.287 119.406 151.881C119.552 151.475 119.661 150.85 119.734 150.006C119.807 149.157 119.844 148.402 119.844 147.74L119.867 147.209C119.883 146.855 119.891 146.623 119.891 146.514L119.898 146.342V145.326C119.898 144.378 119.872 143.772 119.82 143.506C119.773 143.24 119.75 143.074 119.75 143.006C119.75 142.787 119.984 142.644 120.453 142.576C121.13 142.477 122.068 142.428 123.266 142.428C125.068 142.428 126.227 142.977 126.742 144.076C126.935 144.482 127.031 144.894 127.031 145.311V145.506C127.031 146.501 126.698 147.316 126.031 147.951C125.724 148.248 125.393 148.475 125.039 148.631C124.69 148.782 124.211 148.92 123.602 149.045C122.148 149.342 121.422 149.917 121.422 150.772C121.422 150.99 121.451 151.24 121.508 151.522C121.565 151.798 121.594 151.993 121.594 152.107C121.594 152.446 121.466 152.738 121.211 152.982C120.961 153.222 120.664 153.342 120.32 153.342H120.164ZM128.797 149.443V148.842C128.797 148.118 128.758 147.589 128.68 147.256C128.602 146.917 128.562 146.68 128.562 146.545C128.562 146.227 128.794 146.068 129.258 146.068C129.721 146.068 130.057 146.154 130.266 146.326C130.323 146.373 130.396 146.464 130.484 146.6C130.578 146.735 130.661 146.803 130.734 146.803C130.75 146.803 130.977 146.67 131.414 146.404C131.852 146.139 132.227 146.006 132.539 146.006H132.656C132.911 146.006 133.115 146.068 133.266 146.193C133.417 146.313 133.492 146.462 133.492 146.639V146.74C133.492 146.954 133.417 147.107 133.266 147.201C133.12 147.295 132.885 147.342 132.562 147.342C131.828 147.342 131.292 147.6 130.953 148.115C130.62 148.631 130.453 149.542 130.453 150.85C130.453 151.037 130.484 151.326 130.547 151.717C130.615 152.107 130.648 152.402 130.648 152.6C130.648 152.798 130.542 152.988 130.328 153.17C130.115 153.352 129.844 153.443 129.516 153.443H129.25C128.964 153.443 128.742 153.376 128.586 153.24C128.435 153.1 128.359 152.93 128.359 152.732C128.359 152.529 128.396 152.324 128.469 152.115C128.667 151.553 128.766 150.933 128.766 150.256C128.786 149.881 128.797 149.61 128.797 149.443ZM136.086 148.756V148.881C136.086 149.037 136.229 149.115 136.516 149.115H136.703L136.75 149.107L137.133 149.076C137.534 149.019 137.794 148.99 137.914 148.99C138.482 148.99 138.909 148.884 139.195 148.67C139.331 148.566 139.398 148.381 139.398 148.115V148.029C139.398 147.639 139.268 147.329 139.008 147.1C138.753 146.871 138.445 146.756 138.086 146.756H138.031L137.984 146.764C137.479 146.764 137.036 146.977 136.656 147.404C136.276 147.831 136.086 148.282 136.086 148.756ZM137.789 153.607H137.617C136.622 153.607 135.831 153.292 135.242 152.662C134.654 152.027 134.359 151.18 134.359 150.123V149.779C134.359 149.274 134.458 148.761 134.656 148.24C135.057 147.199 135.711 146.48 136.617 146.084C137.096 145.871 137.583 145.764 138.078 145.764H138.414C139.096 145.764 139.672 145.993 140.141 146.451C140.615 146.904 140.852 147.49 140.852 148.209V148.365C140.852 148.876 140.648 149.238 140.242 149.451C139.961 149.602 139.305 149.753 138.273 149.904C137.242 150.055 136.68 150.147 136.586 150.178C136.273 150.287 136.117 150.496 136.117 150.803C136.117 151.23 136.299 151.594 136.664 151.897C137.029 152.199 137.518 152.35 138.133 152.35C138.419 152.35 138.81 152.272 139.305 152.115C139.799 151.959 140.086 151.881 140.164 151.881C140.43 151.881 140.562 151.996 140.562 152.225C140.562 152.532 140.263 152.839 139.664 153.147C139.065 153.454 138.44 153.607 137.789 153.607ZM147.195 148.748V149.029C147.195 149.394 147.102 149.597 146.914 149.639C146.732 149.68 146.005 149.701 144.734 149.701H144.562L144.383 149.709H144.039L143.984 149.717H143.523L143.289 149.725H142.945C142.659 149.725 142.516 149.589 142.516 149.318V149.264L142.523 149.209C142.523 148.808 142.633 148.581 142.852 148.529C142.987 148.498 143.677 148.482 144.922 148.482L146.258 148.459H146.828C147.073 148.459 147.195 148.555 147.195 148.748ZM149.953 144.725L149.82 143.326C149.82 143.217 149.891 143.107 150.031 142.998C150.172 142.884 150.38 142.826 150.656 142.826C151.286 142.826 151.794 143.115 152.18 143.693C152.57 144.272 153.174 145.584 153.992 147.631C154.346 148.496 154.555 148.985 154.617 149.1L154.789 149.326C154.904 149.326 155.414 148.477 156.32 146.779C157.227 145.076 157.792 144.068 158.016 143.756C158.464 143.131 159.034 142.818 159.727 142.818C160.216 142.818 160.461 142.998 160.461 143.357L160.414 143.615L160.344 143.928C160.286 144.246 160.247 144.954 160.227 146.053C160.206 147.147 160.174 148.246 160.133 149.35L160.094 150.584C160.094 151.11 160.122 151.48 160.18 151.693L160.289 151.998C160.393 152.279 160.445 152.49 160.445 152.631C160.445 152.766 160.37 152.894 160.219 153.014C160.068 153.134 159.898 153.193 159.711 153.193H159.414C159.148 153.193 158.909 153.087 158.695 152.873C158.482 152.66 158.375 152.436 158.375 152.201C158.375 151.962 158.398 151.605 158.445 151.131C158.497 150.657 158.523 149.644 158.523 148.092C158.523 146.535 158.477 145.756 158.383 145.756C158.242 145.756 157.755 146.641 156.922 148.412C156.094 150.183 155.565 151.24 155.336 151.584C155.107 151.928 154.852 152.1 154.57 152.1C154.294 152.1 154.055 151.904 153.852 151.514C153.773 151.363 153.404 150.373 152.742 148.545C152.086 146.712 151.68 145.795 151.523 145.795C151.456 145.795 151.391 145.886 151.328 146.068C151.271 146.246 151.164 147.068 151.008 148.537C150.857 150.006 150.781 150.996 150.781 151.506C150.781 152.011 150.698 152.391 150.531 152.647C150.365 152.897 150.076 153.022 149.664 153.022C149.253 153.022 149.047 152.824 149.047 152.428C149.047 152.376 149.122 152.152 149.273 151.756C149.424 151.36 149.526 150.92 149.578 150.436C149.828 148.139 149.953 146.235 149.953 144.725ZM165.047 152.522H165.25C165.677 152.522 166.052 152.378 166.375 152.092C166.703 151.8 166.867 151.464 166.867 151.084L166.883 150.982V150.881L166.898 150.639V150.193C166.898 149.891 166.745 149.74 166.438 149.74H166.086L166.031 149.748L165.727 149.772C165.581 149.792 165.477 149.803 165.414 149.803C164.992 149.803 164.602 149.962 164.242 150.279C163.992 150.503 163.867 150.821 163.867 151.232V151.389C163.867 151.738 163.979 152.014 164.203 152.217C164.432 152.42 164.714 152.522 165.047 152.522ZM163.305 147.529C162.956 147.529 162.781 147.305 162.781 146.857C162.781 146.524 163.062 146.235 163.625 145.99C164.193 145.74 164.781 145.615 165.391 145.615H165.781C166.307 145.615 166.771 145.714 167.172 145.912C167.573 146.105 167.878 146.368 168.086 146.701C168.299 147.035 168.43 147.469 168.477 148.006C168.487 148.131 168.492 148.738 168.492 149.826C168.492 150.915 168.505 151.542 168.531 151.709C168.562 151.871 168.646 152.068 168.781 152.303C168.922 152.537 168.992 152.73 168.992 152.881C168.992 153.032 168.919 153.162 168.773 153.272C168.633 153.376 168.427 153.428 168.156 153.428C167.885 153.428 167.591 153.363 167.273 153.232C166.956 153.097 166.724 153.029 166.578 153.029C166.562 153.029 166.302 153.123 165.797 153.311C165.292 153.493 164.865 153.584 164.516 153.584H164.344C163.76 153.584 163.263 153.399 162.852 153.029C162.445 152.66 162.242 152.134 162.242 151.451C162.242 150.769 162.466 150.238 162.914 149.857C163.362 149.472 163.906 149.209 164.547 149.068C164.74 149.027 165.06 148.972 165.508 148.904C165.956 148.837 166.26 148.766 166.422 148.693C166.703 148.563 166.844 148.318 166.844 147.959C166.844 147.594 166.724 147.311 166.484 147.107C166.245 146.899 165.958 146.795 165.625 146.795C165.297 146.795 164.865 146.917 164.328 147.162C163.792 147.407 163.451 147.529 163.305 147.529ZM171.312 149.443V148.842C171.312 148.118 171.273 147.589 171.195 147.256C171.117 146.917 171.078 146.68 171.078 146.545C171.078 146.227 171.31 146.068 171.773 146.068C172.237 146.068 172.573 146.154 172.781 146.326C172.839 146.373 172.911 146.464 173 146.6C173.094 146.735 173.177 146.803 173.25 146.803C173.266 146.803 173.492 146.67 173.93 146.404C174.367 146.139 174.742 146.006 175.055 146.006H175.172C175.427 146.006 175.63 146.068 175.781 146.193C175.932 146.313 176.008 146.462 176.008 146.639V146.74C176.008 146.954 175.932 147.107 175.781 147.201C175.635 147.295 175.401 147.342 175.078 147.342C174.344 147.342 173.807 147.6 173.469 148.115C173.135 148.631 172.969 149.542 172.969 150.85C172.969 151.037 173 151.326 173.062 151.717C173.13 152.107 173.164 152.402 173.164 152.6C173.164 152.798 173.057 152.988 172.844 153.17C172.63 153.352 172.359 153.443 172.031 153.443H171.766C171.479 153.443 171.258 153.376 171.102 153.24C170.951 153.1 170.875 152.93 170.875 152.732C170.875 152.529 170.911 152.324 170.984 152.115C171.182 151.553 171.281 150.933 171.281 150.256C171.302 149.881 171.312 149.61 171.312 149.443ZM177.766 149.443V148.842C177.766 148.118 177.727 147.589 177.648 147.256C177.57 146.917 177.531 146.68 177.531 146.545C177.531 146.227 177.763 146.068 178.227 146.068C178.69 146.068 179.026 146.154 179.234 146.326C179.292 146.373 179.365 146.464 179.453 146.6C179.547 146.735 179.63 146.803 179.703 146.803C179.719 146.803 179.945 146.67 180.383 146.404C180.82 146.139 181.195 146.006 181.508 146.006H181.625C181.88 146.006 182.083 146.068 182.234 146.193C182.385 146.313 182.461 146.462 182.461 146.639V146.74C182.461 146.954 182.385 147.107 182.234 147.201C182.089 147.295 181.854 147.342 181.531 147.342C180.797 147.342 180.26 147.6 179.922 148.115C179.589 148.631 179.422 149.542 179.422 150.85C179.422 151.037 179.453 151.326 179.516 151.717C179.583 152.107 179.617 152.402 179.617 152.6C179.617 152.798 179.51 152.988 179.297 153.17C179.083 153.352 178.812 153.443 178.484 153.443H178.219C177.932 153.443 177.711 153.376 177.555 153.24C177.404 153.1 177.328 152.93 177.328 152.732C177.328 152.529 177.365 152.324 177.438 152.115C177.635 151.553 177.734 150.933 177.734 150.256C177.755 149.881 177.766 149.61 177.766 149.443ZM186.266 143.35V143.443C186.266 143.709 186.188 143.936 186.031 144.123C185.88 144.305 185.646 144.397 185.328 144.397H185.203L184.961 144.365C184.82 144.365 184.685 144.3 184.555 144.17C184.424 144.04 184.359 143.844 184.359 143.584V143.49L184.398 143.209C184.398 143.1 184.464 142.964 184.594 142.803C184.729 142.641 184.901 142.561 185.109 142.561L185.289 142.537H185.445L185.664 142.568C185.799 142.568 185.932 142.636 186.062 142.772C186.198 142.902 186.266 143.094 186.266 143.35ZM185.898 146.647L185.812 148.748L185.797 148.959L185.773 149.6V149.904C185.773 150.654 185.794 151.147 185.836 151.381C185.883 151.615 185.969 151.844 186.094 152.068C186.219 152.287 186.281 152.446 186.281 152.545V152.615C186.281 152.871 186.151 153.074 185.891 153.225C185.63 153.376 185.276 153.451 184.828 153.451H184.633C184.372 153.451 184.174 153.394 184.039 153.279C183.904 153.16 183.836 153.032 183.836 152.897V152.725C183.836 152.657 183.896 152.417 184.016 152.006C184.135 151.589 184.195 151.024 184.195 150.311C184.211 150.107 184.219 149.967 184.219 149.889L184.242 149.459L184.258 149.248C184.284 148.884 184.297 148.6 184.297 148.397L184.305 148.084C184.305 147.693 184.24 147.347 184.109 147.045C183.984 146.743 183.922 146.555 183.922 146.482C183.922 146.107 184.276 145.92 184.984 145.92H185.266C185.531 145.92 185.703 145.99 185.781 146.131C185.859 146.266 185.898 146.438 185.898 146.647ZM190.703 152.522H190.906C191.333 152.522 191.708 152.378 192.031 152.092C192.359 151.8 192.523 151.464 192.523 151.084L192.539 150.982V150.881L192.555 150.639V150.193C192.555 149.891 192.401 149.74 192.094 149.74H191.742L191.688 149.748L191.383 149.772C191.237 149.792 191.133 149.803 191.07 149.803C190.648 149.803 190.258 149.962 189.898 150.279C189.648 150.503 189.523 150.821 189.523 151.232V151.389C189.523 151.738 189.635 152.014 189.859 152.217C190.089 152.42 190.37 152.522 190.703 152.522ZM188.961 147.529C188.612 147.529 188.438 147.305 188.438 146.857C188.438 146.524 188.719 146.235 189.281 145.99C189.849 145.74 190.438 145.615 191.047 145.615H191.438C191.964 145.615 192.427 145.714 192.828 145.912C193.229 146.105 193.534 146.368 193.742 146.701C193.956 147.035 194.086 147.469 194.133 148.006C194.143 148.131 194.148 148.738 194.148 149.826C194.148 150.915 194.161 151.542 194.188 151.709C194.219 151.871 194.302 152.068 194.438 152.303C194.578 152.537 194.648 152.73 194.648 152.881C194.648 153.032 194.576 153.162 194.43 153.272C194.289 153.376 194.083 153.428 193.812 153.428C193.542 153.428 193.247 153.363 192.93 153.232C192.612 153.097 192.38 153.029 192.234 153.029C192.219 153.029 191.958 153.123 191.453 153.311C190.948 153.493 190.521 153.584 190.172 153.584H190C189.417 153.584 188.919 153.399 188.508 153.029C188.102 152.66 187.898 152.134 187.898 151.451C187.898 150.769 188.122 150.238 188.57 149.857C189.018 149.472 189.562 149.209 190.203 149.068C190.396 149.027 190.716 148.972 191.164 148.904C191.612 148.837 191.917 148.766 192.078 148.693C192.359 148.563 192.5 148.318 192.5 147.959C192.5 147.594 192.38 147.311 192.141 147.107C191.901 146.899 191.615 146.795 191.281 146.795C190.953 146.795 190.521 146.917 189.984 147.162C189.448 147.407 189.107 147.529 188.961 147.529ZM197.852 149.889V150.131C197.852 150.829 197.984 151.376 198.25 151.772C198.516 152.167 198.849 152.365 199.25 152.365H199.523C200.102 152.365 200.552 152.123 200.875 151.639C201.198 151.149 201.359 150.464 201.359 149.584C201.37 149.48 201.375 149.399 201.375 149.342L201.391 149.022V148.553C201.38 148.449 201.375 148.371 201.375 148.318C201.375 147.907 201.276 147.584 201.078 147.35C200.88 147.115 200.589 146.998 200.203 146.998H199.984C199.37 146.998 198.859 147.256 198.453 147.772C198.052 148.287 197.852 148.993 197.852 149.889ZM202.391 146.357C202.844 146.357 203.07 146.686 203.07 147.342C203.07 147.514 203 148.232 202.859 149.498C202.719 150.764 202.648 151.839 202.648 152.725C202.648 153.621 202.589 154.292 202.469 154.74C202.214 155.704 201.622 156.386 200.695 156.787C200.211 156.996 199.674 157.1 199.086 157.1C198.503 157.1 197.982 156.996 197.523 156.787C197.07 156.579 196.844 156.329 196.844 156.037C196.844 155.704 197.068 155.537 197.516 155.537C197.604 155.537 197.844 155.571 198.234 155.639C198.625 155.706 198.906 155.74 199.078 155.74C199.708 155.74 200.224 155.542 200.625 155.147C201.031 154.756 201.234 154.253 201.234 153.639C201.234 153.316 201.115 153.154 200.875 153.154C200.833 153.154 200.734 153.17 200.578 153.201C200.135 153.29 199.732 153.334 199.367 153.334C198.44 153.334 197.742 153.053 197.273 152.49C197.055 152.23 196.867 151.884 196.711 151.451C196.56 151.014 196.484 150.553 196.484 150.068V149.85C196.484 149.339 196.568 148.837 196.734 148.342C196.906 147.842 197.133 147.423 197.414 147.084C197.695 146.74 198.062 146.472 198.516 146.279C198.969 146.087 199.432 145.99 199.906 145.99H200.109C200.375 145.99 200.716 146.063 201.133 146.209C201.555 146.35 201.812 146.42 201.906 146.42C202.115 146.378 202.276 146.357 202.391 146.357ZM206.539 148.756V148.881C206.539 149.037 206.682 149.115 206.969 149.115H207.156L207.203 149.107L207.586 149.076C207.987 149.019 208.247 148.99 208.367 148.99C208.935 148.99 209.362 148.884 209.648 148.67C209.784 148.566 209.852 148.381 209.852 148.115V148.029C209.852 147.639 209.721 147.329 209.461 147.1C209.206 146.871 208.898 146.756 208.539 146.756H208.484L208.438 146.764C207.932 146.764 207.49 146.977 207.109 147.404C206.729 147.831 206.539 148.282 206.539 148.756ZM208.242 153.607H208.07C207.076 153.607 206.284 153.292 205.695 152.662C205.107 152.027 204.812 151.18 204.812 150.123V149.779C204.812 149.274 204.911 148.761 205.109 148.24C205.51 147.199 206.164 146.48 207.07 146.084C207.549 145.871 208.036 145.764 208.531 145.764H208.867C209.549 145.764 210.125 145.993 210.594 146.451C211.068 146.904 211.305 147.49 211.305 148.209V148.365C211.305 148.876 211.102 149.238 210.695 149.451C210.414 149.602 209.758 149.753 208.727 149.904C207.695 150.055 207.133 150.147 207.039 150.178C206.727 150.287 206.57 150.496 206.57 150.803C206.57 151.23 206.753 151.594 207.117 151.897C207.482 152.199 207.971 152.35 208.586 152.35C208.872 152.35 209.263 152.272 209.758 152.115C210.253 151.959 210.539 151.881 210.617 151.881C210.883 151.881 211.016 151.996 211.016 152.225C211.016 152.532 210.716 152.839 210.117 153.147C209.518 153.454 208.893 153.607 208.242 153.607ZM217.367 148.311C217.372 147.472 217.5 146.691 217.75 145.967C218.26 144.509 219.156 143.493 220.438 142.92C221.12 142.613 221.924 142.459 222.852 142.459C223.784 142.459 224.503 142.574 225.008 142.803C225.232 142.902 225.422 143.063 225.578 143.287C225.74 143.506 225.82 143.725 225.82 143.943C225.82 144.157 225.763 144.331 225.648 144.467C225.534 144.597 225.443 144.662 225.375 144.662C225.307 144.662 224.961 144.522 224.336 144.24C223.716 143.964 223.164 143.826 222.68 143.826H222.656C221.667 143.826 220.865 144.167 220.25 144.85C219.896 145.24 219.63 145.73 219.453 146.318C219.276 146.912 219.185 147.522 219.18 148.147C219.18 150.094 219.797 151.331 221.031 151.857C221.427 152.029 221.872 152.115 222.367 152.115C222.862 152.115 223.284 151.969 223.633 151.678C223.987 151.381 224.164 150.936 224.164 150.342C224.164 149.936 223.964 149.519 223.562 149.092C223.438 148.956 223.375 148.855 223.375 148.787C223.375 148.579 223.643 148.475 224.18 148.475C224.721 148.475 225.151 148.529 225.469 148.639C225.786 148.748 225.945 148.907 225.945 149.115C225.945 149.579 225.878 150.23 225.742 151.068C225.612 151.907 225.495 152.412 225.391 152.584C225.219 152.871 224.901 153.092 224.438 153.248C223.625 153.524 222.948 153.662 222.406 153.662H222.125C221.453 153.662 220.828 153.542 220.25 153.303C219.052 152.798 218.221 151.92 217.758 150.67C217.497 149.967 217.367 149.285 217.367 148.623V148.311ZM228.086 146.482C228.086 146.154 228.362 145.99 228.914 145.99H229.094C229.438 145.99 229.669 146.128 229.789 146.404C229.909 146.68 229.969 147.196 229.969 147.951L229.875 150.561C229.875 151.774 230.31 152.381 231.18 152.381C231.497 152.381 231.802 152.269 232.094 152.045C232.385 151.821 232.602 151.553 232.742 151.24C233.049 150.553 233.203 149.321 233.203 147.545L233.188 147.201V146.897C233.188 146.621 233.25 146.42 233.375 146.295C233.5 146.17 233.719 146.107 234.031 146.107C234.344 146.107 234.549 146.183 234.648 146.334C234.747 146.485 234.797 146.73 234.797 147.068L234.781 147.482L234.75 149.326C234.75 149.623 234.768 150.079 234.805 150.693C234.841 151.308 234.88 151.759 234.922 152.045C234.964 152.326 234.984 152.493 234.984 152.545C234.984 153.009 234.643 153.24 233.961 153.24C233.727 153.24 233.492 153.154 233.258 152.982C233.029 152.805 232.865 152.717 232.766 152.717C232.672 152.717 232.51 152.774 232.281 152.889C231.63 153.217 231.076 153.381 230.617 153.381H230.422C229.677 153.381 229.13 153.152 228.781 152.693C228.432 152.235 228.258 151.41 228.258 150.217L228.336 147.85C228.336 147.553 228.294 147.269 228.211 146.998C228.128 146.727 228.086 146.555 228.086 146.482ZM239.469 143.35V143.443C239.469 143.709 239.391 143.936 239.234 144.123C239.083 144.305 238.849 144.397 238.531 144.397H238.406L238.164 144.365C238.023 144.365 237.888 144.3 237.758 144.17C237.628 144.04 237.562 143.844 237.562 143.584V143.49L237.602 143.209C237.602 143.1 237.667 142.964 237.797 142.803C237.932 142.641 238.104 142.561 238.312 142.561L238.492 142.537H238.648L238.867 142.568C239.003 142.568 239.135 142.636 239.266 142.772C239.401 142.902 239.469 143.094 239.469 143.35ZM239.102 146.647L239.016 148.748L239 148.959L238.977 149.6V149.904C238.977 150.654 238.997 151.147 239.039 151.381C239.086 151.615 239.172 151.844 239.297 152.068C239.422 152.287 239.484 152.446 239.484 152.545V152.615C239.484 152.871 239.354 153.074 239.094 153.225C238.833 153.376 238.479 153.451 238.031 153.451H237.836C237.576 153.451 237.378 153.394 237.242 153.279C237.107 153.16 237.039 153.032 237.039 152.897V152.725C237.039 152.657 237.099 152.417 237.219 152.006C237.339 151.589 237.398 151.024 237.398 150.311C237.414 150.107 237.422 149.967 237.422 149.889L237.445 149.459L237.461 149.248C237.487 148.884 237.5 148.6 237.5 148.397L237.508 148.084C237.508 147.693 237.443 147.347 237.312 147.045C237.188 146.743 237.125 146.555 237.125 146.482C237.125 146.107 237.479 145.92 238.188 145.92H238.469C238.734 145.92 238.906 145.99 238.984 146.131C239.062 146.266 239.102 146.438 239.102 146.647ZM242.758 149.717V150.311C242.758 150.93 242.898 151.449 243.18 151.865C243.466 152.277 243.802 152.482 244.188 152.482H244.406C245 152.482 245.458 152.246 245.781 151.772C246.109 151.298 246.273 150.592 246.273 149.654C246.284 149.54 246.289 149.456 246.289 149.404L246.305 149.248L246.312 148.92V148.365C246.312 147.303 245.888 146.772 245.039 146.772H244.734C244.182 146.772 243.714 147.05 243.328 147.607C242.948 148.165 242.758 148.868 242.758 149.717ZM241.258 150.076C241.258 149.535 241.354 148.982 241.547 148.42C241.74 147.857 242.01 147.378 242.359 146.982C242.708 146.581 243.102 146.292 243.539 146.115C243.977 145.933 244.495 145.842 245.094 145.842C245.698 145.842 246.073 145.732 246.219 145.514C246.365 145.29 246.438 144.798 246.438 144.037C246.438 143.897 246.414 143.709 246.367 143.475C246.32 143.24 246.297 143.105 246.297 143.068C246.297 142.844 246.393 142.641 246.586 142.459C246.779 142.272 247.031 142.178 247.344 142.178H247.5C247.745 142.178 247.927 142.235 248.047 142.35C248.167 142.464 248.227 142.704 248.227 143.068V143.795L248.211 144.162C248.206 144.287 248.203 144.469 248.203 144.709C248.203 144.943 248.164 145.699 248.086 146.975C248.008 148.251 247.969 149.128 247.969 149.607L247.961 149.795C247.956 149.92 247.953 150.04 247.953 150.154L247.945 150.334C247.945 150.334 247.945 150.537 247.945 150.943C247.945 151.469 247.987 151.865 248.07 152.131C248.154 152.397 248.195 152.587 248.195 152.701C248.195 152.816 248.13 152.936 248 153.061C247.87 153.186 247.667 153.248 247.391 153.248C247.12 153.248 246.857 153.204 246.602 153.115C246.346 153.022 246.159 152.975 246.039 152.975C245.919 152.975 245.763 153.011 245.57 153.084C244.987 153.298 244.453 153.404 243.969 153.404C243.958 153.404 243.948 153.404 243.938 153.404H243.758C242.971 153.404 242.357 153.118 241.914 152.545C241.477 151.967 241.258 151.209 241.258 150.272V150.076ZM251.648 148.756V148.881C251.648 149.037 251.792 149.115 252.078 149.115H252.266L252.312 149.107L252.695 149.076C253.096 149.019 253.357 148.99 253.477 148.99C254.044 148.99 254.471 148.884 254.758 148.67C254.893 148.566 254.961 148.381 254.961 148.115V148.029C254.961 147.639 254.831 147.329 254.57 147.1C254.315 146.871 254.008 146.756 253.648 146.756H253.594L253.547 146.764C253.042 146.764 252.599 146.977 252.219 147.404C251.839 147.831 251.648 148.282 251.648 148.756ZM253.352 153.607H253.18C252.185 153.607 251.393 153.292 250.805 152.662C250.216 152.027 249.922 151.18 249.922 150.123V149.779C249.922 149.274 250.021 148.761 250.219 148.24C250.62 147.199 251.273 146.48 252.18 146.084C252.659 145.871 253.146 145.764 253.641 145.764H253.977C254.659 145.764 255.234 145.993 255.703 146.451C256.177 146.904 256.414 147.49 256.414 148.209V148.365C256.414 148.876 256.211 149.238 255.805 149.451C255.523 149.602 254.867 149.753 253.836 149.904C252.805 150.055 252.242 150.147 252.148 150.178C251.836 150.287 251.68 150.496 251.68 150.803C251.68 151.23 251.862 151.594 252.227 151.897C252.591 152.199 253.081 152.35 253.695 152.35C253.982 152.35 254.372 152.272 254.867 152.115C255.362 151.959 255.648 151.881 255.727 151.881C255.992 151.881 256.125 151.996 256.125 152.225C256.125 152.532 255.826 152.839 255.227 153.147C254.628 153.454 254.003 153.607 253.352 153.607ZM258.664 149.147C258.346 148.824 258.188 148.371 258.188 147.787C258.188 147.204 258.448 146.704 258.969 146.287C259.49 145.865 260.135 145.654 260.906 145.654H261.109C261.792 145.654 262.333 145.751 262.734 145.943C263.141 146.136 263.344 146.425 263.344 146.811C263.344 147.191 263.174 147.381 262.836 147.381C262.747 147.381 262.497 147.277 262.086 147.068C261.674 146.855 261.286 146.748 260.922 146.748C260.557 146.748 260.263 146.831 260.039 146.998C259.82 147.16 259.711 147.384 259.711 147.67C259.711 147.956 259.865 148.206 260.172 148.42C260.349 148.545 260.766 148.743 261.422 149.014C262.083 149.285 262.555 149.545 262.836 149.795C263.289 150.196 263.516 150.709 263.516 151.334C263.516 151.959 263.25 152.496 262.719 152.943C262.188 153.386 261.497 153.607 260.648 153.607H260.445C259.591 153.607 258.951 153.485 258.523 153.24C258.096 152.99 257.883 152.667 257.883 152.272C257.883 151.871 258.049 151.67 258.383 151.67C258.492 151.67 258.776 151.811 259.234 152.092C259.698 152.373 260.151 152.514 260.594 152.514C261.042 152.514 261.378 152.42 261.602 152.232C261.826 152.04 261.938 151.8 261.938 151.514C261.938 151.222 261.797 150.967 261.516 150.748C261.365 150.628 260.932 150.412 260.219 150.1C259.505 149.782 258.987 149.464 258.664 149.147ZM120.172 173.076H119.992C119.732 173.076 119.51 173.001 119.328 172.85C119.151 172.699 119.062 172.519 119.062 172.311C119.062 172.102 119.125 171.837 119.25 171.514C119.38 171.186 119.474 170.787 119.531 170.318C119.594 169.844 119.625 169.152 119.625 168.24C119.625 167.329 119.581 166.748 119.492 166.498C119.477 166.456 119.404 166.318 119.273 166.084C119.143 165.844 119.078 165.641 119.078 165.475C119.078 165.308 119.164 165.094 119.336 164.834C119.513 164.574 119.63 164.381 119.688 164.256C120.391 162.772 120.758 162.011 120.789 161.975C121.331 161.344 122.062 161.029 122.984 161.029C123.411 161.029 123.74 161.102 123.969 161.248C124.198 161.394 124.312 161.584 124.312 161.818C124.312 162.048 124.177 162.214 123.906 162.318C123.833 162.344 123.737 162.357 123.617 162.357C123.529 162.352 123.427 162.344 123.312 162.334C123.042 162.303 122.844 162.287 122.719 162.287C122.38 162.287 122.104 162.433 121.891 162.725C121.682 163.011 121.578 163.342 121.578 163.717C121.578 164.092 121.654 164.365 121.805 164.537C121.852 164.589 122.073 164.719 122.469 164.928C122.87 165.131 123.07 165.337 123.07 165.545C123.07 165.66 122.846 165.837 122.398 166.076C122.081 166.243 121.846 166.54 121.695 166.967C121.367 167.884 121.203 169.089 121.203 170.584L121.352 171.904C121.352 172.264 121.245 172.548 121.031 172.756C120.823 172.969 120.536 173.076 120.172 173.076ZM126.039 169.209C126.039 169.891 126.195 170.459 126.508 170.912C126.82 171.365 127.203 171.592 127.656 171.592H127.891C128.427 171.592 128.88 171.321 129.25 170.779C129.625 170.238 129.812 169.516 129.812 168.615V168.1C129.812 167.402 129.659 166.831 129.352 166.389C129.049 165.941 128.659 165.717 128.18 165.717H128.023C127.466 165.717 126.997 165.993 126.617 166.545C126.242 167.097 126.055 167.756 126.055 168.522L126.039 168.701V169.209ZM127.805 172.654H127.555C126.643 172.654 125.901 172.337 125.328 171.701C124.755 171.066 124.469 170.165 124.469 168.998L124.477 168.865C124.477 167.584 124.815 166.574 125.492 165.834C125.846 165.443 126.25 165.157 126.703 164.975C127.161 164.787 127.596 164.693 128.008 164.693H128.391C128.849 164.693 129.289 164.795 129.711 164.998C130.919 165.581 131.523 166.68 131.523 168.295V168.42C131.518 168.946 131.432 169.48 131.266 170.022C130.932 171.089 130.292 171.844 129.344 172.287C128.818 172.532 128.305 172.654 127.805 172.654ZM133.641 168.443V167.842C133.641 167.118 133.602 166.589 133.523 166.256C133.445 165.917 133.406 165.68 133.406 165.545C133.406 165.227 133.638 165.068 134.102 165.068C134.565 165.068 134.901 165.154 135.109 165.326C135.167 165.373 135.24 165.464 135.328 165.6C135.422 165.735 135.505 165.803 135.578 165.803C135.594 165.803 135.82 165.67 136.258 165.404C136.695 165.139 137.07 165.006 137.383 165.006H137.5C137.755 165.006 137.958 165.068 138.109 165.193C138.26 165.313 138.336 165.462 138.336 165.639V165.74C138.336 165.954 138.26 166.107 138.109 166.201C137.964 166.295 137.729 166.342 137.406 166.342C136.672 166.342 136.135 166.6 135.797 167.115C135.464 167.631 135.297 168.542 135.297 169.85C135.297 170.037 135.328 170.326 135.391 170.717C135.458 171.107 135.492 171.402 135.492 171.6C135.492 171.798 135.385 171.988 135.172 172.17C134.958 172.352 134.688 172.443 134.359 172.443H134.094C133.807 172.443 133.586 172.376 133.43 172.24C133.279 172.1 133.203 171.93 133.203 171.732C133.203 171.529 133.24 171.324 133.312 171.115C133.51 170.553 133.609 169.933 133.609 169.256C133.63 168.881 133.641 168.61 133.641 168.443ZM145.016 163.725L144.883 162.326C144.883 162.217 144.953 162.107 145.094 161.998C145.234 161.884 145.443 161.826 145.719 161.826C146.349 161.826 146.857 162.115 147.242 162.693C147.633 163.272 148.237 164.584 149.055 166.631C149.409 167.496 149.617 167.985 149.68 168.1L149.852 168.326C149.966 168.326 150.477 167.477 151.383 165.779C152.289 164.076 152.854 163.068 153.078 162.756C153.526 162.131 154.096 161.818 154.789 161.818C155.279 161.818 155.523 161.998 155.523 162.357L155.477 162.615L155.406 162.928C155.349 163.246 155.31 163.954 155.289 165.053C155.268 166.147 155.237 167.246 155.195 168.35L155.156 169.584C155.156 170.11 155.185 170.48 155.242 170.693L155.352 170.998C155.456 171.279 155.508 171.49 155.508 171.631C155.508 171.766 155.432 171.894 155.281 172.014C155.13 172.134 154.961 172.193 154.773 172.193H154.477C154.211 172.193 153.971 172.087 153.758 171.873C153.544 171.66 153.438 171.436 153.438 171.201C153.438 170.962 153.461 170.605 153.508 170.131C153.56 169.657 153.586 168.644 153.586 167.092C153.586 165.535 153.539 164.756 153.445 164.756C153.305 164.756 152.818 165.641 151.984 167.412C151.156 169.183 150.628 170.24 150.398 170.584C150.169 170.928 149.914 171.1 149.633 171.1C149.357 171.1 149.117 170.904 148.914 170.514C148.836 170.363 148.466 169.373 147.805 167.545C147.148 165.712 146.742 164.795 146.586 164.795C146.518 164.795 146.453 164.886 146.391 165.068C146.333 165.246 146.227 166.068 146.07 167.537C145.919 169.006 145.844 169.996 145.844 170.506C145.844 171.011 145.76 171.391 145.594 171.647C145.427 171.897 145.138 172.022 144.727 172.022C144.315 172.022 144.109 171.824 144.109 171.428C144.109 171.376 144.185 171.152 144.336 170.756C144.487 170.36 144.589 169.92 144.641 169.436C144.891 167.139 145.016 165.235 145.016 163.725ZM157.633 165.482C157.633 165.154 157.909 164.99 158.461 164.99H158.641C158.984 164.99 159.216 165.128 159.336 165.404C159.456 165.68 159.516 166.196 159.516 166.951L159.422 169.561C159.422 170.774 159.857 171.381 160.727 171.381C161.044 171.381 161.349 171.269 161.641 171.045C161.932 170.821 162.148 170.553 162.289 170.24C162.596 169.553 162.75 168.321 162.75 166.545L162.734 166.201V165.897C162.734 165.621 162.797 165.42 162.922 165.295C163.047 165.17 163.266 165.107 163.578 165.107C163.891 165.107 164.096 165.183 164.195 165.334C164.294 165.485 164.344 165.73 164.344 166.068L164.328 166.482L164.297 168.326C164.297 168.623 164.315 169.079 164.352 169.693C164.388 170.308 164.427 170.759 164.469 171.045C164.51 171.326 164.531 171.493 164.531 171.545C164.531 172.009 164.19 172.24 163.508 172.24C163.273 172.24 163.039 172.154 162.805 171.982C162.576 171.805 162.411 171.717 162.312 171.717C162.219 171.717 162.057 171.774 161.828 171.889C161.177 172.217 160.622 172.381 160.164 172.381H159.969C159.224 172.381 158.677 172.152 158.328 171.693C157.979 171.235 157.805 170.41 157.805 169.217L157.883 166.85C157.883 166.553 157.841 166.269 157.758 165.998C157.674 165.727 157.633 165.555 157.633 165.482ZM167.055 168.147C166.737 167.824 166.578 167.371 166.578 166.787C166.578 166.204 166.839 165.704 167.359 165.287C167.88 164.865 168.526 164.654 169.297 164.654H169.5C170.182 164.654 170.724 164.751 171.125 164.943C171.531 165.136 171.734 165.425 171.734 165.811C171.734 166.191 171.565 166.381 171.227 166.381C171.138 166.381 170.888 166.277 170.477 166.068C170.065 165.855 169.677 165.748 169.312 165.748C168.948 165.748 168.654 165.831 168.43 165.998C168.211 166.16 168.102 166.384 168.102 166.67C168.102 166.956 168.255 167.206 168.562 167.42C168.74 167.545 169.156 167.743 169.812 168.014C170.474 168.285 170.945 168.545 171.227 168.795C171.68 169.196 171.906 169.709 171.906 170.334C171.906 170.959 171.641 171.496 171.109 171.943C170.578 172.386 169.888 172.607 169.039 172.607H168.836C167.982 172.607 167.341 172.485 166.914 172.24C166.487 171.99 166.273 171.667 166.273 171.272C166.273 170.871 166.44 170.67 166.773 170.67C166.883 170.67 167.167 170.811 167.625 171.092C168.089 171.373 168.542 171.514 168.984 171.514C169.432 171.514 169.768 171.42 169.992 171.232C170.216 171.04 170.328 170.8 170.328 170.514C170.328 170.222 170.188 169.967 169.906 169.748C169.755 169.628 169.323 169.412 168.609 169.1C167.896 168.782 167.378 168.464 167.055 168.147ZM174.016 161.647C174.016 161.266 174.372 161.076 175.086 161.076H175.227C175.523 161.076 175.727 161.149 175.836 161.295C175.945 161.436 176 161.712 176 162.123L175.938 163.287C175.922 163.469 175.914 163.568 175.914 163.584L175.898 163.881C175.888 164.074 175.878 164.269 175.867 164.467L175.844 164.764L175.82 165.209C175.737 166.792 175.695 167.962 175.695 168.717C175.695 169.467 175.729 170.006 175.797 170.334C175.865 170.662 175.971 170.941 176.117 171.17C176.263 171.399 176.336 171.55 176.336 171.623V171.717C176.336 171.946 176.221 172.128 175.992 172.264C175.768 172.399 175.464 172.467 175.078 172.467H174.672C174.432 172.467 174.221 172.399 174.039 172.264C173.862 172.123 173.773 171.964 173.773 171.787V171.576L173.82 171.248C173.883 170.795 173.919 170.456 173.93 170.232C173.945 170.003 173.969 169.688 174 169.287C174.031 168.881 174.081 168.019 174.148 166.701C174.221 165.378 174.258 164.667 174.258 164.568L174.289 163.982L174.305 163.404C174.305 162.852 174.255 162.459 174.156 162.225C174.062 161.985 174.016 161.792 174.016 161.647ZM180.719 162.35V162.443C180.719 162.709 180.641 162.936 180.484 163.123C180.333 163.305 180.099 163.397 179.781 163.397H179.656L179.414 163.365C179.273 163.365 179.138 163.3 179.008 163.17C178.878 163.04 178.812 162.844 178.812 162.584V162.49L178.852 162.209C178.852 162.1 178.917 161.964 179.047 161.803C179.182 161.641 179.354 161.561 179.562 161.561L179.742 161.537H179.898L180.117 161.568C180.253 161.568 180.385 161.636 180.516 161.772C180.651 161.902 180.719 162.094 180.719 162.35ZM180.352 165.647L180.266 167.748L180.25 167.959L180.227 168.6V168.904C180.227 169.654 180.247 170.147 180.289 170.381C180.336 170.615 180.422 170.844 180.547 171.068C180.672 171.287 180.734 171.446 180.734 171.545V171.615C180.734 171.871 180.604 172.074 180.344 172.225C180.083 172.376 179.729 172.451 179.281 172.451H179.086C178.826 172.451 178.628 172.394 178.492 172.279C178.357 172.16 178.289 172.032 178.289 171.897V171.725C178.289 171.657 178.349 171.417 178.469 171.006C178.589 170.589 178.648 170.024 178.648 169.311C178.664 169.107 178.672 168.967 178.672 168.889L178.695 168.459L178.711 168.248C178.737 167.884 178.75 167.6 178.75 167.397L178.758 167.084C178.758 166.693 178.693 166.347 178.562 166.045C178.438 165.743 178.375 165.555 178.375 165.482C178.375 165.107 178.729 164.92 179.438 164.92H179.719C179.984 164.92 180.156 164.99 180.234 165.131C180.312 165.266 180.352 165.438 180.352 165.647ZM185.914 165.279C186.315 165.128 186.727 165.053 187.148 165.053C187.57 165.053 188.008 165.178 188.461 165.428C188.919 165.678 189.169 165.803 189.211 165.803C189.253 165.803 189.534 165.675 190.055 165.42C190.576 165.165 191.044 165.037 191.461 165.037C191.883 165.037 192.229 165.126 192.5 165.303C192.776 165.475 192.984 165.68 193.125 165.92C193.391 166.378 193.523 167.397 193.523 168.975C193.523 169.683 193.529 170.089 193.539 170.193C193.555 170.292 193.591 170.472 193.648 170.732C193.711 170.988 193.742 171.199 193.742 171.365C193.742 171.527 193.674 171.696 193.539 171.873C193.404 172.05 193.224 172.139 193 172.139C192.557 172.139 192.294 171.959 192.211 171.6C192.148 171.339 192.076 170.579 191.992 169.318C191.914 168.058 191.828 167.318 191.734 167.1C191.547 166.641 191.148 166.412 190.539 166.412C190.148 166.412 189.844 166.657 189.625 167.147C189.307 167.85 189.148 168.85 189.148 170.147L189.227 171.272C189.227 171.667 189.081 171.967 188.789 172.17C188.602 172.3 188.352 172.365 188.039 172.365C187.732 172.365 187.529 172.334 187.43 172.272C187.258 172.167 187.172 171.946 187.172 171.607C187.172 171.545 187.221 171.29 187.32 170.842C187.424 170.389 187.477 169.654 187.477 168.639C187.477 167.618 187.401 166.969 187.25 166.693C187.099 166.412 186.836 166.272 186.461 166.272C186.086 166.272 185.753 166.399 185.461 166.654C185.174 166.91 184.964 167.188 184.828 167.49C184.698 167.792 184.581 168.511 184.477 169.647C184.378 170.782 184.307 171.433 184.266 171.6C184.193 171.886 183.982 172.029 183.633 172.029C183.289 172.029 183.052 171.928 182.922 171.725C182.797 171.516 182.734 171.264 182.734 170.967L182.773 170.693L182.922 170.154C182.984 169.904 183.021 169.613 183.031 169.279C183.109 167.212 183.169 166.032 183.211 165.74C183.253 165.449 183.44 165.303 183.773 165.303L184.938 165.498C185.188 165.498 185.513 165.425 185.914 165.279ZM198.172 171.522H198.375C198.802 171.522 199.177 171.378 199.5 171.092C199.828 170.8 199.992 170.464 199.992 170.084L200.008 169.982V169.881L200.023 169.639V169.193C200.023 168.891 199.87 168.74 199.562 168.74H199.211L199.156 168.748L198.852 168.772C198.706 168.792 198.602 168.803 198.539 168.803C198.117 168.803 197.727 168.962 197.367 169.279C197.117 169.503 196.992 169.821 196.992 170.232V170.389C196.992 170.738 197.104 171.014 197.328 171.217C197.557 171.42 197.839 171.522 198.172 171.522ZM196.43 166.529C196.081 166.529 195.906 166.305 195.906 165.857C195.906 165.524 196.188 165.235 196.75 164.99C197.318 164.74 197.906 164.615 198.516 164.615H198.906C199.432 164.615 199.896 164.714 200.297 164.912C200.698 165.105 201.003 165.368 201.211 165.701C201.424 166.035 201.555 166.469 201.602 167.006C201.612 167.131 201.617 167.738 201.617 168.826C201.617 169.915 201.63 170.542 201.656 170.709C201.688 170.871 201.771 171.068 201.906 171.303C202.047 171.537 202.117 171.73 202.117 171.881C202.117 172.032 202.044 172.162 201.898 172.272C201.758 172.376 201.552 172.428 201.281 172.428C201.01 172.428 200.716 172.363 200.398 172.232C200.081 172.097 199.849 172.029 199.703 172.029C199.688 172.029 199.427 172.123 198.922 172.311C198.417 172.493 197.99 172.584 197.641 172.584H197.469C196.885 172.584 196.388 172.399 195.977 172.029C195.57 171.66 195.367 171.134 195.367 170.451C195.367 169.769 195.591 169.238 196.039 168.857C196.487 168.472 197.031 168.209 197.672 168.068C197.865 168.027 198.185 167.972 198.633 167.904C199.081 167.837 199.385 167.766 199.547 167.693C199.828 167.563 199.969 167.318 199.969 166.959C199.969 166.594 199.849 166.311 199.609 166.107C199.37 165.899 199.083 165.795 198.75 165.795C198.422 165.795 197.99 165.917 197.453 166.162C196.917 166.407 196.576 166.529 196.43 166.529ZM204.891 172.357C204.276 172.357 203.969 172.139 203.969 171.701C203.969 171.503 204.016 171.209 204.109 170.818C204.208 170.428 204.273 170.068 204.305 169.74C204.336 169.407 204.391 168.334 204.469 166.522C204.552 164.709 204.594 163.605 204.594 163.209V162.287L204.547 161.631C204.547 161.386 204.771 161.264 205.219 161.264C205.672 161.264 205.966 161.438 206.102 161.787C206.169 161.964 206.203 162.542 206.203 163.522C206.203 164.501 206.221 165.058 206.258 165.193C206.299 165.329 206.406 165.397 206.578 165.397C206.599 165.397 206.698 165.365 206.875 165.303L207.047 165.24C207.604 165.022 208.086 164.912 208.492 164.912C209.346 164.912 209.953 165.246 210.312 165.912C210.552 166.355 210.672 167.318 210.672 168.803C210.672 169.501 210.677 169.915 210.688 170.045C210.698 170.175 210.732 170.412 210.789 170.756C210.846 171.094 210.875 171.282 210.875 171.318C210.875 171.626 210.805 171.855 210.664 172.006C210.529 172.152 210.281 172.225 209.922 172.225C209.568 172.225 209.336 172.115 209.227 171.897C209.169 171.782 209.141 171.451 209.141 170.904L209.117 169.529L209.141 168.287C209.141 166.897 208.734 166.201 207.922 166.201C207.203 166.201 206.69 166.503 206.383 167.107C206.076 167.712 205.922 168.831 205.922 170.467L205.945 171.318C205.945 171.61 205.854 171.857 205.672 172.061C205.49 172.259 205.229 172.357 204.891 172.357Z" fill="black"/>
</g>
<defs>
<filter id="filter0_d_343_337" x="25" y="76" width="253.095" height="84.1976" filterUnits="userSpaceOnUse" color-interpolation-filters="sRGB">
<feFlood flood-opacity="0" result="BackgroundImageFix"/>
<feColorMatrix in="SourceAlpha" type="matrix" values="0 0 0 0 0 0 0 0 0 0 0 0 0 0 0 0 0 0 127 0" result="hardAlpha"/>
<feOffset dy="4"/>
<feGaussianBlur stdDeviation="2"/>
<feComposite in2="hardAlpha" operator="out"/>
<feColorMatrix type="matrix" values="0 0 0 0 0 0 0 0 0 0 0 0 0 0 0 0 0 0 0.25 0"/>
<feBlend mode="normal" in2="BackgroundImageFix" result="effect1_dropShadow_343_337"/>
<feBlend mode="normal" in="SourceGraphic" in2="effect1_dropShadow_343_337" result="shape"/>
</filter>
<filter id="filter1_d_343_337" x="115.062" y="142.178" width="152.453" height="38.8984" filterUnits="userSpaceOnUse" color-interpolation-filters="sRGB">
<feFlood flood-opacity="0" result="BackgroundImageFix"/>
<feColorMatrix in="SourceAlpha" type="matrix" values="0 0 0 0 0 0 0 0 0 0 0 0 0 0 0 0 0 0 127 0" result="hardAlpha"/>
<feOffset dy="4"/>
<feGaussianBlur stdDeviation="2"/>
<feComposite in2="hardAlpha" operator="out"/>
<feColorMatrix type="matrix" values="0 0 0 0 0 0 0 0 0 0 0 0 0 0 0 0 0 0 0.25 0"/>
<feBlend mode="normal" in2="BackgroundImageFix" result="effect1_dropShadow_343_337"/>
<feBlend mode="normal" in="SourceGraphic" in2="effect1_dropShadow_343_337" result="shape"/>
</filter>
</defs>
</svg>
