<svg width="170" height="141" viewBox="0 0 170 141" fill="none" xmlns="http://www.w3.org/2000/svg">
<g filter="url(#filter0_d_665_413)">
<path d="M152.541 66.4582C152.541 67.1653 152.541 67.8725 152.504 68.5796C152.053 82.6672 146.951 96.2387 137.953 107.283C128.956 118.328 116.542 126.259 102.551 129.9C101.272 130.247 99.9717 130.543 98.6566 130.805C89.6577 132.597 80.3792 132.597 71.3803 130.805C70.0651 130.543 68.7645 130.247 67.4857 129.9C53.4945 126.259 41.0808 118.328 32.0834 107.283C23.0861 96.2387 17.9838 82.6672 17.5324 68.5796C17.5324 67.8725 17.4961 67.1653 17.4961 66.4582C17.4938 62.709 17.8219 58.9664 18.477 55.2718C18.7531 53.6737 19.0922 52.0969 19.4942 50.5412C20.3311 47.2622 21.4291 44.0517 22.7784 40.9387C27.9499 29.0338 36.6115 18.876 47.6811 11.7343C58.7507 4.5927 71.7373 0.783936 85.0184 0.783936C98.2996 0.783936 111.286 4.5927 122.356 11.7343C133.425 18.876 142.087 29.0338 147.258 40.9387C148.608 44.0517 149.706 47.2622 150.543 50.5412C150.94 52.0969 151.279 53.6737 151.56 55.2718C152.215 58.9664 152.543 62.709 152.541 66.4582Z" fill="white"/>
<path d="M85.0178 132.877C80.3804 132.877 75.755 132.42 71.2125 131.512C69.7593 131.229 68.5023 130.932 67.2671 130.593C53.1295 126.907 40.5867 118.89 31.4946 107.727C22.4026 96.5653 17.2445 82.8513 16.7834 68.6147C16.7834 67.9076 16.7471 67.2004 16.7471 66.4509C16.7462 62.6592 17.0768 58.8743 17.7352 55.1372C18.0113 53.5603 18.3601 51.9481 18.767 50.3571C22.4511 35.976 30.9717 23.207 42.9728 14.0819C54.9739 4.95688 69.7662 0 84.996 0C100.226 0 115.018 4.95688 127.019 14.0819C139.02 23.207 147.541 35.976 151.225 50.3571C151.632 51.9481 151.952 53.5603 152.257 55.1372C152.915 58.8743 153.246 62.6592 153.245 66.4509C153.245 67.158 153.245 67.8651 153.209 68.6147C152.747 82.8531 147.589 96.5689 138.495 107.732C129.402 118.896 116.857 126.914 102.718 130.6C101.49 130.932 100.204 131.229 98.7795 131.512C94.2513 132.417 89.6406 132.874 85.0178 132.877ZM85.0178 1.45349C70.1137 1.44321 55.6349 6.2873 43.8879 15.214C32.1409 24.1407 23.8015 36.6365 20.1984 50.7107C19.7988 52.2663 19.4718 53.8432 19.1957 55.3917C18.5461 59.0465 18.2204 62.7489 18.2221 66.458C18.2221 67.1651 18.2221 67.8722 18.2584 68.5793C18.7076 82.513 23.7551 95.9356 32.6538 106.86C41.5525 117.784 53.8293 125.63 67.6667 129.235C68.8729 129.567 70.1299 129.857 71.5177 130.133C80.4219 131.894 89.5991 131.894 98.5034 130.133C99.8912 129.857 101.148 129.567 102.347 129.242C116.185 125.636 128.462 117.789 137.361 106.863C146.259 95.9376 151.307 82.5139 151.755 68.5793C151.755 67.8722 151.792 67.1651 151.792 66.458C151.793 62.7489 151.468 59.0465 150.818 55.3917C150.557 53.8432 150.215 52.2663 149.815 50.7107C146.213 36.6401 137.877 24.1469 126.134 15.2206C114.392 6.29421 99.9181 1.44795 85.0178 1.45349Z" fill="black"/>
<path d="M57.4694 43.5311L69.6987 39.8447L65.9108 27.9433L53.6814 31.6297L57.4694 43.5311Z" fill="#F26555"/>
<path d="M57.4729 44.2337C57.3117 44.2404 57.1528 44.1947 57.0212 44.1038C56.8896 44.0129 56.7929 43.8819 56.7463 43.7316L52.9898 31.8098C52.933 31.6307 52.9517 31.437 53.0416 31.2712C53.1315 31.1055 53.2854 30.9813 53.4693 30.9259L65.6979 27.2419C65.8819 27.1866 66.081 27.2048 66.2513 27.2923C66.4216 27.3798 66.5492 27.5295 66.6062 27.7085L70.3917 39.6092C70.4484 39.7878 70.4301 39.981 70.3408 40.1466C70.2963 40.2289 70.2355 40.302 70.162 40.3614C70.0884 40.4209 70.0035 40.4656 69.9122 40.4931L57.6836 44.1771C57.6167 44.2062 57.5456 44.2253 57.4729 44.2337ZM54.5665 32.0855L57.9306 42.6356L68.7714 39.3688L65.4 28.8187L54.5665 32.0855Z" fill="black"/>
<path d="M45.2428 47.2113L57.4722 43.5249L53.6842 31.6235L41.4548 35.3099L45.2428 47.2113Z" fill="white"/>
<path d="M45.2376 47.9178C45.0825 47.9167 44.9319 47.8674 44.8077 47.7771C44.6835 47.6868 44.5923 47.5601 44.5473 47.4157L40.7618 35.5151C40.705 35.336 40.7236 35.1423 40.8136 34.9766C40.9035 34.8108 41.0573 34.6866 41.2413 34.6312L53.4699 30.9472C53.6539 30.8919 53.8529 30.9101 54.0233 30.9976C54.1936 31.0851 54.3212 31.2348 54.3781 31.4139L58.1346 43.3145C58.1914 43.4936 58.1727 43.6873 58.0828 43.853C57.9929 44.0188 57.839 44.143 57.6551 44.1984L45.4265 47.8824C45.3654 47.9023 45.3019 47.9142 45.2376 47.9178ZM42.3312 35.7767L45.6881 46.3268L56.5288 43.0599L53.201 32.517L42.3312 35.7767Z" fill="black"/>
<path d="M32.1905 50.9499L44.481 47.2122L40.6402 35.2513L28.3497 38.9891L32.1905 50.9499Z" fill="#F26555"/>
<path d="M33.0086 51.6087C32.8544 51.6081 32.7045 51.5598 32.5804 51.4709C32.4563 51.3819 32.3645 51.2568 32.3183 51.1137L28.5328 39.2131C28.476 39.034 28.4946 38.8403 28.5846 38.6746C28.6745 38.5088 28.8283 38.3846 29.0123 38.3292L41.2409 34.6381C41.4249 34.5829 41.6239 34.601 41.7942 34.6885C41.9645 34.776 42.0922 34.9257 42.1491 35.1048L45.9347 47.0054C45.9914 47.1845 45.9728 47.3782 45.8829 47.544C45.7929 47.7097 45.6391 47.8339 45.4551 47.8893L33.2265 51.6087C33.1543 51.6194 33.0808 51.6194 33.0086 51.6087ZM30.1022 39.4676L33.4591 50.0177L44.3289 46.7438L40.972 36.1937L30.1022 39.4676Z" fill="black"/>
<path d="M20.7853 54.5846L33.0146 50.8982L29.2267 38.9968L16.9973 42.6832L20.7853 54.5846Z" fill="white"/>
<path d="M20.7802 55.2856C20.6199 55.2927 20.4617 55.2481 20.3303 55.1585C20.1988 55.069 20.1016 54.9396 20.0536 54.7906L16.2608 42.89C16.204 42.7109 16.2227 42.5172 16.3126 42.3515C16.4025 42.1857 16.5564 42.0615 16.7403 42.0061L28.9762 38.3221C29.1592 38.2665 29.3574 38.2837 29.5276 38.3698C29.6977 38.4559 29.826 38.6039 29.8844 38.7817L33.67 50.6894C33.7267 50.8685 33.7081 51.0622 33.6182 51.2279C33.5282 51.3937 33.3744 51.5179 33.1904 51.5733L20.9618 55.2573C20.9028 55.2742 20.8417 55.2837 20.7802 55.2856ZM17.8738 43.1445L21.2597 53.73L32.1005 50.4631L28.7437 39.9131L17.8738 43.1445Z" fill="black"/>
<path d="M8.55091 58.2643L20.7803 54.5779L16.9923 42.6765L4.76295 46.3628L8.55091 58.2643Z" fill="#F26555"/>
<path d="M8.55168 58.9769C8.39048 58.9836 8.23157 58.9379 8.10001 58.847C7.96845 58.7561 7.87173 58.6251 7.82509 58.4748L4.03227 46.5742C3.97551 46.3951 3.99414 46.2014 4.08406 46.0356C4.17398 45.8699 4.32784 45.7457 4.51182 45.6903L16.7404 42.0063C16.9244 41.951 17.1235 41.9692 17.2938 42.0567C17.4641 42.1442 17.5917 42.2939 17.6486 42.4729L21.4414 54.3736C21.4982 54.5527 21.4796 54.7464 21.3896 54.9121C21.2997 55.0779 21.1459 55.2021 20.9619 55.2575L8.73333 58.9415C8.67458 58.9608 8.61353 58.9727 8.55168 58.9769ZM5.6453 46.8358L9.00216 57.3859L19.8429 54.112L16.4861 43.5619L5.6453 46.8358Z" fill="black"/>
<path d="M61.2579 55.4305L73.4873 51.7441L69.6993 39.8427L57.47 43.5291L61.2579 55.4305Z" fill="white"/>
<path d="M61.2583 56.1343C61.0971 56.141 60.9382 56.0953 60.8066 56.0044C60.6751 55.9135 60.5783 55.7826 60.5317 55.6323L56.7461 43.7316C56.6894 43.5525 56.708 43.3589 56.7979 43.1931C56.8879 43.0274 57.0417 42.9032 57.2257 42.8478L69.4543 39.1637C69.6383 39.1085 69.8373 39.1266 70.0076 39.2141C70.1779 39.3016 70.3056 39.4514 70.3625 39.6304L74.148 51.5311C74.2048 51.7102 74.1862 51.9039 74.0962 52.0696C74.0063 52.2353 73.8525 52.3595 73.6685 52.4149L61.4399 56.099C61.3813 56.1188 61.3202 56.1307 61.2583 56.1343ZM58.3519 43.9862L61.7669 54.5433L72.6077 51.2694L69.2508 40.7194L58.3519 43.9862Z" fill="black"/>
<path d="M49.0245 59.1102L61.2539 55.4238L57.4659 43.5224L45.2366 47.2088L49.0245 59.1102Z" fill="#F26555"/>
<path d="M49.0303 59.8184C48.87 59.8256 48.7118 59.7809 48.5803 59.6913C48.4489 59.6018 48.3516 59.4724 48.3037 59.3234L44.5181 47.4157C44.4614 47.2366 44.48 47.0429 44.5699 46.8772C44.6598 46.7115 44.8137 46.5872 44.9977 46.5318L57.2262 42.8478C57.4103 42.7926 57.6093 42.8107 57.7796 42.8982C57.9499 42.9857 58.0775 43.1355 58.1345 43.3145L61.92 55.2151C61.9768 55.3942 61.9581 55.5879 61.8682 55.7537C61.7783 55.9194 61.6245 56.0436 61.4405 56.099L49.2119 59.7831C49.1533 59.8029 49.0922 59.8148 49.0303 59.8184ZM46.1239 47.6774L49.4807 58.2274L60.3215 54.9606L56.9647 44.4105L46.1239 47.6774Z" fill="black"/>
<path d="M36.7911 62.8045L49.0205 59.1182L45.2325 47.2167L33.0032 50.9031L36.7911 62.8045Z" fill="white"/>
<path d="M36.8022 63.5025C36.642 63.5096 36.4838 63.465 36.3523 63.3754C36.2209 63.2859 36.1236 63.1565 36.0756 63.0075L32.2901 51.1069C32.2333 50.9278 32.252 50.7341 32.3419 50.5684C32.4318 50.4026 32.5856 50.2784 32.7696 50.223L45.0563 46.5319C45.2404 46.4767 45.4394 46.4948 45.6097 46.5823C45.78 46.6698 45.9076 46.8195 45.9646 46.9986L49.7501 58.8992C49.8069 59.0783 49.7882 59.272 49.6983 59.4378C49.6084 59.6035 49.4546 59.7277 49.2706 59.7831L37.042 63.4742C36.9643 63.4966 36.8832 63.5062 36.8022 63.5025ZM33.8959 51.3614L37.26 61.9115L48.1226 58.68L44.7657 48.0734L33.8959 51.3614Z" fill="black"/>
<path d="M24.5734 66.4886L36.8027 62.8022L33.0148 50.9008L20.7854 54.5872L24.5734 66.4886Z" fill="#F26555"/>
<path d="M24.5732 67.1651C24.412 67.1718 24.2531 67.1261 24.1216 67.0352C23.99 66.9443 23.8933 66.8134 23.8466 66.663L20.0611 54.7624C20.0043 54.5833 20.023 54.3896 20.1129 54.2239C20.2028 54.0581 20.3567 53.9339 20.5406 53.8785L32.7983 50.1945C32.9823 50.1393 33.1813 50.1574 33.3516 50.2449C33.5219 50.3324 33.6496 50.4821 33.7065 50.6612L37.4921 62.5618C37.5488 62.7409 37.5302 62.9346 37.4403 63.1004C37.3503 63.2661 37.1965 63.3903 37.0125 63.4457L24.7839 67.1651C24.7141 67.1751 24.6431 67.1751 24.5732 67.1651ZM21.6668 55.017L25.0237 65.567L35.8718 62.3002L32.5076 51.7501L21.6668 55.017Z" fill="black"/>
<path d="M12.3395 70.1686L24.5688 66.4822L20.7809 54.5808L8.55153 58.2671L12.3395 70.1686Z" fill="white"/>
<path d="M12.3584 70.8775C12.1972 70.8842 12.0383 70.8385 11.9067 70.7476C11.7752 70.6567 11.6784 70.5258 11.6318 70.3754L7.84623 58.4748C7.78948 58.2957 7.80811 58.102 7.89803 57.9363C7.98795 57.7705 8.1418 57.6463 8.32578 57.5909L20.5544 53.9069C20.7384 53.8517 20.9374 53.8698 21.1077 53.9573C21.278 54.0448 21.4057 54.1945 21.4626 54.3736L25.2481 66.2742C25.3049 66.4533 25.2863 66.647 25.1963 66.8128C25.1064 66.9785 24.9526 67.1027 24.7686 67.1581L12.54 70.8421C12.4813 70.8614 12.4202 70.8733 12.3584 70.8775ZM9.452 58.7364L12.8161 69.2865L23.6569 66.0197L20.3 55.4696L9.452 58.7364Z" fill="black"/>
<path d="M65.045 67.3282L77.2744 63.6418L73.4865 51.7404L61.2571 55.4268L65.045 67.3282Z" fill="#F26555"/>
<path d="M65.0442 68.0346C64.8891 68.0335 64.7385 67.9842 64.6143 67.8939C64.4901 67.8036 64.3989 67.677 64.3539 67.5326L60.5611 55.6319C60.5043 55.4528 60.523 55.2591 60.6129 55.0934C60.7028 54.9276 60.8567 54.8034 61.0406 54.748L73.2692 51.064C73.4528 51.0088 73.6513 51.0266 73.8214 51.1135C73.9078 51.1544 73.9843 51.2128 74.0457 51.2847C74.1071 51.3567 74.152 51.4405 74.1774 51.5307L77.9703 63.4313C78.027 63.6104 78.0084 63.8041 77.9185 63.9699C77.8285 64.1356 77.6747 64.2598 77.4907 64.3152L65.2621 67.9992C65.1918 68.0218 65.1182 68.0337 65.0442 68.0346ZM62.1378 55.8935L65.5237 66.4577L76.3645 63.1909L73.0076 52.6338L62.1378 55.8935Z" fill="black"/>
<path d="M51.8125 71.05L64.103 67.3123L60.2623 55.3514L47.9718 59.0892L51.8125 71.05Z" fill="white"/>
<path d="M52.8155 71.7188C52.6552 71.7259 52.497 71.6813 52.3656 71.5917C52.2341 71.5022 52.1368 71.3728 52.0889 71.2238L48.2961 59.3232C48.2669 59.2341 48.2561 59.1402 48.2645 59.047C48.2728 58.9538 48.3001 58.8631 48.3447 58.7803C48.3893 58.6974 48.4503 58.624 48.5243 58.5642C48.5983 58.5045 48.6837 58.4596 48.7756 58.4322L61.0405 54.7482C61.2245 54.693 61.4236 54.7111 61.5939 54.7986C61.7642 54.8861 61.8918 55.0358 61.9488 55.2149L65.7416 67.1155C65.7983 67.2946 65.7797 67.4883 65.6898 67.6541C65.5999 67.8198 65.446 67.944 65.262 67.9994L53.048 71.6905C52.9726 71.7121 52.894 71.7217 52.8155 71.7188ZM49.9091 59.5778L53.266 70.1278L64.1067 66.861L60.7499 56.3109L49.9091 59.5778Z" fill="black"/>
<path d="M40.587 74.7013L52.8164 71.0149L49.0284 59.1135L36.7991 62.7999L40.587 74.7013Z" fill="#F26555"/>
<path d="M40.5869 75.4026C40.4266 75.4098 40.2684 75.3651 40.137 75.2756C40.0056 75.186 39.9083 75.0567 39.8603 74.9077L36.0747 63.007C36.018 62.8279 36.0366 62.6342 36.1265 62.4685C36.2165 62.3028 36.3703 62.1785 36.5543 62.1231L48.7829 58.432C48.9669 58.3768 49.1659 58.3949 49.3362 58.4824C49.5065 58.57 49.6342 58.7197 49.6911 58.8987L53.4839 70.7994C53.5131 70.8885 53.5239 70.9824 53.5155 71.0756C53.5072 71.1688 53.4799 71.2594 53.4353 71.3423C53.3907 71.4252 53.3297 71.4986 53.2557 71.5583C53.1817 71.6181 53.0963 71.6629 53.0044 71.6903L40.7758 75.3744C40.7144 75.3918 40.6509 75.4014 40.5869 75.4026ZM37.6805 63.2616L41.0374 73.8117L51.8782 70.5448L48.5213 59.9948L37.6805 63.2616Z" fill="black"/>
<path d="M28.3551 78.388L40.5845 74.7017L36.7965 62.8003L24.5671 66.4866L28.3551 78.388Z" fill="white"/>
<path d="M28.3442 79.0938C28.183 79.1005 28.0241 79.0548 27.8926 78.9639C27.761 78.873 27.6643 78.7421 27.6176 78.5918L23.8321 66.6911C23.7753 66.512 23.7939 66.3183 23.8839 66.1526C23.9738 65.9869 24.1276 65.8626 24.3116 65.8072L36.5402 62.1232C36.7242 62.068 36.9233 62.0861 37.0936 62.1736C37.2639 62.2611 37.3915 62.4108 37.4484 62.5899L41.234 74.4905C41.291 74.6687 41.2734 74.8616 41.185 75.0272C41.0965 75.1927 40.9443 75.3176 40.7617 75.3744L28.5259 79.0585C28.4673 79.0783 28.4061 79.0902 28.3442 79.0938ZM25.4378 66.9457L28.7947 77.5028L39.6791 74.236L36.3367 63.6788L25.4378 66.9457Z" fill="black"/>
<path d="M16.1207 82.0748L28.3501 78.3884L24.5621 66.487L12.3328 70.1734L16.1207 82.0748Z" fill="#F26555"/>
<path d="M16.1301 82.7781C15.9689 82.7848 15.81 82.7391 15.6784 82.6482C15.5469 82.5573 15.4501 82.4264 15.4035 82.2761L11.6325 70.3754C11.5758 70.1968 11.5941 70.0036 11.6833 69.838C11.7279 69.7557 11.7886 69.6827 11.8622 69.6232C11.9358 69.5638 12.0207 69.519 12.112 69.4916L24.3406 65.8075C24.5246 65.7523 24.7237 65.7704 24.894 65.8579C25.0643 65.9454 25.1919 66.0952 25.2488 66.2742L29.0707 78.1749C29.1275 78.354 29.1089 78.5477 29.0189 78.7134C28.929 78.8791 28.7752 79.0033 28.5912 79.0587L16.3408 82.7216C16.2739 82.7507 16.2029 82.7697 16.1301 82.7781ZM13.2237 70.6371L16.5806 81.1871L27.4214 77.9203L24.0645 67.3702L13.2237 70.6371Z" fill="black"/>
<path d="M102.551 129.921C101.272 130.268 99.9715 130.565 98.6564 130.826L85.0182 87.9684L82.9257 81.3994L77.2728 63.6297L69.7017 39.8284L65.9088 27.9349L64.8407 24.569C64.7834 24.3808 64.754 24.1855 64.7536 23.9892C64.7479 23.521 64.9167 23.0666 65.2288 22.7101C65.5408 22.3536 65.975 22.1192 66.4509 22.0502C66.9269 21.9812 67.4124 22.0823 67.8176 22.3348C68.2229 22.5872 68.5205 22.974 68.6554 23.4235L85.0182 74.8374L87.1108 81.3994L102.551 129.921Z" fill="white"/>
<path d="M98.6568 131.512C98.4965 131.519 98.3383 131.474 98.2069 131.385C98.0755 131.295 97.9782 131.166 97.9302 131.017L64.1509 24.7737C64.0709 24.5193 64.0293 24.2549 64.0273 23.9889C64.0302 23.3558 64.2656 22.7445 64.6912 22.2657C65.1168 21.7868 65.7043 21.472 66.3477 21.378C66.991 21.284 67.6477 21.4172 68.1989 21.7534C68.7502 22.0896 69.1596 22.6066 69.3533 23.211L103.242 129.709C103.272 129.799 103.283 129.895 103.274 129.989C103.265 130.084 103.237 130.176 103.191 130.26C103.144 130.343 103.08 130.415 103.004 130.473C102.928 130.532 102.841 130.575 102.748 130.6C101.512 130.939 100.226 131.236 98.8021 131.519L98.6568 131.512ZM66.7448 22.7585C66.6189 22.7565 66.4935 22.7756 66.3742 22.8151C66.1147 22.8901 65.8873 23.0451 65.7261 23.2568C65.5649 23.4685 65.4788 23.7254 65.4805 23.9889C65.4815 24.1158 65.5011 24.242 65.5387 24.3636L85.7452 87.7559L99.1872 130.006C100.052 129.822 100.873 129.631 101.665 129.433L67.9655 23.6353C67.8848 23.3815 67.7228 23.1595 67.5032 23.0017C67.2835 22.8439 67.0178 22.7587 66.7448 22.7585Z" fill="black"/>
<path d="M116.355 31.6236L104.125 27.9373L100.338 39.8387L112.567 43.525L116.355 31.6236Z" fill="#F26555"/>
<path d="M112.563 44.2333C112.493 44.2432 112.422 44.2432 112.352 44.2333L100.124 40.5492C100.032 40.5218 99.9475 40.477 99.8739 40.4176C99.8004 40.3581 99.7396 40.2851 99.6951 40.2027C99.6058 40.0372 99.5875 39.844 99.6442 39.6653L103.43 27.7647C103.487 27.5856 103.614 27.4359 103.785 27.3484C103.955 27.2609 104.154 27.2428 104.338 27.298L116.567 30.982C116.751 31.0374 116.904 31.1617 116.994 31.3274C117.084 31.4931 117.103 31.6868 117.046 31.8659L113.261 43.7666C113.209 43.9055 113.114 44.0253 112.989 44.109C112.864 44.1927 112.715 44.2361 112.563 44.2333ZM101.243 39.3683L112.083 42.6352L115.448 32.0851L104.636 28.8183L101.243 39.3683Z" fill="black"/>
<path d="M128.584 35.3187L116.355 31.6323L112.567 43.5337L124.796 47.2201L128.584 35.3187Z" fill="white"/>
<path d="M124.799 47.9176C124.726 47.9282 124.653 47.9282 124.581 47.9176L112.352 44.2335C112.168 44.1781 112.014 44.0539 111.924 43.8882C111.834 43.7225 111.816 43.5288 111.873 43.3497L115.658 31.449C115.715 31.27 115.843 31.1202 116.013 31.0327C116.183 30.9452 116.382 30.9271 116.566 30.9823L128.795 34.6381C128.979 34.6935 129.133 34.8177 129.223 34.9834C129.313 35.1492 129.331 35.3429 129.275 35.522L125.489 47.4226C125.443 47.5657 125.351 47.6908 125.227 47.7797C125.103 47.8687 124.953 47.917 124.799 47.9176ZM113.478 43.0597L124.319 46.3266L127.676 35.7765L116.835 32.5168L113.478 43.0597Z" fill="black"/>
<path d="M140.809 39.0003L128.58 35.314L124.792 47.2154L137.021 50.9018L140.809 39.0003Z" fill="#F26555"/>
<path d="M137.028 51.6089C136.956 51.6196 136.882 51.6196 136.81 51.6089L124.582 47.9178C124.398 47.8624 124.244 47.7382 124.154 47.5725C124.064 47.4067 124.045 47.213 124.102 47.0339L127.888 35.0979C127.945 34.9189 128.072 34.7692 128.243 34.6817C128.413 34.5942 128.612 34.576 128.796 34.6313L141.024 38.3224C141.208 38.3778 141.362 38.502 141.452 38.6677C141.542 38.8335 141.561 39.0272 141.504 39.2062L137.718 51.1069C137.673 51.2513 137.582 51.3779 137.458 51.4683C137.334 51.5586 137.183 51.6079 137.028 51.6089ZM125.708 46.744L136.549 50.0109L139.906 39.4608L129.065 36.194L125.708 46.744Z" fill="black"/>
<path d="M153.042 42.6817L140.812 38.9954L137.025 50.8968L149.254 54.5832L153.042 42.6817Z" fill="white"/>
<path d="M149.257 55.2859C149.184 55.2966 149.111 55.2966 149.039 55.2859L136.81 51.6089C136.626 51.5535 136.472 51.4293 136.382 51.2636C136.292 51.0978 136.274 50.9041 136.331 50.725L140.116 38.8173C140.175 38.6396 140.303 38.4915 140.473 38.4054C140.643 38.3193 140.841 38.3022 141.024 38.3577L153.26 42.0417C153.444 42.0971 153.598 42.2214 153.688 42.3871C153.778 42.5528 153.797 42.7465 153.74 42.9256L149.947 54.8263C149.895 54.9628 149.8 55.0802 149.677 55.1624C149.553 55.2447 149.406 55.2878 149.257 55.2859ZM137.936 50.4281L148.777 53.7303L152.134 43.1236L141.293 39.8568L137.936 50.4281Z" fill="black"/>
<path d="M165.265 46.3766L153.035 42.6902L149.247 54.5916L161.477 58.278L165.265 46.3766Z" fill="#F26555"/>
<path d="M161.485 58.9769C161.412 58.9876 161.339 58.9876 161.267 58.9769L149.038 55.2929C148.854 55.2375 148.7 55.1133 148.61 54.9475C148.521 54.7818 148.502 54.5881 148.559 54.409L152.351 42.5083C152.408 42.3293 152.536 42.1796 152.706 42.0921C152.877 42.0046 153.076 41.9864 153.26 42.0417L165.488 45.7257C165.672 45.7811 165.826 45.9053 165.916 46.071C166.006 46.2368 166.025 46.4305 165.968 46.6096L162.175 58.5102C162.124 58.648 162.03 58.7669 161.906 58.8505C161.783 58.9342 161.635 58.9783 161.485 58.9769ZM150.164 54.112L161.005 57.3859L164.362 46.8359L153.521 43.5619L150.164 54.112Z" fill="black"/>
<path d="M112.564 43.5252L100.335 39.8389L96.547 51.7403L108.776 55.4267L112.564 43.5252Z" fill="white"/>
<path d="M108.777 56.1343C108.706 56.1335 108.634 56.1216 108.567 56.099L96.338 52.4149C96.154 52.3595 96.0002 52.2353 95.9102 52.0696C95.8203 51.9039 95.8017 51.7102 95.8584 51.5311L99.644 39.6304C99.7009 39.4514 99.8286 39.3016 99.9989 39.2141C100.169 39.1266 100.368 39.1085 100.552 39.1637L112.781 42.8478C112.965 42.9032 113.119 43.0274 113.209 43.1931C113.298 43.3589 113.317 43.5525 113.26 43.7316L109.475 55.6323C109.428 55.7826 109.331 55.9135 109.2 56.0044C109.068 56.0953 108.909 56.141 108.748 56.1343H108.777ZM97.4569 51.2694L108.269 54.5433L111.626 43.9862L100.785 40.7194L97.4569 51.2694Z" fill="black"/>
<path d="M124.787 47.214L112.558 43.5276L108.77 55.429L120.999 59.1154L124.787 47.214Z" fill="#F26555"/>
<path d="M121.006 59.8184C120.935 59.8176 120.863 59.8057 120.796 59.7831L108.567 56.099C108.383 56.0436 108.229 55.9194 108.139 55.7537C108.049 55.5879 108.031 55.3942 108.087 55.2151L111.902 43.3145C111.959 43.1355 112.087 42.9857 112.257 42.8982C112.427 42.8107 112.626 42.7926 112.81 42.8478L124.981 46.5318C125.165 46.5872 125.319 46.7115 125.408 46.8772C125.498 47.0429 125.517 47.2366 125.46 47.4157L121.675 59.3234C121.63 59.4631 121.541 59.5858 121.421 59.6745C121.302 59.7631 121.157 59.8134 121.006 59.8184ZM109.722 54.9606L120.563 58.2274L123.92 47.6774L113.079 44.4105L109.722 54.9606Z" fill="black"/>
<path d="M137.019 50.8951L124.79 47.2087L121.002 59.1102L133.231 62.7965L137.019 50.8951Z" fill="white"/>
<path d="M133.234 63.5025C133.164 63.5125 133.093 63.5125 133.024 63.5025L120.795 59.8114C120.611 59.756 120.457 59.6318 120.367 59.4661C120.277 59.3003 120.259 59.1066 120.315 58.9275L124.101 47.0269C124.158 46.8479 124.286 46.6981 124.456 46.6106C124.626 46.5231 124.825 46.505 125.009 46.5602L137.238 50.1947C137.422 50.2501 137.576 50.3744 137.666 50.5401C137.756 50.7058 137.774 50.8995 137.717 51.0786L133.932 62.9793C133.89 63.1288 133.8 63.261 133.674 63.3555C133.548 63.45 133.393 63.5017 133.234 63.5025ZM121.914 58.6801L132.755 61.9469L136.119 51.3968L125.271 48.0734L121.914 58.6801Z" fill="black"/>
<path d="M149.251 54.5856L137.022 50.8992L133.234 62.8006L145.463 66.487L149.251 54.5856Z" fill="#F26555"/>
<path d="M145.463 67.1654C145.393 67.1753 145.322 67.1753 145.253 67.1654L133.024 63.4813C132.84 63.4259 132.686 63.3017 132.596 63.136C132.506 62.9703 132.488 62.7766 132.544 62.5975L136.33 50.6968C136.387 50.5178 136.515 50.368 136.685 50.2805C136.855 50.193 137.054 50.1749 137.238 50.2301L149.467 53.9142C149.651 53.9696 149.805 54.0938 149.895 54.2595C149.984 54.4253 150.003 54.6189 149.946 54.798L146.161 66.6987C146.109 66.8376 146.014 66.9574 145.889 67.0411C145.764 67.1248 145.615 67.1683 145.463 67.1654ZM134.143 62.3005L144.991 65.5673L148.348 55.0173L137.507 51.7504L134.143 62.3005Z" fill="black"/>
<path d="M161.482 58.2738L149.252 54.5874L145.464 66.4888L157.694 70.1752L161.482 58.2738Z" fill="white"/>
<path d="M157.677 70.8778C157.603 70.8769 157.53 70.8649 157.459 70.8424L145.253 67.1654C145.069 67.11 144.915 66.9858 144.825 66.8201C144.735 66.6543 144.716 66.4606 144.773 66.2816L148.559 54.3809C148.615 54.2019 148.743 54.0521 148.913 53.9646C149.084 53.8771 149.283 53.859 149.467 53.9142L161.695 57.5983C161.879 57.6537 162.033 57.7779 162.123 57.9436C162.213 58.1093 162.232 58.303 162.175 58.4821L158.404 70.3757C158.357 70.526 158.261 70.657 158.129 70.7479C157.997 70.8388 157.838 70.8845 157.677 70.8778ZM146.357 66.0199L157.22 69.2868L160.584 58.7367L149.743 55.4699L146.357 66.0199Z" fill="black"/>
<path d="M108.772 55.4295L96.5425 51.7432L92.7545 63.6446L104.984 67.331L108.772 55.4295Z" fill="#F26555"/>
<path d="M104.993 68.0349C104.92 68.0455 104.847 68.0455 104.775 68.0349L92.546 64.3367C92.362 64.2813 92.2082 64.1571 92.1182 63.9913C92.0283 63.8256 92.0097 63.6319 92.0664 63.4528L95.8593 51.5522C95.8847 51.462 95.9296 51.3781 95.991 51.3062C96.0524 51.2343 96.1289 51.1759 96.2153 51.135C96.3854 51.0481 96.584 51.0303 96.7675 51.0855L108.996 54.7483C109.18 54.8037 109.334 54.9279 109.424 55.0937C109.514 55.2594 109.532 55.4531 109.476 55.6322L105.683 67.5328C105.638 67.6772 105.547 67.8039 105.422 67.8942C105.298 67.9845 105.148 68.0338 104.993 68.0349ZM93.6722 63.177L104.513 66.458L107.87 55.908L97.0291 52.634L93.6722 63.177Z" fill="black"/>
<path d="M121.004 59.1175L108.775 55.4312L104.987 67.3326L117.216 71.0189L121.004 59.1175Z" fill="white"/>
<path d="M117.221 71.7186C117.149 71.7293 117.075 71.7293 117.003 71.7186L104.775 68.0275C104.591 67.9721 104.437 67.8479 104.347 67.6821C104.257 67.5164 104.238 67.3227 104.295 67.1436L108.088 55.243C108.145 55.0639 108.272 54.9142 108.443 54.8267C108.613 54.7392 108.812 54.721 108.996 54.7763L121.225 58.4603C121.317 58.4877 121.402 58.5326 121.476 58.5923C121.55 58.652 121.611 58.7255 121.656 58.8083C121.7 58.8912 121.727 58.9819 121.736 59.0751C121.744 59.1683 121.733 59.2621 121.704 59.3513L117.911 71.2519C117.86 71.3897 117.766 71.5086 117.643 71.5922C117.519 71.6758 117.372 71.72 117.221 71.7186ZM105.901 66.8608L116.742 70.1276L120.098 59.5775L109.258 56.3107L105.901 66.8608Z" fill="black"/>
<path d="M133.23 62.7992L121 59.1128L117.213 71.0142L129.442 74.7006L133.23 62.7992Z" fill="#F26555"/>
<path d="M129.449 75.4026C129.377 75.4133 129.303 75.4133 129.231 75.4026L116.988 71.6903C116.896 71.6629 116.811 71.6181 116.737 71.5583C116.663 71.4986 116.602 71.4252 116.557 71.3423C116.512 71.2594 116.485 71.1688 116.477 71.0756C116.469 70.9824 116.479 70.8885 116.508 70.7994L120.301 58.8987C120.358 58.7197 120.486 58.57 120.656 58.4824C120.826 58.3949 121.025 58.3768 121.21 58.432L133.438 62.1231C133.622 62.1785 133.776 62.3028 133.866 62.4685C133.956 62.6342 133.974 62.8279 133.918 63.007L130.147 74.943C130.094 75.0807 129.998 75.1989 129.873 75.2813C129.748 75.3636 129.6 75.406 129.449 75.4026ZM118.129 70.5448L128.97 73.8117L132.326 63.2616L121.486 59.9948L118.129 70.5448Z" fill="black"/>
<path d="M145.462 66.4806L133.232 62.7942L129.444 74.6956L141.674 78.382L145.462 66.4806Z" fill="white"/>
<path d="M141.692 79.0938C141.621 79.093 141.55 79.0811 141.482 79.0585L129.246 75.3744C129.063 75.3176 128.911 75.1927 128.823 75.0272C128.734 74.8616 128.717 74.6687 128.774 74.4905L132.559 62.5899C132.616 62.4108 132.744 62.2611 132.914 62.1736C133.084 62.0861 133.283 62.068 133.467 62.1232L145.696 65.8072C145.88 65.8626 146.034 65.9869 146.124 66.1526C146.214 66.3183 146.232 66.512 146.176 66.6911L142.39 78.5918C142.345 78.7373 142.252 78.8648 142.127 78.9552C142.001 79.0457 141.849 79.0943 141.692 79.0938ZM130.358 74.236L141.198 77.5099L144.555 66.9528L133.7 63.6788L130.358 74.236Z" fill="black"/>
<path d="M157.691 70.1759L145.462 66.4895L141.674 78.3909L153.903 82.0773L157.691 70.1759Z" fill="#F26555"/>
<path d="M153.906 82.7781C153.835 82.7765 153.764 82.7646 153.695 82.7428L141.467 79.0587C141.283 79.0033 141.129 78.8791 141.039 78.7134C140.949 78.5477 140.931 78.354 140.987 78.1749L144.773 66.2742C144.83 66.0952 144.957 65.9454 145.128 65.8579C145.298 65.7704 145.497 65.7523 145.681 65.8075L157.91 69.4916C158.001 69.519 158.086 69.5638 158.16 69.6232C158.233 69.6827 158.294 69.7557 158.338 69.838C158.428 70.0036 158.446 70.1968 158.389 70.3754L154.604 82.2761C154.558 82.4216 154.466 82.5491 154.34 82.6395C154.215 82.73 154.062 82.7786 153.906 82.7781ZM142.586 77.9203L153.427 81.1871L156.783 70.6371L145.943 67.3702L142.586 77.9203Z" fill="black"/>
<path d="M105.283 23.9889C105.282 24.1853 105.253 24.3805 105.196 24.5688L104.127 27.9346L100.335 39.8352L92.7635 63.6295L87.1106 81.392L85.0181 87.9681L71.3799 130.805C70.0648 130.543 68.7642 130.246 67.4854 129.9L82.9255 81.3779L85.0181 74.8159L101.381 23.402C101.516 22.9525 101.813 22.5657 102.219 22.3133C102.624 22.0608 103.109 21.9597 103.585 22.0287C104.061 22.0977 104.495 22.3321 104.807 22.6886C105.12 23.0451 105.288 23.4995 105.283 23.9677V23.9889Z" fill="white"/>
<path d="M71.3798 131.512H71.2345C69.7813 131.229 68.5243 130.932 67.2891 130.593C67.1957 130.568 67.1084 130.525 67.0323 130.466C66.9562 130.408 66.8928 130.336 66.8459 130.253C66.7997 130.169 66.7714 130.077 66.7627 129.982C66.7539 129.888 66.7649 129.792 66.795 129.702L100.683 23.211C100.877 22.6066 101.286 22.0896 101.838 21.7534C102.389 21.4172 103.046 21.284 103.689 21.378C104.332 21.472 104.92 21.7868 105.345 22.2657C105.771 22.7445 106.006 23.3558 106.009 23.9889C106.007 24.2521 105.968 24.5137 105.893 24.7667L72.0774 131.038C72.027 131.178 71.9325 131.3 71.8073 131.385C71.6821 131.47 71.5325 131.514 71.3798 131.512ZM68.4008 129.39C69.1928 129.588 70.0138 129.779 70.8785 129.963L104.498 24.3566C104.536 24.2375 104.556 24.1136 104.556 23.9889C104.557 23.7247 104.471 23.4673 104.31 23.2547C104.149 23.042 103.922 22.8854 103.662 22.808C103.339 22.7151 102.99 22.7498 102.693 22.9046C102.395 23.0593 102.172 23.3218 102.071 23.6353L68.4008 129.39Z" fill="black"/>
</g>
<defs>
<filter id="filter0_d_665_413" x="0" y="0" width="170" height="140.877" filterUnits="userSpaceOnUse" color-interpolation-filters="sRGB">
<feFlood flood-opacity="0" result="BackgroundImageFix"/>
<feColorMatrix in="SourceAlpha" type="matrix" values="0 0 0 0 0 0 0 0 0 0 0 0 0 0 0 0 0 0 127 0" result="hardAlpha"/>
<feOffset dy="4"/>
<feGaussianBlur stdDeviation="2"/>
<feComposite in2="hardAlpha" operator="out"/>
<feColorMatrix type="matrix" values="0 0 0 0 0 0 0 0 0 0 0 0 0 0 0 0 0 0 0.25 0"/>
<feBlend mode="normal" in2="BackgroundImageFix" result="effect1_dropShadow_665_413"/>
<feBlend mode="normal" in="SourceGraphic" in2="effect1_dropShadow_665_413" result="shape"/>
</filter>
</defs>
</svg>
